<svg width="58" height="67" viewBox="0 0 58 67" fill="none" xmlns="http://www.w3.org/2000/svg">
<circle cx="24.3154" cy="24.539" r="23.957" fill="#EAD9FD"/>
<path d="M28.5339 36.1895C21.4322 36.1895 15.6611 41.9604 15.6611 49.0622C15.6611 56.1641 21.4321 61.935 28.5339 61.935C35.6358 61.935 41.4067 56.1641 41.4067 49.0622C41.4067 41.9604 35.6358 36.1895 28.5339 36.1895ZM28.5339 60.082C22.4645 60.082 17.5269 55.1443 17.5269 49.075C17.5269 43.0056 22.4646 38.068 28.5339 38.068C34.6033 38.068 39.5409 43.0056 39.5409 49.075C39.5409 55.1443 34.6033 60.082 28.5339 60.082Z" fill="#5C2D91"/>
<path d="M35.1009 45.9771H31.6308V42.507C31.6308 41.9971 31.2079 41.5742 30.698 41.5742H26.3822C25.8723 41.5742 25.4494 41.9971 25.4494 42.507V45.9771H21.9793C21.4694 45.9771 21.0465 46.4 21.0465 46.9099V51.2257C21.0465 51.7356 21.4694 52.1585 21.9793 52.1585H25.4494V55.6286C25.4494 56.1385 25.8723 56.5614 26.3822 56.5614H30.698C31.2079 56.5614 31.6308 56.1385 31.6308 55.6286V52.1585H35.1009C35.6108 52.1585 36.0337 51.7357 36.0337 51.2257V46.9099C36.0337 46.3875 35.6108 45.9771 35.1009 45.9771ZM34.168 50.2929H30.698C30.1881 50.2929 29.7652 50.7157 29.7652 51.2257V54.6958H27.3025V51.2257C27.3025 50.7158 26.8797 50.2929 26.3697 50.2929H22.8997V47.8427H26.3697C26.8796 47.8427 27.3025 47.4199 27.3025 46.9099V43.4399H29.7527V46.9099C29.7527 47.4198 30.1755 47.8427 30.6855 47.8427H34.1555V50.2929H34.168Z" fill="#5C2D91"/>
<path d="M28.2353 25.5304C29.0935 25.5304 29.902 25.1946 30.5114 24.5852C31.1208 23.9758 31.4566 23.1674 31.4566 22.3091V21.6002C31.4566 19.8216 30.0139 18.3789 28.2353 18.3789C26.4568 18.3789 25.014 19.8216 25.014 21.6002V22.3091C25.014 23.1673 25.3499 23.9758 25.9593 24.5852C26.5687 25.1946 27.3771 25.5304 28.2353 25.5304ZM26.8921 21.6002C26.8921 20.854 27.5015 20.2446 28.2478 20.2446C28.994 20.2446 29.6034 20.854 29.6034 21.6002V22.3091C29.6034 22.6698 29.4666 23.0056 29.2054 23.2668C28.6955 23.7767 27.8124 23.7767 27.2901 23.2668C27.0289 23.0056 26.8921 22.6698 26.8921 22.3091V21.6002Z" fill="#5C2D91"/>
<path d="M56.6301 18.9384H55.0007V14.3117C55.0007 13.8018 54.5779 13.3789 54.0679 13.3789H47.5881V12.5331C47.5881 12.0232 47.1652 11.6003 46.6552 11.6003H39.4665V10.5431C39.4665 10.0332 39.0436 9.61031 38.5336 9.61031H27.178V7.2845C27.178 6.52582 27.7874 5.91635 28.5462 5.91635C29.3049 5.91635 29.9143 6.52578 29.9143 7.2845V8.05562C29.9143 8.56555 30.3372 8.98844 30.8471 8.98844C31.3571 8.98844 31.78 8.56557 31.78 8.05562V7.2845C31.78 5.50593 30.3248 4.05078 28.5463 4.05078C26.7677 4.05078 25.3125 5.50593 25.3125 7.2845V9.61031H18.5466C18.0367 9.61031 17.6138 10.0332 17.6138 10.5431V11.6003H10.425C9.91508 11.6003 9.49219 12.0232 9.49219 12.5331V65.118C9.49219 65.6279 9.91506 66.0508 10.425 66.0508H49.7645C50.2745 66.0508 50.6974 65.6279 50.6974 65.118V64.9811H54.0803C54.5903 64.9811 55.0132 64.5583 55.0132 64.0483V59.5335H56.6425C57.1524 59.5335 57.5753 59.1107 57.5753 58.6007V19.8709C57.5629 19.361 57.14 18.9384 56.6301 18.9384ZM53.1352 15.2445V18.9384H47.5881V15.2445H53.1352ZM29.803 11.4635C29.604 11.9735 29.119 12.3342 28.5344 12.3342C27.9623 12.3342 27.4647 11.9735 27.2657 11.4635H29.803ZM19.4679 11.4635H25.3507C25.5871 13.0058 26.9179 14.1998 28.5347 14.1998C30.1515 14.1998 31.4699 13.0058 31.7187 11.4635H37.6015V31.911H35.2136C35.1763 29.2867 33.7087 26.936 31.3455 25.7794C30.8853 25.5555 30.3257 25.7421 30.1018 26.2022C29.8779 26.6624 30.0645 27.2221 30.5247 27.446C32.241 28.2917 33.323 29.9956 33.3604 31.911H23.1494C23.1867 29.9957 24.2687 28.2917 25.9851 27.446C26.4453 27.2221 26.6319 26.6624 26.408 26.2022C26.1841 25.7421 25.6244 25.5555 25.1642 25.7794C22.8011 26.936 21.3335 29.2867 21.2962 31.911H19.4679V11.4635ZM48.8201 64.1734H11.3464V13.4663H17.6024V32.8558C17.6024 33.3658 18.0253 33.7887 18.5352 33.7887H38.5218C39.0317 33.7887 39.4546 33.3658 39.4546 32.8558V13.4663H45.7106V43.8262C45.7106 44.0749 45.8101 44.3113 45.9843 44.4854L48.8076 47.3087V64.1742L48.8201 64.1734ZM53.1359 63.1037H50.6857V59.5217H53.1359V63.1037ZM55.698 57.6561H50.6857V46.9349C50.6857 46.6861 50.5862 46.4498 50.4121 46.2757L47.5888 43.4524V41.9101H52.7379C53.2479 41.9101 53.6707 41.4873 53.6707 40.9773C53.6707 40.4674 53.2479 40.0445 52.7379 40.0445H47.5888V36.7734H52.6259C53.1359 36.7734 53.5588 36.3506 53.5588 35.8406C53.5588 35.3307 53.1359 34.9078 52.6259 34.9078H47.5888V31.7487H52.6259C53.1359 31.7487 53.5588 31.3258 53.5588 30.8158C53.5588 30.3059 53.1359 29.883 52.6259 29.883H47.5888V26.7115H52.6259C53.1359 26.7115 53.5588 26.2886 53.5588 25.7786C53.5588 25.2687 53.1359 24.8458 52.6259 24.8458H47.5888V20.8037H55.6984L55.698 57.6561Z" fill="#5C2D91"/>
</svg>
