<svg width="49" height="63" viewBox="0 0 49 63" fill="none" xmlns="http://www.w3.org/2000/svg">
<path d="M19.5339 32.1895C12.4322 32.1895 6.66113 37.9604 6.66113 45.0622C6.66113 52.1641 12.4321 57.935 19.5339 57.935C26.6358 57.935 32.4067 52.1641 32.4067 45.0622C32.4067 37.9604 26.6358 32.1895 19.5339 32.1895ZM19.5339 56.082C13.4645 56.082 8.52694 51.1443 8.52694 45.075C8.52694 39.0056 13.4646 34.068 19.5339 34.068C25.6033 34.068 30.5409 39.0056 30.5409 45.075C30.5409 51.1443 25.6033 56.082 19.5339 56.082Z" fill="#5C2D91"/>
<path d="M26.1009 41.9771H22.6308V38.507C22.6308 37.9971 22.2079 37.5742 21.698 37.5742H17.3822C16.8723 37.5742 16.4494 37.9971 16.4494 38.507V41.9771H12.9793C12.4694 41.9771 12.0465 42.4 12.0465 42.9099V47.2257C12.0465 47.7356 12.4694 48.1585 12.9793 48.1585H16.4494V51.6286C16.4494 52.1385 16.8723 52.5614 17.3822 52.5614H21.698C22.2079 52.5614 22.6308 52.1385 22.6308 51.6286V48.1585H26.1009C26.6108 48.1585 27.0337 47.7357 27.0337 47.2257V42.9099C27.0337 42.3875 26.6108 41.9771 26.1009 41.9771ZM25.168 46.2929H21.698C21.1881 46.2929 20.7652 46.7157 20.7652 47.2257V50.6958H18.3025V47.2257C18.3025 46.7158 17.8797 46.2929 17.3697 46.2929H13.8997V43.8427H17.3697C17.8796 43.8427 18.3025 43.4199 18.3025 42.9099V39.4399H20.7527V42.9099C20.7527 43.4198 21.1755 43.8427 21.6855 43.8427H25.1555V46.2929H25.168Z" fill="#5C2D91"/>
<path d="M19.2353 21.5304C20.0935 21.5304 20.902 21.1946 21.5114 20.5852C22.1208 19.9758 22.4566 19.1674 22.4566 18.3091V17.6002C22.4566 15.8216 21.0139 14.3789 19.2353 14.3789C17.4568 14.3789 16.014 15.8216 16.014 17.6002V18.3091C16.014 19.1673 16.3499 19.9758 16.9593 20.5852C17.5687 21.1946 18.3771 21.5304 19.2353 21.5304ZM17.8921 17.6002C17.8921 16.854 18.5015 16.2446 19.2478 16.2446C19.994 16.2446 20.6034 16.854 20.6034 17.6002V18.3091C20.6034 18.6698 20.4666 19.0056 20.2054 19.2668C19.6955 19.7767 18.8124 19.7767 18.2901 19.2668C18.0289 19.0056 17.8921 18.6698 17.8921 18.3091V17.6002Z" fill="#5C2D91"/>
<path d="M47.6301 14.9384H46.0007V10.3117C46.0007 9.80175 45.5779 9.37886 45.0679 9.37886H38.5881V8.53311C38.5881 8.02319 38.1652 7.60029 37.6552 7.60029H30.4665V6.54313C30.4665 6.0332 30.0436 5.61031 29.5336 5.61031H18.178V3.2845C18.178 2.52582 18.7874 1.91635 19.5462 1.91635C20.3049 1.91635 20.9143 2.52578 20.9143 3.2845V4.05562C20.9143 4.56555 21.3372 4.98844 21.8471 4.98844C22.3571 4.98844 22.78 4.56557 22.78 4.05562V3.2845C22.78 1.50593 21.3248 0.0507812 19.5463 0.0507812C17.7677 0.0507812 16.3125 1.50593 16.3125 3.2845V5.61031H9.5466C9.03667 5.61031 8.61378 6.03318 8.61378 6.54313V7.60029H1.42501C0.915082 7.60029 0.492188 8.02316 0.492188 8.53311V61.118C0.492188 61.6279 0.915058 62.0508 1.42501 62.0508H40.7645C41.2745 62.0508 41.6974 61.6279 41.6974 61.118V60.9811H45.0803C45.5903 60.9811 46.0132 60.5583 46.0132 60.0483V55.5335H47.6425C48.1524 55.5335 48.5753 55.1107 48.5753 54.6007V15.8709C48.5629 15.361 48.14 14.9384 47.6301 14.9384ZM44.1352 11.2445V14.9384H38.5881V11.2445H44.1352ZM20.803 7.46354C20.604 7.97347 20.119 8.3342 19.5344 8.3342C18.9623 8.3342 18.4647 7.97352 18.2657 7.46354H20.803ZM10.4679 7.46354H16.3507C16.5871 9.00577 17.9179 10.1998 19.5347 10.1998C21.1515 10.1998 22.4699 9.00577 22.7187 7.46354H28.6015V27.911H26.2136C26.1763 25.2867 24.7087 22.936 22.3455 21.7794C21.8853 21.5555 21.3257 21.7421 21.1018 22.2022C20.8779 22.6624 21.0645 23.2221 21.5247 23.446C23.241 24.2917 24.323 25.9956 24.3604 27.911H14.1494C14.1867 25.9957 15.2687 24.2917 16.9851 23.446C17.4453 23.2221 17.6319 22.6624 17.408 22.2022C17.1841 21.7421 16.6244 21.5555 16.1642 21.7794C13.8011 22.936 12.3335 25.2867 12.2962 27.911H10.4679V7.46354ZM39.8201 60.1734H2.34637V9.46625H8.60239V28.8558C8.60239 29.3658 9.02526 29.7887 9.53522 29.7887H29.5218C30.0317 29.7887 30.4546 29.3658 30.4546 28.8558V9.46625H36.7106V39.8262C36.7106 40.0749 36.8101 40.3113 36.9843 40.4854L39.8076 43.3087V60.1742L39.8201 60.1734ZM44.1359 59.1037H41.6857V55.5217H44.1359V59.1037ZM46.698 53.6561H41.6857V42.9349C41.6857 42.6861 41.5862 42.4498 41.4121 42.2757L38.5888 39.4524V37.9101H43.7379C44.2479 37.9101 44.6707 37.4873 44.6707 36.9773C44.6707 36.4674 44.2479 36.0445 43.7379 36.0445H38.5888V32.7734H43.6259C44.1359 32.7734 44.5588 32.3506 44.5588 31.8406C44.5588 31.3307 44.1359 30.9078 43.6259 30.9078H38.5888V27.7487H43.6259C44.1359 27.7487 44.5588 27.3258 44.5588 26.8158C44.5588 26.3059 44.1359 25.883 43.6259 25.883H38.5888V22.7115H43.6259C44.1359 22.7115 44.5588 22.2886 44.5588 21.7786C44.5588 21.2687 44.1359 20.8458 43.6259 20.8458H38.5888V16.8037H46.6984L46.698 53.6561Z" fill="#5C2D91"/>
</svg>
