<svg width="78" height="75" viewBox="0 0 78 75" fill="none" xmlns="http://www.w3.org/2000/svg">
<circle cx="24.434" cy="24.3378" r="23.957" fill="#EAD9FD"/>
<path d="M63.45 28.9474C63.4364 27.6178 62.8588 26.3591 61.8617 25.479C60.8645 24.6017 59.5404 24.1902 58.2189 24.3456C54.519 25.1275 50.7593 25.6016 46.9832 25.7623V22.9315C46.9832 21.3267 45.6808 20.0271 44.076 20.0271C42.4713 20.0271 41.1689 21.3267 41.1689 22.9315V25.7623C37.3927 25.5988 33.6326 25.1248 29.9332 24.3456C27.9006 24.0813 25.9363 25.182 25.1025 27.0538C24.2688 28.9255 24.762 31.1215 26.3204 32.4538C25.5521 33.7779 25.4894 35.3964 26.1542 36.7749C26.8217 38.1536 28.1268 39.1126 29.6416 39.3333C29.3855 40.5239 29.6498 41.7663 30.3746 42.7444C31.0966 43.7252 32.2082 44.3437 33.4206 44.4472C35.0199 44.6788 36.6573 44.8641 38.2648 44.9813C38.7988 45.003 39.2511 44.5862 39.2702 44.0495C39.292 43.5155 38.8751 43.0659 38.3411 43.0441C36.7827 42.9188 35.2133 42.7444 33.6031 42.521C33.001 42.4638 32.4452 42.1695 32.0584 41.7036C31.6715 41.235 31.4835 40.6329 31.5407 40.0308C31.6578 38.772 32.7722 37.8484 34.0309 37.9683C36.3604 38.644 38.7525 39.0827 41.169 39.2761V47.0844C40.5396 47.0844 39.9184 47.0844 39.2999 46.9973V46.9945C39.0438 46.9755 38.7904 47.0626 38.5943 47.2316C38.4008 47.4005 38.2809 47.6402 38.2646 47.8963C38.2646 49.3785 40.2017 48.8663 41.1717 49.0298L41.169 51.9941C41.169 53.5988 42.4713 54.9012 44.0761 54.9012C45.6809 54.9012 46.9832 53.5988 46.9832 51.9941V49.0298C47.9531 48.8745 49.8903 49.3785 49.8903 47.8963C49.686 46.4823 47.9532 47.1607 46.9832 47.0817V39.2762C49.3998 39.0854 51.792 38.6495 54.1212 37.9765C54.7424 37.8975 55.3664 38.0773 55.8541 38.4724C56.339 38.8647 56.6415 39.4423 56.6905 40.0663C56.7395 40.6875 56.5297 41.3059 56.1129 41.7718C55.696 42.2377 55.1048 42.5102 54.4809 42.5292C52.9306 42.7527 51.3613 42.927 49.8111 43.0524C49.277 43.0959 48.8766 43.5646 48.9202 44.0986C48.961 44.6353 49.4296 45.0331 49.9664 44.9895C51.5466 44.8641 53.1622 44.6898 54.6853 44.4664H54.6825C55.9059 44.371 57.0257 43.7526 57.7586 42.7717C58.4915 41.7909 58.7639 40.5403 58.5105 39.3415C60.0227 39.1208 61.3305 38.1617 61.998 36.7858C62.6628 35.4099 62.6055 33.7915 61.8427 32.4647C62.8671 31.5847 63.4528 30.2987 63.45 28.9474ZM58.6058 26.2555C59.7719 26.1737 60.8563 26.8494 61.2977 27.9311C61.739 29.0127 61.4339 30.2551 60.543 31.0125C59.5921 30.3205 58.4069 30.0235 57.2408 30.187C53.8679 30.9417 50.4349 31.4021 46.9829 31.5629V27.6886C50.89 27.5333 54.778 27.0538 58.6058 26.2555ZM43.1056 27.7758H45.0428V31.6501H43.1056V27.7758ZM43.1056 33.5872H45.0428V37.4615L45.0455 37.4643C44.3998 37.5106 43.7513 37.5106 43.1056 37.4643L43.1056 33.5872ZM44.0756 21.9643C44.3317 21.9643 44.5796 22.0651 44.7594 22.2476C44.942 22.4302 45.0455 22.6754 45.0455 22.9315V25.8386H43.1084L43.1057 22.9315C43.1057 22.3975 43.5416 21.9643 44.0756 21.9643ZM27.5292 26.942C28.0795 26.4516 28.807 26.2037 29.5453 26.2554C33.3733 27.0537 37.2609 27.5387 41.1682 27.6994V31.5737C37.6944 31.4075 34.2396 30.9444 30.8419 30.1869C29.7004 30.0425 28.5451 30.3395 27.6161 31.0206C27.0112 30.522 26.6543 29.7864 26.638 29.0018C26.6216 28.2198 26.9461 27.4679 27.5292 26.942ZM34.4958 36.0965C33.0518 35.824 31.5724 36.3444 30.6188 37.4642C29.8614 37.5568 29.0985 37.3225 28.5209 36.8212C27.9433 36.3199 27.6055 35.5979 27.5892 34.835C27.5755 34.0693 27.8834 33.3338 28.442 32.8107C28.9978 32.2875 29.7525 32.0233 30.5127 32.0859C34.0191 32.8651 37.583 33.3419 41.1681 33.5109V37.328C38.9094 37.1373 36.6728 36.7231 34.4958 36.0965ZM45.0453 51.9942C45.0453 52.5282 44.6094 52.9641 44.0754 52.9641C43.5414 52.9641 43.1055 52.5282 43.1055 51.9942V49.0871H45.0426L45.0453 51.9942ZM45.0453 47.15H43.1082L43.1055 39.4016C43.7512 39.4452 44.3997 39.4452 45.0453 39.4016L45.0453 47.15ZM59.7497 36.6794C59.1612 37.2543 58.3493 37.5431 57.5319 37.464C56.581 36.3442 55.0989 35.8211 53.6549 36.0963C51.4779 36.723 49.2411 37.1371 46.9825 37.3278V33.4998C50.5679 33.3418 54.1317 32.8705 57.6379 32.0967C58.7523 32.0231 59.7985 32.6471 60.2671 33.6633C60.7357 34.6768 60.5289 35.8757 59.7497 36.6794ZM54.7311 53.1574L45.4511 56.0155C44.928 56.1599 44.4511 56.446 44.0751 56.8383C43.7073 56.446 43.2442 56.1599 42.7292 56.0046L33.4192 53.1575C29.2452 51.8497 25.9973 57.0318 28.3733 60.5299L28.3706 60.5272C29.188 61.8458 30.6293 62.6496 32.1795 62.6496H41.8682H41.8655C42.7019 62.636 43.4975 62.2872 44.0751 61.6824C44.6609 62.2954 45.4728 62.6469 46.3229 62.6496H56.0116C62.8394 62.2709 61.5124 51.5197 54.7311 53.1574ZM41.8276 60.7126H32.1389C30.1146 60.7126 28.9022 58.2142 29.7958 56.4786C30.2944 55.2935 31.5967 54.6613 32.8391 55.0073L42.1296 57.9145C43.5627 58.2714 43.3098 60.7126 41.8276 60.7126ZM58.1229 59.4811C57.6679 60.2385 56.8533 60.7071 55.9706 60.7126H46.2818C44.7997 60.7126 44.549 58.2714 45.944 57.8654L55.2345 54.9583C55.4606 54.8902 55.6949 54.8548 55.9319 54.8521C58.1225 54.9011 59.3435 57.8055 58.1229 59.4811ZM56.668 18.0896H16.9499V64.5867H71.2008V18.0896H59.5752C59.0412 18.0896 58.6052 17.6537 58.6052 17.1197C58.6052 16.5857 59.0412 16.1498 59.5752 16.1498H71.2008C71.713 16.1498 72.2062 16.3541 72.5685 16.7192C72.9336 17.0816 73.1379 17.5748 73.1379 18.0896V64.5867C73.1379 65.1016 72.9336 65.5947 72.5685 65.9571C72.2061 66.3194 71.713 66.5238 71.2008 66.5238H16.9499C15.8819 66.5238 15.0128 65.6574 15.0128 64.5867V18.0896C15.0128 17.0189 15.8819 16.1498 16.9499 16.1498H56.668C57.2048 16.1498 57.638 16.5857 57.638 17.1197C57.638 17.6537 57.2048 18.0896 56.668 18.0896ZM77.0122 15.1825V71.3683C77.0122 72.973 75.7099 74.2754 74.1051 74.2754H38.0976C37.3265 74.2754 36.5881 73.9675 36.0433 73.4226L33.3024 70.6817C33.1198 70.4991 32.8719 70.3983 32.6158 70.4011H14.0453C12.4405 70.4011 11.1382 69.0987 11.1382 67.4939V51.0243C11.1382 50.4903 11.5714 50.0571 12.1081 50.0571C12.6421 50.0571 13.0753 50.4903 13.0753 51.0243V67.4939C13.0753 67.75 13.1788 67.998 13.3587 68.1778C13.5412 68.3603 13.7864 68.4612 14.0452 68.4612H32.6157C33.3868 68.4639 34.1251 68.769 34.67 69.314L37.4109 72.0549V72.0576C37.5935 72.2374 37.8414 72.3382 38.0975 72.3382H74.1051C74.3639 72.3382 74.6091 72.2347 74.7917 72.0549C74.9715 71.8723 75.075 71.6244 75.075 71.3683V15.1825C75.075 14.9264 74.9715 14.6785 74.7917 14.4959C74.6091 14.3161 74.3639 14.2126 74.1051 14.2126H14.0455C13.5088 14.2126 13.0756 14.6485 13.0756 15.1825V48.1197C13.0756 48.6538 12.6424 49.0869 12.1084 49.0869C11.5716 49.0869 11.1385 48.6537 11.1385 48.1197V15.1825C11.1385 13.5777 12.4408 12.2754 14.0456 12.2754H74.1051C75.7099 12.2754 77.0122 13.5778 77.0122 15.1825ZM39.155 69.0631C39.1822 69.1176 39.2013 69.1775 39.2122 69.2375C39.2503 69.4255 39.2285 69.6216 39.155 69.7987C39.1059 69.9159 39.0378 70.0249 38.9506 70.1175C38.7681 70.3028 38.5201 70.4063 38.264 70.4063C38.0052 70.4063 37.7573 70.3028 37.5747 70.1175C37.4903 70.0249 37.4221 69.9159 37.3731 69.7987C37.2914 69.6244 37.2641 69.4282 37.2941 69.2375C37.305 69.1775 37.3241 69.1176 37.3513 69.0631C37.3731 69.0004 37.4031 68.9432 37.4385 68.8887L37.5556 68.7443L37.7 68.6272L37.8744 68.54C37.9344 68.5018 37.9997 68.4773 38.0706 68.461C38.2586 68.4256 38.4547 68.4446 38.6318 68.5209C38.749 68.57 38.858 68.6381 38.9506 68.7225L39.0678 68.8669V68.8697C39.1059 68.9296 39.1359 68.995 39.155 69.0631ZM43.0293 69.0631C43.0565 69.1176 43.0756 69.1775 43.0865 69.2375C43.1437 69.42 43.1437 69.6162 43.0865 69.7987C43.032 69.9159 42.9584 70.0221 42.874 70.1175C42.6914 70.3028 42.4435 70.4063 42.1874 70.4063C41.9285 70.4063 41.6806 70.3028 41.4981 70.1175C41.2501 69.8968 41.1275 69.5671 41.1684 69.2375C41.1793 69.1775 41.1984 69.1176 41.2283 69.0631C41.2474 69.0005 41.2774 68.9432 41.3155 68.8887C41.3509 68.837 41.3891 68.7879 41.4299 68.7443C41.6125 68.5591 41.8604 68.4555 42.1193 68.4555C42.3781 68.4555 42.6233 68.5591 42.8058 68.7443C42.8494 68.7879 42.8876 68.837 42.923 68.8887C42.9666 68.9405 43.002 69.0004 43.0293 69.0631ZM46.9036 69.0631C46.9308 69.1176 46.9526 69.1775 46.9635 69.2375C47.0207 69.5562 46.9226 69.8832 46.702 70.1175C46.5194 70.3027 46.2715 70.4063 46.0126 70.4063C45.7538 70.4063 45.5059 70.3027 45.3261 70.1175C45.0945 69.8859 44.9909 69.559 45.0454 69.2375C45.0536 69.1775 45.0754 69.1176 45.1026 69.0631C45.1244 69.0004 45.1517 68.9432 45.1898 68.8887L45.307 68.7443C45.5849 68.4691 46.0017 68.3874 46.3614 68.54C46.4813 68.5863 46.5902 68.6544 46.6801 68.7443L46.7973 68.8887C46.8409 68.9405 46.8763 69.0004 46.9036 69.0631ZM73.0592 69.0631C73.0864 69.1176 73.1082 69.1775 73.1191 69.2375C73.1545 69.4255 73.1355 69.6216 73.0592 69.7987C73.0101 69.9159 72.942 70.0249 72.8576 70.1175C72.675 70.3028 72.4271 70.4063 72.1683 70.4063C71.9094 70.4063 71.6615 70.3028 71.4817 70.1175C71.2501 69.8859 71.1466 69.559 71.201 69.2375C71.2092 69.1775 71.231 69.1176 71.2583 69.0631C71.2801 69.0005 71.3073 68.9432 71.3454 68.8887L71.4626 68.7443C71.5089 68.698 71.5607 68.6599 71.6152 68.6272C71.6669 68.589 71.7214 68.5591 71.7814 68.54C71.8413 68.5019 71.9067 68.4773 71.9748 68.461C72.1628 68.4256 72.359 68.4446 72.5361 68.5209C72.6532 68.57 72.7622 68.6381 72.8576 68.7225L72.9747 68.8669L72.972 68.8697C73.0101 68.9296 73.0401 68.995 73.0592 69.0631ZM68.294 68.461C68.828 68.461 69.2612 68.8969 69.2612 69.4309C69.2612 69.9649 68.828 70.4008 68.294 70.4008H56.6683C56.1343 70.4008 55.7011 69.9649 55.7011 69.4309C55.7011 68.8969 56.1343 68.461 56.6683 68.461H68.294Z" fill="#5C2D91"/>
</svg>
