<svg width="55" height="69" viewBox="0 0 55 69" fill="none" xmlns="http://www.w3.org/2000/svg">
<circle cx="24.0131" cy="24.4443" r="23.957" fill="#EAD9FD"/>
<path d="M38.8783 53.1998C38.7108 53.311 38.58 53.4693 38.5025 53.6548C38.425 53.8403 38.4043 54.0446 38.4429 54.2419C38.4815 54.4392 38.5778 54.6206 38.7195 54.7632C38.8612 54.9058 39.042 55.0031 39.2391 55.0429C39.4361 55.0827 39.6406 55.0632 39.8265 54.9868C40.0125 54.9105 40.1716 54.7806 40.2838 54.6138C40.396 54.447 40.4562 54.2506 40.4567 54.0496C40.4573 53.8486 40.3983 53.6519 40.287 53.4844C40.1379 53.2599 39.9058 53.1038 39.6416 53.0504C39.3774 52.997 39.1029 53.0508 38.8783 53.1998Z" fill="#5C2D91"/>
<path d="M11.8788 40.0695C12.3835 40.9319 13.2089 41.5597 14.1748 41.8156C13.0304 43.8027 12.9399 46.9657 14.2013 48.6702C15.364 50.3238 17.5462 51.7997 19.8575 53.3618C21.8901 54.6164 23.7739 56.0973 25.4731 57.776C26.4692 59.0694 27.2148 60.5376 27.6715 62.1049C27.948 62.8611 28.2336 63.6437 28.567 64.3562C28.7293 64.7267 28.965 65.0605 29.2597 65.3375C29.5545 65.6145 29.9022 65.8291 30.282 65.9682C30.6619 66.1073 31.0659 66.1681 31.4699 66.147C31.8738 66.1258 32.2693 66.0232 32.6325 65.8452L33.344 66.9114C33.6214 67.331 33.9985 67.6752 34.4416 67.9133C34.8847 68.1513 35.38 68.2757 35.883 68.2754H51.7387C52.2872 68.2687 52.8239 68.1151 53.293 67.8306C53.762 67.546 54.1462 67.141 54.4056 66.6577C54.6651 66.1743 54.7902 65.6303 54.7681 65.0822C54.7459 64.534 54.5773 64.0019 54.2797 63.541L48.718 55.1568C49.2989 54.6002 49.644 53.8417 49.6818 53.0381C49.7196 52.2344 49.4474 51.4469 48.9213 50.8381C48.5616 50.4151 48.1544 50.0348 47.7077 49.7049C46.985 49.1255 46.55 48.7454 46.5897 48.3459C46.6639 47.6253 46.8072 46.7472 46.9739 45.7298C47.6721 41.4507 48.6285 35.5902 46.115 31.6852C45.27 30.4093 44.958 28.8533 45.246 27.3503L46.3264 22.0112C46.426 21.5041 46.422 20.982 46.3146 20.4765C46.2072 19.971 45.9987 19.4924 45.7017 19.0695C45.4046 18.6466 45.025 18.2882 44.5859 18.0157C44.1467 17.7433 43.657 17.5625 43.1461 17.4842C42.149 17.3039 41.1203 17.4921 40.2516 18.0138C39.3829 18.5355 38.7334 19.355 38.4239 20.3199V13.3901H38.9321C39.8756 13.3901 40.7805 13.0154 41.4476 12.3482C42.1147 11.6811 42.4895 10.7762 42.4895 9.83277C42.4895 8.88929 42.1147 7.98446 41.4476 7.31732C40.7805 6.65018 39.8756 6.27539 38.9321 6.27539H25.719C24.7756 6.27539 23.8707 6.65018 23.2036 7.31732C22.5364 7.98446 22.1617 8.88929 22.1617 9.83277C22.1617 10.7762 22.5364 11.6811 23.2036 12.3482C23.8707 13.0154 24.7756 13.3901 25.719 13.3901H26.2272V14.1341C25.7417 14.0325 25.2407 14.0288 24.7538 14.1234C24.2668 14.218 23.8036 14.409 23.3915 14.685L14.6302 20.4968C13.7875 21.0304 13.1817 21.867 12.9377 22.8341C12.6938 23.8013 12.8303 24.8251 13.319 25.6946C13.6667 26.2909 14.1707 26.7808 14.7765 27.1115L13.4857 27.9673C12.6433 28.5014 12.0379 29.3383 11.7943 30.3056C11.5508 31.2729 11.6876 32.2967 12.1766 33.1661C12.5245 33.7605 13.0276 34.2489 13.6321 34.5789L13.1879 34.8737C12.3463 35.4077 11.7415 36.2441 11.4979 37.2107C11.2544 38.1772 11.3907 39.2004 11.8788 40.0695ZM52.5833 64.6662C52.6843 64.8191 52.7421 64.9965 52.7505 65.1796C52.7589 65.3627 52.7176 65.5447 52.6311 65.7062C52.5445 65.8678 52.4159 66.0029 52.2588 66.0974C52.1017 66.1918 51.922 66.242 51.7387 66.2426H35.883C35.7153 66.2426 35.5503 66.2011 35.4026 66.1218C35.2548 66.0425 35.129 65.928 35.0363 65.7883L34.3452 64.7475L47.0501 56.3185L52.5833 64.6662ZM40.412 20.8037C40.6053 20.3377 40.9537 19.9529 41.3983 19.7145C41.8429 19.4761 42.3563 19.3987 42.8514 19.4956C43.09 19.5316 43.3189 19.6155 43.5243 19.7424C43.7296 19.8693 43.9071 20.0365 44.0459 20.2339C44.1848 20.4313 44.2822 20.6548 44.3323 20.891C44.3824 21.1271 44.3841 21.3709 44.3373 21.6077L43.2569 26.9468C42.8621 28.9687 43.2759 31.0648 44.4095 32.785C46.4992 36.0374 45.616 41.4477 44.9705 45.4025C44.7988 46.4514 44.6514 47.357 44.5711 48.1376C44.4136 49.6683 45.5875 50.6064 46.4392 51.2884C46.7616 51.5251 47.0586 51.7945 47.3255 52.0924C47.4372 52.2018 47.5244 52.3336 47.5814 52.4791C47.6385 52.6246 47.6641 52.7806 47.6565 52.9367C47.6489 53.0929 47.6083 53.2456 47.5374 53.3849C47.4666 53.5243 47.367 53.647 47.2452 53.745L31.8977 63.9262C31.7774 64.0171 31.6376 64.0786 31.4894 64.1058C31.3411 64.133 31.1885 64.1252 31.0439 64.0829C30.8992 64.0406 30.7664 63.9651 30.6561 63.8624C30.5458 63.7596 30.4611 63.6325 30.4087 63.4912C30.1566 62.9525 29.932 62.3518 29.6972 61.7237L36.6087 57.1377C36.8334 56.9887 36.9896 56.7565 37.0431 56.4922C37.0965 56.2279 37.0428 55.9532 36.8938 55.7285C36.7447 55.5038 36.5125 55.3476 36.2482 55.2941C35.9839 55.2406 35.7092 55.2944 35.4845 55.4434L28.9532 59.7763C28.4933 58.5487 27.8241 57.4101 26.9753 56.411C25.1707 54.6057 23.1624 53.0162 20.9908 51.6746C18.838 50.2202 16.8053 48.846 15.858 47.4983C14.6769 45.8527 15.49 42.3452 17.2637 41.3074L25.3125 35.9734C25.5069 35.8387 25.7262 35.7442 25.9576 35.6953C26.189 35.6464 26.4278 35.6441 26.6601 35.6887C26.8924 35.7332 27.1135 35.8236 27.3104 35.9546C27.5073 36.0855 27.6761 36.2545 27.807 36.4515C27.9378 36.6485 28.0281 36.8696 28.0724 37.1019C28.1168 37.3343 28.1144 37.5731 28.0653 37.8044C28.0163 38.0358 27.9216 38.2551 27.7868 38.4494C27.652 38.6437 27.4797 38.8092 27.2802 38.9362L20.4439 43.4754C20.3327 43.5492 20.2371 43.6442 20.1625 43.755C20.088 43.8657 20.036 43.9901 20.0095 44.121C19.9831 44.2518 19.9826 44.3866 20.0082 44.5176C20.0339 44.6487 20.085 44.7734 20.1588 44.8846C20.2327 44.9959 20.3277 45.0915 20.4384 45.166C20.5492 45.2406 20.6736 45.2926 20.8044 45.319C20.9353 45.3455 21.0701 45.3459 21.2011 45.3203C21.3321 45.2947 21.4568 45.2435 21.5681 45.1697L26.2272 42.0768V45.9147C26.2272 47.5321 26.8697 49.0833 28.0134 50.2269C29.1571 51.3706 30.7082 52.0131 32.3256 52.0131C33.943 52.0131 35.4941 51.3706 36.6378 50.2269C37.7814 49.0833 38.4239 47.5321 38.4239 45.9147V37.6057C38.7908 38.2412 39.2017 38.8501 39.6538 39.4281C39.7363 39.5332 39.8386 39.6209 39.955 39.6864C40.0715 39.7519 40.1996 39.7938 40.3322 39.8097C40.4648 39.8257 40.5993 39.8154 40.7279 39.7794C40.8565 39.7434 40.9768 39.6824 41.0818 39.5999C41.1869 39.5174 41.2746 39.415 41.3401 39.2986C41.4056 39.1822 41.4475 39.054 41.4635 38.9214C41.4794 38.7888 41.4691 38.6544 41.4331 38.5258C41.3971 38.3972 41.3361 38.2769 41.2536 38.1718C39.5146 35.9806 38.5236 33.2897 38.426 30.494C38.3911 27.1594 39.0682 23.8558 40.412 20.8037ZM29.7734 28.4419C29.4196 27.9171 28.9398 27.4894 28.3779 27.1978C28.8203 26.8554 29.1815 26.4194 29.4357 25.9211C29.6899 25.4228 29.831 24.8745 29.8486 24.3154C30.529 24.5151 31.1758 24.8152 31.7676 25.2057C33.1932 26.2078 34.9131 26.7041 36.6534 26.6155C36.4605 27.8986 36.3745 29.1956 36.3962 30.493C36.384 34.3482 36.3912 45.9147 36.3912 45.9147C36.3912 46.993 35.9628 48.0271 35.2004 48.7895C34.4379 49.552 33.4038 49.9803 32.3256 49.9803C31.2473 49.9803 30.2132 49.552 29.4508 48.7895C28.6884 48.0271 28.26 46.993 28.26 45.9147V40.7311C28.7009 40.464 29.0835 40.1108 29.3849 39.6925C29.6863 39.2743 29.9003 38.7996 30.0141 38.2968C30.1279 37.794 30.1393 37.2734 30.0475 36.7661C29.9557 36.2588 29.7625 35.7752 29.4797 35.3442C29.1301 34.8306 28.6587 34.4115 28.1076 34.1246L28.7042 33.7292C29.5469 33.1696 30.1328 32.2984 30.3334 31.3069C30.5339 30.3154 30.3325 29.2849 29.7734 28.4419ZM28.26 15.2593V13.3901H36.3912V24.5898C35.1383 24.5942 33.9139 24.2162 32.8816 23.5063C31.7889 22.7733 30.5427 22.3008 29.2388 22.125C28.884 21.5824 28.3935 21.1419 27.8159 20.8474C28.2291 20.5215 28.5705 20.1137 28.8188 19.6495C29.067 19.1854 29.2167 18.675 29.2584 18.1504C29.3001 17.6257 29.2329 17.0981 29.0611 16.6006C28.8893 16.1031 28.6166 15.6464 28.26 15.2593ZM25.719 11.3574C25.3147 11.3574 24.9269 11.1967 24.641 10.9108C24.3551 10.6249 24.1944 10.2371 24.1944 9.83277C24.1944 9.42842 24.3551 9.04064 24.641 8.75472C24.9269 8.4688 25.3147 8.30818 25.719 8.30818H38.9321C39.3365 8.30818 39.7243 8.4688 40.0102 8.75472C40.2961 9.04064 40.4567 9.42842 40.4567 9.83277C40.4567 10.2371 40.2961 10.6249 40.0102 10.9108C39.7243 11.1967 39.3365 11.3574 38.9321 11.3574H25.719ZM15.7584 22.1911L24.5258 16.3753C24.9269 16.1228 25.4112 16.0381 25.8742 16.1394C26.3372 16.2408 26.7418 16.5201 27.0007 16.917C27.2377 17.3384 27.3029 17.8351 27.1826 18.3034C27.0624 18.7717 26.766 19.1755 26.3553 19.4306L17.5879 25.2433C17.3861 25.3757 17.1596 25.4658 16.922 25.5082C16.6844 25.5506 16.4407 25.5443 16.2056 25.4899C15.9705 25.4355 15.7488 25.334 15.5541 25.1915C15.3593 25.049 15.1954 24.8685 15.0723 24.6609C14.855 24.2384 14.805 23.7496 14.9321 23.2918C15.0593 22.834 15.3543 22.441 15.7584 22.1911ZM14.6139 29.6585L25.0685 22.7227C25.2631 22.5873 25.4828 22.4923 25.7147 22.443C25.9466 22.3938 26.1859 22.3914 26.4187 22.436C26.6515 22.4806 26.8731 22.5713 27.0703 22.7027C27.2676 22.8342 27.4366 23.0037 27.5674 23.2014C27.6982 23.399 27.7882 23.6209 27.832 23.8538C27.8759 24.0867 27.8728 24.3261 27.8228 24.5578C27.7729 24.7895 27.6771 25.0089 27.5412 25.2031C27.4052 25.3972 27.2318 25.5623 27.0312 25.6885L16.4444 32.7118C16.2426 32.8444 16.016 32.9347 15.7782 32.9772C15.5405 33.0198 15.2966 33.0137 15.0613 32.9594C14.826 32.9051 14.6042 32.8036 14.4092 32.6611C14.2142 32.5186 14.0501 32.3381 13.9268 32.1304C13.7088 31.7081 13.6579 31.2192 13.7843 30.7611C13.9107 30.3029 14.2051 29.9093 14.6088 29.6585H14.6139ZM14.311 36.5639L25.6174 29.067C25.8119 28.9337 26.031 28.8404 26.2619 28.7926C26.4928 28.7447 26.7309 28.7433 26.9624 28.7883C27.1939 28.8333 27.4141 28.9239 27.6102 29.0548C27.8064 29.1857 27.9745 29.3543 28.1049 29.5508C28.2353 29.7473 28.3253 29.9677 28.3697 30.1993C28.4141 30.4309 28.412 30.669 28.3636 30.8998C28.3151 31.1306 28.2212 31.3494 28.0874 31.5436C27.9536 31.7377 27.7825 31.9034 27.5841 32.0308L16.1466 39.6131C15.9449 39.7459 15.7183 39.8364 15.4806 39.8791C15.2429 39.9218 14.999 39.9158 14.7637 39.8616C14.5283 39.8073 14.3064 39.7059 14.1114 39.5634C13.9164 39.421 13.7523 39.2404 13.629 39.0327C13.4119 38.6108 13.3615 38.1226 13.4879 37.6651C13.6142 37.2077 13.9081 36.8146 14.311 36.5639Z" fill="#5C2D91"/>
</svg>
