<svg width="76" height="74" viewBox="0 0 76 74" fill="none" xmlns="http://www.w3.org/2000/svg">
<circle cx="24.5766" cy="24.832" r="23.957" fill="#EAD9FD"/>
<path d="M69.0196 18.079H63.5435V16.5071V16.5105C63.5094 13.8884 61.3749 11.7811 58.7528 11.7811C56.134 11.7811 53.9995 13.8884 53.962 16.5105V18.0824L45.6319 18.079V16.5071V16.5105C45.6319 13.8645 43.4871 11.7197 40.8411 11.7197C38.1951 11.7197 36.0503 13.8645 36.0503 16.5105V18.0824L27.7202 18.079V16.5071V16.5105C27.6827 13.8884 25.5481 11.7811 22.9294 11.7811C20.3073 11.7811 18.1728 13.8884 18.1387 16.5105V18.0824L12.6626 18.079C8.94252 18.0858 5.9283 21.0966 5.9248 24.8168V66.9991C5.93503 70.7123 8.94584 73.7197 12.6626 73.7197H69.0191C72.7357 73.7197 75.7466 70.7123 75.7569 66.9991V24.8168C75.7534 21.0967 72.7397 18.0859 69.0196 18.079ZM56.6252 19.4293V19.4088V19.3884V16.5071V16.5105C56.6491 15.3546 57.597 14.4272 58.7563 14.4272C59.9122 14.4272 60.8602 15.3546 60.884 16.5105V22.5151C60.8602 23.671 59.9122 24.5985 58.7563 24.5985C57.597 24.5985 56.6491 23.671 56.6252 22.5151V19.4293ZM38.7132 16.5105C38.7132 15.3375 39.668 14.3828 40.8409 14.3828C42.0173 14.3828 42.9686 15.3376 42.9686 16.5105V22.5151C42.9686 23.6881 42.0173 24.6428 40.8409 24.6428C39.6679 24.6428 38.7132 23.688 38.7132 22.5151V16.5105ZM20.8012 16.5105C20.8251 15.3546 21.7696 14.4271 22.9289 14.4271C24.0882 14.4271 25.0328 15.3546 25.0566 16.5105V19.3918V19.4122V19.4327V22.5151C25.0327 23.671 24.0882 24.5985 22.9289 24.5985C21.7696 24.5985 20.825 23.671 20.8012 22.5151V16.5105ZM73.0934 66.9993C73.0866 69.2429 71.2658 71.0603 69.0187 71.0603H12.6622C10.4152 71.0603 8.59432 69.2429 8.58751 66.9993V32.7413H73.0934V66.9993ZM73.0934 30.0746H8.58751V24.8099V24.8133C8.59092 22.5629 10.4117 20.742 12.6622 20.7386H18.1383V22.5151C18.1724 25.1338 20.307 27.2411 22.9291 27.2411C25.5478 27.2411 27.6823 25.1338 27.7198 22.5151V20.7421H36.05V22.5151C36.05 25.1611 38.1947 27.3059 40.8407 27.3059C43.4868 27.3059 45.6315 25.1612 45.6315 22.5151V20.7421H53.9616V22.5151C53.9991 25.1338 56.1337 27.2411 58.7524 27.2411C61.3745 27.2411 63.509 25.1338 63.5432 22.5151V20.7421H69.0192C71.2697 20.7455 73.0906 22.5663 73.094 24.8168L73.0934 30.0746Z" fill="#5C2D91"/>
<path d="M36.3879 56.834V61.4134C36.3879 61.768 36.5277 62.1056 36.78 62.3545C37.029 62.6034 37.3665 62.7432 37.7211 62.7432H43.9542C44.3088 62.7466 44.6498 62.6068 44.9021 62.3579C45.151 62.1089 45.2942 61.768 45.2942 61.4134V56.834H49.8735C50.2248 56.834 50.5657 56.6942 50.8146 56.4419C51.0635 56.193 51.2033 55.8554 51.2033 55.5042V49.2575C51.2033 48.9063 51.0635 48.5654 50.8146 48.3165C50.5657 48.0675 50.2247 47.9278 49.8735 47.9278H45.2942V43.3484C45.2942 42.9972 45.1544 42.6562 44.9021 42.4073C44.6532 42.1584 44.3156 42.0186 43.961 42.0186H37.7245C37.3699 42.0152 37.0289 42.155 36.78 42.4073C36.5311 42.6562 36.3879 42.9938 36.3879 43.3484V47.9278H31.812C31.4608 47.9278 31.1198 48.0676 30.8709 48.3165C30.622 48.5654 30.4822 48.9064 30.4822 49.2575V55.5042C30.4822 56.2373 31.0789 56.834 31.812 56.834L36.3879 56.834ZM33.1384 50.5908H37.7177L37.7211 50.5873C38.0723 50.5873 38.4133 50.4475 38.6622 50.1986C38.9111 49.9497 39.0509 49.6121 39.0509 49.2576V44.6782H42.6244V49.2576C42.6244 49.6122 42.7642 49.9497 43.0131 50.1986C43.262 50.4475 43.603 50.5873 43.9542 50.5873H48.5335V54.1711H43.9576C43.6064 54.1711 43.2654 54.3109 43.0165 54.5598C42.7676 54.8121 42.6278 55.1497 42.6278 55.5043V60.0836H39.0543V55.5043C39.0543 55.1496 38.9145 54.8121 38.6656 54.5598C38.4167 54.3108 38.0757 54.1711 37.7245 54.1711H33.1452L33.1384 50.5908Z" fill="#5C2D91"/>
<path d="M40.8415 68.6453C45.1548 68.6453 49.2909 66.9336 52.3429 63.8819C55.3912 60.8335 57.1063 56.6974 57.1063 52.384C57.1063 48.0706 55.3946 43.9345 52.3429 40.8826C49.2945 37.8308 45.1584 36.1191 40.845 36.1191C36.5316 36.1157 32.3955 37.8308 29.3436 40.8792C26.2918 43.9309 24.5801 48.067 24.5767 52.3806C24.5835 56.6905 26.2953 60.8266 29.347 63.875C32.3953 66.9268 36.5281 68.6419 40.8415 68.6453ZM40.8415 38.7789C44.449 38.7789 47.91 40.2144 50.4609 42.7649C53.0118 45.3155 54.4469 48.7764 54.4469 52.3843C54.4435 55.9919 53.0114 59.4529 50.4609 62.0037C47.9103 64.5546 44.4495 65.9864 40.8415 65.9864C37.2335 65.9864 33.773 64.5509 31.2221 62.0003C28.6715 59.4498 27.2394 55.9889 27.2394 52.3809C27.2428 48.7734 28.6783 45.3158 31.2289 42.7685C33.7794 40.218 37.2337 38.7823 40.8415 38.7789Z" fill="#5C2D91"/>
</svg>
