<svg width="80" height="74" viewBox="0 0 80 74" fill="none" xmlns="http://www.w3.org/2000/svg">
<circle cx="24.434" cy="24.832" r="23.957" fill="#EAD9FD"/>
<path fill-rule="evenodd" clip-rule="evenodd" d="M73.3052 66.7205H14.8455C11.3447 66.7205 8.51074 63.8865 8.51074 60.3858V27.3425C8.51074 23.8417 11.3447 21.0078 14.8455 21.0078H25.5117C26.0534 21.0078 26.5118 21.4662 26.5118 22.008C26.5118 22.5498 26.0534 22.9666 25.5117 22.9666H14.8455C12.4283 22.9666 10.4696 24.9253 10.4696 27.3425V60.3858C10.4696 62.803 12.4283 64.7617 14.8455 64.7617H73.3052C75.7224 64.7617 77.6812 62.803 77.6812 60.3858V27.3425C77.6812 24.9253 75.7224 22.9666 73.3052 22.9666H62.5971C62.0553 22.9666 61.6385 22.5498 61.6385 22.008C61.6385 21.4662 62.0553 21.0078 62.5971 21.0078H73.3052C76.806 21.0078 79.6399 23.8418 79.6399 27.3425V60.3858C79.6399 63.8866 76.806 66.7205 73.3052 66.7205Z" fill="#5C2D91"/>
<path fill-rule="evenodd" clip-rule="evenodd" d="M17.8876 33.4699H9.47188C8.93009 33.4699 8.51331 33.0531 8.51331 32.5113C8.51331 31.9695 8.93007 31.5527 9.47188 31.5527H17.8876C18.4294 31.5527 18.8462 31.9695 18.8462 32.5113C18.8462 33.0531 18.4294 33.4699 17.8876 33.4699Z" fill="#5C2D91"/>
<path fill-rule="evenodd" clip-rule="evenodd" d="M78.6398 46.2609H70.2661C69.7243 46.2609 69.2659 45.8441 69.2659 45.3023C69.2659 44.7605 69.7243 44.3438 70.2661 44.3438H78.6398C79.1816 44.3438 79.64 44.7605 79.64 45.3023C79.64 45.8441 79.1815 46.2609 78.6398 46.2609Z" fill="#5C2D91"/>
<path fill-rule="evenodd" clip-rule="evenodd" d="M78.6397 56.8045H9.47188C8.93009 56.8045 8.51331 56.346 8.51331 55.8043C8.51331 55.3042 8.93007 54.8457 9.47188 54.8457H78.6397C79.1815 54.8457 79.6399 55.2625 79.6399 55.8043C79.6399 56.3461 79.1815 56.8045 78.6397 56.8045Z" fill="#5C2D91"/>
<path fill-rule="evenodd" clip-rule="evenodd" d="M23.3465 71.3019C22.8047 71.3019 22.3463 70.8851 22.3463 70.3433V65.759C22.3463 65.2172 22.8047 64.7588 23.3465 64.7588C23.8882 64.7588 24.3051 65.2172 24.3051 65.759V70.3433C24.3051 70.8851 23.8883 71.3019 23.3465 71.3019Z" fill="#5C2D91"/>
<path fill-rule="evenodd" clip-rule="evenodd" d="M18.9296 73.7199C18.5962 73.7199 18.2628 73.5532 18.0961 73.2198C17.8043 72.7614 18.0127 72.1779 18.4711 71.8862L22.8471 69.5107C23.3472 69.2606 23.9306 69.4273 24.1807 69.8858C24.4307 70.3442 24.264 70.9276 23.8056 71.2194L19.388 73.5949C19.263 73.6782 19.0963 73.7199 18.9296 73.7199Z" fill="#5C2D91"/>
<path fill-rule="evenodd" clip-rule="evenodd" d="M27.7229 73.7198C27.5979 73.7198 27.4312 73.6782 27.2645 73.5948L22.8886 71.2193C22.3885 70.9276 22.2218 70.3441 22.4718 69.8857C22.7635 69.4273 23.347 69.2189 23.8054 69.5106L28.1814 71.8861C28.6815 72.1778 28.8482 72.7613 28.5981 73.2197C28.4314 73.5531 28.0564 73.7198 27.7229 73.7198Z" fill="#5C2D91"/>
<path fill-rule="evenodd" clip-rule="evenodd" d="M64.8063 71.3019C64.2645 71.3019 63.8062 70.8851 63.8062 70.3433V65.759C63.8062 65.2172 64.2646 64.7588 64.8063 64.7588C65.3481 64.7588 65.7649 65.2172 65.7649 65.759V70.3433C65.7649 70.8851 65.3481 71.3019 64.8063 71.3019Z" fill="#5C2D91"/>
<path fill-rule="evenodd" clip-rule="evenodd" d="M60.3886 73.7199C60.0552 73.7199 59.7218 73.5532 59.5551 73.2198C59.3051 72.7614 59.4718 72.1779 59.9302 71.8862L64.3478 69.5107C64.8062 69.2606 65.3897 69.4273 65.6397 69.8858C65.8898 70.3442 65.7231 70.9276 65.2647 71.2194L60.8887 73.5949C60.722 73.6782 60.5553 73.7199 60.3886 73.7199Z" fill="#5C2D91"/>
<path fill-rule="evenodd" clip-rule="evenodd" d="M69.1821 73.7198C69.0571 73.7198 68.8904 73.6782 68.7237 73.5948L64.3477 71.2193C63.8893 70.9276 63.6809 70.3441 63.9726 69.8857C64.2227 69.4273 64.8062 69.2189 65.2646 69.5106L69.6822 71.8861C70.1406 72.1778 70.3073 72.7613 70.0573 73.2197C69.8906 73.5531 69.5572 73.7198 69.1821 73.7198Z" fill="#5C2D91"/>
<path fill-rule="evenodd" clip-rule="evenodd" d="M62.5971 56.8044C62.0553 56.8044 61.6385 56.3459 61.6385 55.8042V15.3872C61.6385 14.4286 60.8884 13.6785 59.9299 13.6785H28.2202C27.2616 13.6785 26.5115 14.4287 26.5115 15.3872V55.8042C26.5115 56.346 26.0947 56.8044 25.5529 56.8044C25.0111 56.8044 24.5527 56.3459 24.5527 55.8042V15.3872C24.5527 13.3867 26.2198 11.7197 28.2202 11.7197H59.9299C61.9303 11.7197 63.5973 13.3868 63.5973 15.3872V55.8042C63.5973 56.346 63.1389 56.8044 62.5971 56.8044Z" fill="#5C2D91"/>
<path fill-rule="evenodd" clip-rule="evenodd" d="M57.6823 51.5125H51.8894C51.3476 51.5125 50.8892 51.0957 50.8892 50.5539C50.8892 50.0121 51.3476 49.5537 51.8894 49.5537H57.6823C58.2241 49.5537 58.6408 50.0121 58.6408 50.5539C58.6408 51.0956 58.2241 51.5125 57.6823 51.5125ZM47.0993 51.5125H30.4735C29.9317 51.5125 29.5149 51.0957 29.5149 50.5539C29.5149 50.0121 29.9317 49.5537 30.4735 49.5537H47.0993C47.6411 49.5537 48.0995 50.0121 48.0995 50.5539C48.0995 51.0956 47.6411 51.5125 47.0993 51.5125Z" fill="#5C2D91"/>
<path fill-rule="evenodd" clip-rule="evenodd" d="M57.6822 47.8859H40.4731C39.9313 47.8859 39.4729 47.4691 39.4729 46.9273C39.4729 46.3855 39.9314 45.9688 40.4731 45.9688H57.6822C58.224 45.9688 58.6408 46.3855 58.6408 46.9273C58.6408 47.4691 58.224 47.8859 57.6822 47.8859ZM35.3911 47.8859H30.4733C29.9316 47.8859 29.5148 47.4691 29.5148 46.9273C29.5148 46.3855 29.9315 45.9688 30.4733 45.9688H35.3911C35.9329 45.9688 36.3497 46.3855 36.3497 46.9273C36.3497 47.4691 35.9329 47.8859 35.3911 47.8859Z" fill="#5C2D91"/>
<path fill-rule="evenodd" clip-rule="evenodd" d="M57.6823 44.2599H51.4309C50.8891 44.2599 50.4723 43.8432 50.4723 43.3013C50.4723 42.7596 50.8891 42.3428 51.4309 42.3428H57.6823C58.2241 42.3428 58.6408 42.7595 58.6408 43.3013C58.6408 43.8431 58.2241 44.2599 57.6823 44.2599ZM47.0993 44.2599H30.4735C29.9317 44.2599 29.5149 43.8432 29.5149 43.3013C29.5149 42.7596 29.9317 42.3428 30.4735 42.3428H47.0993C47.6411 42.3428 48.0995 42.7595 48.0995 43.3013C48.0995 43.8431 47.6411 44.2599 47.0993 44.2599Z" fill="#5C2D91"/>
<path fill-rule="evenodd" clip-rule="evenodd" d="M57.6823 40.6795H42.6404C42.0986 40.6795 41.6402 40.221 41.6402 39.6793C41.6402 39.1375 42.0987 38.7207 42.6404 38.7207H57.6823C58.2241 38.7207 58.6409 39.1375 58.6409 39.6793C58.6409 40.2211 58.2241 40.6795 57.6823 40.6795ZM35.6828 40.6795H30.4733C29.9316 40.6795 29.5148 40.221 29.5148 39.6793C29.5148 39.1375 29.9315 38.7207 30.4733 38.7207H35.6828C36.2246 38.7207 36.6414 39.1375 36.6414 39.6793C36.6414 40.2211 36.2246 40.6795 35.6828 40.6795Z" fill="#5C2D91"/>
<path fill-rule="evenodd" clip-rule="evenodd" d="M57.6823 37.0535H51.8894C51.3476 37.0535 50.8892 36.5951 50.8892 36.0533C50.8892 35.5532 51.3476 35.0947 51.8894 35.0947H57.6823C58.2241 35.0947 58.6408 35.5532 58.6408 36.0533C58.6408 36.5951 58.2241 37.0535 57.6823 37.0535ZM43.7656 37.0535H30.4735C29.9317 37.0535 29.5149 36.5951 29.5149 36.0533C29.5149 35.5532 29.9317 35.0947 30.4735 35.0947H43.7656C44.3074 35.0947 44.7658 35.5532 44.7658 36.0533C44.7658 36.5951 44.3074 37.0535 43.7656 37.0535Z" fill="#5C2D91"/>
<path fill-rule="evenodd" clip-rule="evenodd" d="M57.6823 33.4275H42.1816C41.6398 33.4275 41.2231 33.0107 41.2231 32.4689C41.2231 31.9271 41.6398 31.4688 42.1816 31.4688H57.6823C58.2241 31.4688 58.6408 31.9272 58.6408 32.4689C58.6408 33.0107 58.2241 33.4275 57.6823 33.4275ZM35.808 33.4275H30.4735C29.9317 33.4275 29.5149 33.0107 29.5149 32.4689C29.5149 31.9271 29.9317 31.4688 30.4735 31.4688H35.808C36.3498 31.4688 36.8082 31.9272 36.8082 32.4689C36.8082 33.0107 36.3497 33.4275 35.808 33.4275Z" fill="#5C2D91"/>
<path fill-rule="evenodd" clip-rule="evenodd" d="M57.6823 29.8019H51.8894C51.3476 29.8019 50.8892 29.3852 50.8892 28.8433C50.8892 28.3016 51.3476 27.8848 51.8894 27.8848H57.6823C58.2241 27.8848 58.6408 28.3015 58.6408 28.8433C58.6408 29.3851 58.2241 29.8019 57.6823 29.8019ZM45.3909 29.8019H30.4735C29.9317 29.8019 29.5149 29.3852 29.5149 28.8433C29.5149 28.3016 29.9317 27.8848 30.4735 27.8848H45.3909C45.891 27.8848 46.3494 28.3015 46.3494 28.8433C46.3494 29.3851 45.891 29.8019 45.3909 29.8019Z" fill="#5C2D91"/>
<path fill-rule="evenodd" clip-rule="evenodd" d="M57.6822 26.1789H45.2237C44.6819 26.1789 44.2651 25.7621 44.2651 25.2203C44.2651 24.6785 44.6818 24.2617 45.2237 24.2617H57.6822C58.224 24.2617 58.6408 24.6785 58.6408 25.2203C58.6408 25.7621 58.224 26.1789 57.6822 26.1789ZM39.4311 26.1789H34.9301C34.43 26.1789 33.9716 25.7621 33.9716 25.2203C33.9716 24.6785 34.43 24.2617 34.9301 24.2617H39.4311C39.9729 24.2617 40.3897 24.6785 40.3897 25.2203C40.3897 25.7621 39.9729 26.1789 39.4311 26.1789Z" fill="#5C2D91"/>
<path fill-rule="evenodd" clip-rule="evenodd" d="M57.6823 22.5945H53.0563C52.5145 22.5945 52.0561 22.1361 52.0561 21.5943C52.0561 21.0526 52.5146 20.6357 53.0563 20.6357H57.6823C58.2241 20.6357 58.6409 21.0525 58.6409 21.5943C58.6409 22.1361 58.2241 22.5945 57.6823 22.5945ZM46.5161 22.5945H38.392C37.8919 22.5945 37.4335 22.1361 37.4335 21.5943C37.4335 21.0526 37.8919 20.6357 38.392 20.6357H46.5161C47.0579 20.6357 47.5163 21.0525 47.5163 21.5943C47.5163 22.1361 47.0579 22.5945 46.5161 22.5945Z" fill="#5C2D91"/>
<path fill-rule="evenodd" clip-rule="evenodd" d="M57.6822 18.9685H48.9749C48.4331 18.9685 48.0163 18.5101 48.0163 17.9683C48.0163 17.4682 48.4331 17.0098 48.9749 17.0098H57.6822C58.224 17.0098 58.6408 17.4682 58.6408 17.9683C58.6408 18.5101 58.224 18.9685 57.6822 18.9685ZM44.0572 18.9685H36.2667C35.7249 18.9685 35.2665 18.5101 35.2665 17.9683C35.2665 17.4682 35.7249 17.0098 36.2667 17.0098H44.0572C44.599 17.0098 45.0574 17.4682 45.0574 17.9683C45.0574 18.5101 44.5989 18.9685 44.0572 18.9685Z" fill="#5C2D91"/>
<path fill-rule="evenodd" clip-rule="evenodd" d="M32.7211 24.0947C32.1793 24.0947 31.7209 23.6779 31.7209 23.1361V17.9683C31.7209 17.4266 32.1794 17.0098 32.7211 17.0098C33.2629 17.0098 33.6797 17.4265 33.6797 17.9683V23.1361C33.6797 23.6779 33.2629 24.0947 32.7211 24.0947Z" fill="#5C2D91"/>
<path fill-rule="evenodd" clip-rule="evenodd" d="M35.2631 21.5109H30.137C29.5953 21.5109 29.1785 21.0941 29.1785 20.5523C29.1785 20.0105 29.5952 19.5938 30.137 19.5938H35.2631C35.8049 19.5938 36.2633 20.0105 36.2633 20.5523C36.2633 21.0941 35.8049 21.5109 35.2631 21.5109Z" fill="#5C2D91"/>
<path fill-rule="evenodd" clip-rule="evenodd" d="M19.8876 63.8037C18.2206 63.8037 16.8453 62.4701 16.8453 60.803C16.8453 59.0944 18.2206 57.7607 19.8876 57.7607C21.5546 57.7607 22.9299 59.0944 22.9299 60.803C22.9299 62.4701 21.5546 63.8037 19.8876 63.8037ZM19.8876 59.6778C19.2625 59.6778 18.8041 60.1779 18.8041 60.803C18.8041 61.3865 19.2625 61.8866 19.8876 61.8866C20.4711 61.8866 20.9712 61.3865 20.9712 60.803C20.9712 60.1779 20.4711 59.6778 19.8876 59.6778Z" fill="#5C2D91"/>
<path fill-rule="evenodd" clip-rule="evenodd" d="M28.4726 63.8037C26.8055 63.8037 25.4719 62.4701 25.4719 60.803C25.4719 59.0944 26.8055 57.7607 28.4726 57.7607C30.1397 57.7607 31.5149 59.0944 31.5149 60.803C31.5149 62.4701 30.1813 63.8037 28.4726 63.8037ZM28.4726 59.6778C27.8892 59.6778 27.3891 60.1779 27.3891 60.803C27.3891 61.3865 27.8892 61.8866 28.4726 61.8866C29.0978 61.8866 29.5562 61.3865 29.5562 60.803C29.5562 60.1779 29.0977 59.6778 28.4726 59.6778Z" fill="#5C2D91"/>
<path fill-rule="evenodd" clip-rule="evenodd" d="M37.0975 63.8037C35.4304 63.8037 34.0552 62.4701 34.0552 60.803C34.0552 59.0944 35.4305 57.7607 37.0975 57.7607C38.7645 57.7607 40.1398 59.0944 40.1398 60.803C40.1398 62.4701 38.7645 63.8037 37.0975 63.8037ZM37.0975 59.6778C36.514 59.6778 36.0139 60.1779 36.0139 60.803C36.0139 61.3865 36.514 61.8866 37.0975 61.8866C37.6809 61.8866 38.181 61.3865 38.181 60.803C38.181 60.1779 37.6809 59.6778 37.0975 59.6778Z" fill="#5C2D91"/>
<path fill-rule="evenodd" clip-rule="evenodd" d="M70.3072 61.7605H50.8057C50.2639 61.7605 49.8055 61.3021 49.8055 60.8019C49.8055 60.2602 50.264 59.8018 50.8057 59.8018H70.3072C70.849 59.8018 71.3074 60.2602 71.3074 60.8019C71.3074 61.3021 70.849 61.7605 70.3072 61.7605Z" fill="#5C2D91"/>
</svg>
