<svg width="57" height="68" viewBox="0 0 57 68" fill="none" xmlns="http://www.w3.org/2000/svg">
<circle cx="24.0131" cy="24.9374" r="23.957" fill="#EAD9FD"/>
<path d="M29.5246 31.5074C29.2084 31.5074 28.9051 31.3818 28.6815 31.1582C28.4579 30.9346 28.3323 30.6313 28.3323 30.3151V17.7773C28.3323 17.461 28.4579 17.1578 28.6815 16.9342C28.9051 16.7106 29.2084 16.585 29.5246 16.585C29.8408 16.585 30.1441 16.7106 30.3677 16.9342C30.5913 17.1578 30.7169 17.461 30.7169 17.7773V30.3151C30.7169 30.6313 30.5913 30.9346 30.3677 31.1582C30.1441 31.3818 29.8408 31.5074 29.5246 31.5074Z" fill="#5C2D91"/>
<path d="M34.3728 26.756H29.5246C29.2084 26.756 28.9051 26.6304 28.6815 26.4068C28.4579 26.1832 28.3323 25.88 28.3323 25.5637V17.7773C28.3323 17.461 28.4579 17.1578 28.6815 16.9342C28.9051 16.7106 29.2084 16.585 29.5246 16.585H34.3728C35.7109 16.6012 36.9887 17.1441 37.9292 18.096C38.8697 19.048 39.3971 20.3323 39.3971 21.6705C39.3971 23.0087 38.8697 24.293 37.9292 25.245C36.9887 26.1969 35.7109 26.7398 34.3728 26.756ZM30.7169 24.3714H34.3728C35.0813 24.3597 35.7569 24.0699 36.2538 23.5647C36.7507 23.0594 37.0292 22.3792 37.0292 21.6705C37.0292 20.9618 36.7507 20.2816 36.2538 19.7763C35.7569 19.2711 35.0813 18.9813 34.3728 18.9696H30.7169V24.3714Z" fill="#5C2D91"/>
<path d="M33.0753 67.7193C27.0326 67.7193 21.3326 66.4756 17.0255 64.2169C12.4738 61.8323 9.96777 58.5714 9.96777 55.0377C9.96777 52.2738 11.5014 49.6656 14.4031 47.4956C17.0761 45.497 20.7477 43.988 25.0228 43.1326C25.1764 43.1018 25.3345 43.1016 25.4881 43.132C25.6417 43.1624 25.7878 43.2227 25.9181 43.3096C26.0484 43.3964 26.1603 43.5081 26.2475 43.6382C26.3346 43.7682 26.3953 43.9142 26.426 44.0678C26.4567 44.2213 26.4569 44.3794 26.4266 44.533C26.3962 44.6866 26.3359 44.8328 26.249 44.9631C26.1622 45.0934 26.0505 45.2053 25.9204 45.2924C25.7903 45.3796 25.6443 45.4402 25.4908 45.471C21.5614 46.2571 18.2215 47.6179 15.8317 49.4056C14.2444 50.5926 12.3524 52.5354 12.3524 55.0377C12.3524 57.6414 14.4054 60.1512 18.1328 62.1051C22.1039 64.1879 27.4119 65.3347 33.0753 65.3347C38.7388 65.3347 44.0468 64.1879 48.0179 62.1058C51.7438 60.1519 53.7983 57.6421 53.7983 55.0384C53.7983 52.5339 51.9063 50.5934 50.319 49.4063C47.9292 47.6179 44.5893 46.2579 40.6599 45.4717C40.5063 45.441 40.3603 45.3803 40.2302 45.2932C40.1001 45.206 39.9885 45.0941 39.9017 44.9638C39.8148 44.8335 39.7545 44.6874 39.7241 44.5338C39.6937 44.3802 39.6939 44.2221 39.7247 44.0685C39.7554 43.915 39.8161 43.769 39.9032 43.6389C39.9903 43.5088 40.1023 43.3971 40.2326 43.3103C40.3629 43.2235 40.509 43.1631 40.6626 43.1328C40.8162 43.1024 40.9743 43.1026 41.1278 43.1333C45.403 43.9888 49.0745 45.4978 51.7475 47.4964C54.6493 49.6664 56.1829 52.2745 56.1829 55.0384C56.1829 58.5721 53.6768 61.8323 49.1252 64.2177C44.818 66.4756 39.1181 67.7193 33.0753 67.7193Z" fill="#5C2D91"/>
<path d="M33.0753 56.4181C32.5261 56.42 31.9858 56.2799 31.5068 56.0115C31.0277 55.743 30.6262 55.3553 30.3412 54.886L24.2664 44.9682L17.4017 33.7591C14.9618 29.7872 14.1102 25.041 15.0171 20.4687C15.9077 15.8961 18.5193 11.8398 22.3133 9.13658C25.4543 6.89884 29.2187 5.70375 33.0753 5.71989C35.0393 5.7164 36.9916 6.02271 38.8602 6.62753C41.4993 7.49817 43.9068 8.95547 45.9019 10.89C47.8971 12.8245 49.4279 15.1859 50.3795 17.7969C51.3312 20.4079 51.6788 23.2006 51.3964 25.9652C51.114 28.7298 50.2088 31.3945 48.7488 33.7591L41.8842 44.9682L41.864 44.9995L35.8101 54.886C35.5249 55.3553 35.1232 55.743 34.644 56.0114C34.1649 56.2798 33.6245 56.4199 33.0753 56.4181ZM33.0753 8.10449C29.7163 8.09005 26.4374 9.13001 23.7008 11.0778C16.9114 15.9178 15.0417 25.3333 19.4383 32.5132L26.3 43.7245L32.374 53.6415C32.4471 53.7621 32.55 53.8619 32.6728 53.9311C32.7956 54.0003 32.9343 54.0367 33.0753 54.0367C33.2163 54.0367 33.3549 54.0003 33.4777 53.9311C33.6006 53.8619 33.7035 53.7621 33.7765 53.6415L39.8498 43.7245C39.8557 43.7141 39.8625 43.7037 39.8692 43.694L46.7152 32.5161C51.1118 25.3362 49.2392 15.9208 42.4497 11.0815C41.1271 10.1372 39.6678 9.4009 38.1224 8.89812C36.4922 8.36982 34.7889 8.10199 33.0753 8.10449Z" fill="#5C2D91"/>
<path d="M33.0754 38.3907C25.1652 38.3907 18.7297 31.956 18.7297 24.0458C18.7297 16.1356 25.1652 9.7002 33.0754 9.7002C40.9856 9.7002 47.421 16.1356 47.421 24.0458C47.421 31.956 40.9856 38.3907 33.0754 38.3907ZM33.0754 12.0855C26.4804 12.0855 21.1143 17.4509 21.1143 24.0466C21.1143 30.6422 26.4797 36.0069 33.0754 36.0069C39.671 36.0069 45.0364 30.6415 45.0364 24.0466C45.0364 17.4517 39.6703 12.0848 33.0754 12.0848V12.0855Z" fill="#5C2D91"/>
<path d="M33.0754 63.2481C27.8196 63.2481 22.7262 62.1579 19.1016 60.2577C16.1827 58.7278 14.4397 56.7769 14.4397 55.0414C14.4397 53.3058 16.1827 51.3519 19.1016 49.8213C21.4199 48.6059 24.3574 47.7095 27.5968 47.2288C27.9096 47.1824 28.2281 47.2621 28.4822 47.4505C28.7362 47.6389 28.9051 47.9205 28.9515 48.2333C28.998 48.5462 28.9182 48.8647 28.7298 49.1187C28.5414 49.3728 28.2599 49.5416 27.947 49.5881C24.9662 50.0292 22.2947 50.8407 20.2104 51.9332C17.8758 53.1575 16.8258 54.4877 16.8258 55.0414C16.8258 55.4766 17.653 56.8082 20.2104 58.1488C23.5027 59.8732 28.1922 60.8635 33.0754 60.8635C37.9586 60.8635 42.6481 59.8732 45.9418 58.1458C48.4993 56.8045 49.3265 55.4736 49.3265 55.0384C49.3265 54.4847 48.2765 53.1545 45.9418 51.9302C43.8553 50.8378 41.1823 50.0262 38.2045 49.5851C37.8917 49.5386 37.6101 49.3698 37.4217 49.1158C37.2333 48.8617 37.1536 48.5432 37.2 48.2303C37.2464 47.9175 37.4153 47.6359 37.6693 47.4475C37.9234 47.2591 38.2419 47.1794 38.5548 47.2258C41.7934 47.7065 44.7309 48.6029 47.0499 49.8183C49.9688 51.349 51.7118 53.3006 51.7118 55.0384C51.7118 56.7762 49.9688 58.7278 47.0499 60.2547C43.4246 62.1579 38.3312 63.2481 33.0754 63.2481Z" fill="#5C2D91"/>
</svg>
