<svg width="656" height="48" viewBox="0 0 656 48" fill="none" xmlns="http://www.w3.org/2000/svg">
<path d="M0.267195 37.0947V2.41072H8.6912V37.0947H0.267195ZM14.7602 13.0187C15.4188 12.6721 16.2855 12.3254 17.3602 11.9787C18.4348 11.5974 19.6135 11.2681 20.8962 10.9907C22.1788 10.7134 23.4615 10.4881 24.7442 10.3147C26.0615 10.1414 27.2748 10.0547 28.3842 10.0547C30.7415 10.0547 32.7522 10.3667 34.4162 10.9907C36.0802 11.5801 37.3455 12.5507 38.2122 13.9027C39.1135 15.2547 39.5642 17.0921 39.5642 19.4147V37.0947H31.8162V20.9747C31.8162 20.3161 31.7122 19.7094 31.5042 19.1547C31.3308 18.6001 31.0535 18.1321 30.6722 17.7507C30.2908 17.3347 29.7708 17.0227 29.1122 16.8147C28.4535 16.5721 27.6562 16.4507 26.7202 16.4507C25.9228 16.4507 25.1255 16.5547 24.3282 16.7627C23.5308 16.9361 22.9242 17.1267 22.5082 17.3347V37.0947H14.7602V13.0187ZM74.3388 37.7707C68.7921 37.7707 64.5454 36.3147 61.5988 33.4027C58.6868 30.4561 57.2308 25.9147 57.2308 19.7787C57.2308 13.8161 58.6348 9.30939 61.4428 6.25872C64.2508 3.17339 68.5494 1.63072 74.3388 1.63072C76.1761 1.63072 78.0308 1.85606 79.9028 2.30673C81.7748 2.75739 83.5948 3.38139 85.3628 4.17873V11.5107C83.5601 10.3321 81.8268 9.48273 80.1628 8.96273C78.4988 8.44272 76.9388 8.18272 75.4828 8.18272C73.4374 8.18272 71.7041 8.54672 70.2828 9.27473C68.8961 10.0027 67.8214 11.2161 67.0588 12.9147C66.3308 14.6134 65.9668 16.9014 65.9668 19.7787C65.9668 22.6561 66.3308 24.9267 67.0588 26.5907C67.8214 28.2547 68.9308 29.4507 70.3868 30.1787C71.8774 30.8721 73.6974 31.2187 75.8468 31.2187C77.1294 31.2187 78.5854 30.9761 80.2148 30.4907C81.8441 30.0054 83.5601 29.1734 85.3628 27.9947V35.3267C84.3921 35.8121 83.2828 36.2454 82.0348 36.6267C80.8214 36.9734 79.5388 37.2507 78.1868 37.4587C76.8694 37.6667 75.5868 37.7707 74.3388 37.7707ZM90.4527 37.0947V0.382725H98.2527V15.9827L94.9767 14.2147C96.3633 13.0014 97.9927 12.0134 99.8647 11.2507C101.771 10.4534 103.713 10.0547 105.689 10.0547C107.595 10.0547 109.277 10.3667 110.733 10.9907C112.189 11.6147 113.315 12.6374 114.113 14.0587C114.945 15.4454 115.361 17.3694 115.361 19.8307V37.0947H107.613V21.4427C107.613 19.7094 107.179 18.4614 106.313 17.6987C105.481 16.9014 104.25 16.5027 102.621 16.5027C101.789 16.5027 100.957 16.6241 100.125 16.8667C99.3273 17.0747 98.7033 17.3521 98.2527 17.6987L98.1487 37.0947H90.4527ZM133.11 37.8747C130.475 37.8747 128.135 37.3374 126.09 36.2627C124.079 35.1534 122.502 33.5934 121.358 31.5827C120.248 29.5374 119.694 27.1107 119.694 24.3027C119.694 19.7267 120.82 16.1907 123.074 13.6947C125.362 11.1641 128.62 9.89873 132.85 9.89873C135.762 9.89873 138.102 10.5227 139.87 11.7707C141.672 13.0187 142.99 14.8387 143.822 17.2307C144.654 19.6227 145.052 22.5347 145.018 25.9667H124.998L124.166 21.0267H138.622L137.478 23.4707C137.443 20.6627 137.044 18.6867 136.282 17.5427C135.519 16.3987 134.271 15.8267 132.538 15.8267C131.567 15.8267 130.683 16.0694 129.886 16.5547C129.123 17.0401 128.516 17.8547 128.066 18.9987C127.65 20.1081 127.442 21.6507 127.442 23.6267C127.442 26.1227 128.031 28.0467 129.21 29.3987C130.423 30.7507 132.347 31.4267 134.982 31.4267C135.952 31.4267 136.906 31.3227 137.842 31.1147C138.812 30.8721 139.714 30.5947 140.546 30.2827C141.378 29.9707 142.088 29.6934 142.678 29.4507V36.1067C141.43 36.6267 140.026 37.0427 138.466 37.3547C136.94 37.7014 135.155 37.8747 133.11 37.8747ZM149.361 13.0187C150.02 12.6721 150.886 12.3254 151.961 11.9787C153.036 11.5974 154.214 11.2681 155.497 10.9907C156.78 10.7134 158.062 10.4881 159.345 10.3147C160.662 10.1414 161.876 10.0547 162.985 10.0547C165.342 10.0547 167.353 10.3667 169.017 10.9907C170.681 11.5801 171.946 12.5507 172.813 13.9027C173.714 15.2547 174.165 17.0921 174.165 19.4147V37.0947H166.417V20.9747C166.417 20.3161 166.313 19.7094 166.105 19.1547C165.932 18.6001 165.654 18.1321 165.273 17.7507C164.892 17.3347 164.372 17.0227 163.713 16.8147C163.054 16.5721 162.257 16.4507 161.321 16.4507C160.524 16.4507 159.726 16.5547 158.929 16.7627C158.132 16.9361 157.525 17.1267 157.109 17.3347V37.0947H149.361V13.0187ZM180.008 13.0187C180.667 12.6721 181.534 12.3254 182.608 11.9787C183.683 11.5974 184.862 11.2681 186.144 10.9907C187.427 10.7134 188.71 10.4881 189.992 10.3147C191.31 10.1414 192.523 10.0547 193.632 10.0547C195.99 10.0547 198 10.3667 199.664 10.9907C201.328 11.5801 202.594 12.5507 203.46 13.9027C204.362 15.2547 204.812 17.0921 204.812 19.4147V37.0947H197.064V20.9747C197.064 20.3161 196.96 19.7094 196.752 19.1547C196.579 18.6001 196.302 18.1321 195.92 17.7507C195.539 17.3347 195.019 17.0227 194.36 16.8147C193.702 16.5721 192.904 16.4507 191.968 16.4507C191.171 16.4507 190.374 16.5547 189.576 16.7627C188.779 16.9361 188.172 17.1267 187.756 17.3347V37.0947H180.008V13.0187ZM220.796 37.8747C219.201 37.8747 217.693 37.7187 216.272 37.4067C214.885 37.1294 213.655 36.6614 212.58 36.0027C211.54 35.3094 210.725 34.3907 210.136 33.2467C209.547 32.0681 209.252 30.6121 209.252 28.8787C209.252 27.2494 209.581 25.8281 210.24 24.6147C210.933 23.4014 211.973 22.4654 213.36 21.8067C214.747 21.1481 216.497 20.8187 218.612 20.8187C219.791 20.8187 220.935 20.9401 222.044 21.1827C223.153 21.4254 224.141 21.7547 225.008 22.1707C225.909 22.5867 226.62 23.0374 227.14 23.5227L227.452 27.2667C226.759 26.8507 225.927 26.5214 224.956 26.2787C223.985 26.0361 222.945 25.9147 221.836 25.9147C220.137 25.9147 218.889 26.1747 218.092 26.6947C217.329 27.1801 216.948 27.9601 216.948 29.0347C216.948 29.6934 217.139 30.2827 217.52 30.8027C217.901 31.3227 218.404 31.7214 219.028 31.9987C219.687 32.2761 220.363 32.4147 221.056 32.4147C222.824 32.4147 224.055 32.2934 224.748 32.0507C225.476 31.8081 225.84 31.3227 225.84 30.5947V20.9227C225.84 19.3281 225.32 18.1841 224.28 17.4907C223.275 16.7627 221.836 16.3987 219.964 16.3987C218.439 16.3987 216.896 16.6761 215.336 17.2307C213.811 17.7507 212.563 18.3921 211.592 19.1547V12.2907C212.493 11.7361 213.88 11.2161 215.752 10.7307C217.659 10.2454 219.791 10.0027 222.148 10.0027C222.98 10.0027 223.899 10.0721 224.904 10.2107C225.909 10.3494 226.915 10.6094 227.92 10.9907C228.925 11.3374 229.844 11.8574 230.676 12.5507C231.543 13.2441 232.236 14.1281 232.756 15.2027C233.276 16.2774 233.536 17.6121 233.536 19.2067L233.484 31.6347C233.484 33.1254 232.981 34.3387 231.976 35.2747C230.971 36.1761 229.515 36.8347 227.608 37.2507C225.736 37.6667 223.465 37.8747 220.796 37.8747ZM239.53 37.0947V11.1467H247.278L247.33 37.0947H239.53ZM239.374 7.19472V1.21472H247.382V7.19472H239.374ZM266.804 37.0947V2.41072H290.412V8.91072H275.228V17.1787H288.332V23.7827H275.228V37.0947H266.804ZM295.16 37.0947V13.5387C295.645 13.1227 296.512 12.6547 297.76 12.1347C299.008 11.5801 300.429 11.0947 302.024 10.6787C303.653 10.2281 305.283 10.0027 306.912 10.0027C308.541 10.0027 309.824 10.1241 310.76 10.3667C311.696 10.6094 312.407 10.9214 312.892 11.3027V16.9707C312.303 16.8321 311.557 16.7281 310.656 16.6587C309.755 16.5894 308.819 16.5547 307.848 16.5547C306.877 16.5201 305.959 16.5201 305.092 16.5547C304.225 16.5894 303.497 16.6587 302.908 16.7627V37.0947H295.16ZM327.304 37.8747C322.867 37.8747 319.521 36.6961 317.268 34.3387C315.049 31.9467 313.94 28.4454 313.94 23.8347C313.94 18.8774 315.067 15.3241 317.32 13.1747C319.608 10.9907 322.936 9.89873 327.304 9.89873C330.251 9.89873 332.712 10.4014 334.688 11.4067C336.699 12.3774 338.207 13.8854 339.212 15.9307C340.252 17.9761 340.772 20.6107 340.772 23.8347C340.772 28.4454 339.611 31.9467 337.288 34.3387C334.965 36.6961 331.637 37.8747 327.304 37.8747ZM327.304 31.6867C328.587 31.6867 329.644 31.3921 330.476 30.8027C331.343 30.1787 331.984 29.2947 332.4 28.1507C332.851 26.9721 333.076 25.5334 333.076 23.8347C333.076 21.8934 332.851 20.3681 332.4 19.2587C331.984 18.1147 331.343 17.3001 330.476 16.8147C329.609 16.2947 328.552 16.0347 327.304 16.0347C325.987 16.0347 324.912 16.2947 324.08 16.8147C323.248 17.3347 322.624 18.1667 322.208 19.3107C321.827 20.4201 321.636 21.9281 321.636 23.8347C321.636 26.4694 322.087 28.4454 322.988 29.7627C323.924 31.0454 325.363 31.6867 327.304 31.6867ZM369.52 19.4147V37.0947H361.772V20.9747C361.772 20.3161 361.668 19.7094 361.46 19.1547C361.287 18.6001 361.009 18.1321 360.628 17.7507C360.247 17.3347 359.727 17.0227 359.068 16.8147C358.409 16.5721 357.612 16.4507 356.676 16.4507C355.879 16.4507 355.133 16.5547 354.44 16.7627C353.781 16.9361 353.244 17.1267 352.828 17.3347V37.0947H345.08V13.0187C345.739 12.6721 346.605 12.3254 347.68 11.9787C348.755 11.5974 349.933 11.2681 351.216 10.9907C352.499 10.7134 353.781 10.4881 355.064 10.3147C356.381 10.1414 357.595 10.0547 358.704 10.0547C361.061 10.0547 363.037 10.3667 364.632 10.9907C366.261 11.5801 367.475 12.5507 368.272 13.9027C369.104 15.2547 369.52 17.0921 369.52 19.4147ZM361.564 14.7867C362.639 13.8507 363.939 13.0361 365.464 12.3427C366.989 11.6147 368.601 11.0601 370.3 10.6787C371.999 10.2627 373.576 10.0547 375.032 10.0547C377.389 10.0547 379.365 10.3667 380.96 10.9907C382.589 11.5801 383.803 12.5507 384.6 13.9027C385.432 15.2547 385.848 17.0921 385.848 19.4147V37.0947H378.1V20.9747C378.1 20.3161 377.996 19.7094 377.788 19.1547C377.615 18.6001 377.337 18.1321 376.956 17.7507C376.575 17.3347 376.055 17.0227 375.396 16.8147C374.737 16.5721 373.94 16.4507 373.004 16.4507C372.207 16.4507 371.461 16.5721 370.768 16.8147C370.109 17.0227 369.572 17.3001 369.156 17.6467L361.564 14.7867ZM402.248 37.0947L415.352 2.41072H424.556L436.828 37.0947H428.196L417.12 4.38673L421.228 4.02272L410.204 37.0947H402.248ZM409.632 29.6067L411.348 23.4187H427.104L427.884 29.6067H409.632ZM439.917 13.0187C440.576 12.6721 441.442 12.3254 442.517 11.9787C443.592 11.5974 444.77 11.2681 446.053 10.9907C447.336 10.7134 448.618 10.4881 449.901 10.3147C451.218 10.1414 452.432 10.0547 453.541 10.0547C455.898 10.0547 457.909 10.3667 459.573 10.9907C461.237 11.5801 462.502 12.5507 463.369 13.9027C464.27 15.2547 464.721 17.0921 464.721 19.4147V37.0947H456.973V20.9747C456.973 20.3161 456.869 19.7094 456.661 19.1547C456.488 18.6001 456.21 18.1321 455.829 17.7507C455.448 17.3347 454.928 17.0227 454.269 16.8147C453.61 16.5721 452.813 16.4507 451.877 16.4507C451.08 16.4507 450.282 16.5547 449.485 16.7627C448.688 16.9361 448.081 17.1267 447.665 17.3347V37.0947H439.917V13.0187ZM475.167 47.2867C474.301 47.2867 473.451 47.2001 472.619 47.0267C471.787 46.8534 471.077 46.6281 470.487 46.3507V40.0587C471.042 40.2667 471.562 40.4054 472.047 40.4747C472.533 40.5787 473.035 40.6307 473.555 40.6307C474.422 40.6307 475.167 40.4227 475.791 40.0067C476.45 39.6254 476.987 38.9494 477.403 37.9787C477.819 37.0427 478.149 35.7601 478.391 34.1307L478.547 38.5507L467.263 10.7827H476.155L482.135 29.2427H481.355L487.283 10.7827H495.603L485.255 37.5107C484.319 39.9374 483.297 41.8614 482.187 43.2827C481.113 44.7041 479.986 45.7267 478.807 46.3507C477.629 46.9747 476.415 47.2867 475.167 47.2867ZM505.888 37.0947L497.048 10.7827H505.42L511.296 32.0507L508.852 32.1547L514.416 10.7827H520.136L525.596 31.5307H523.672L529.288 10.7827H537.504L528.768 37.0947H521.748L516.548 20.0907L517.848 20.2467L512.908 37.0947H505.888ZM541.203 37.0947V0.382725H549.003V15.9827L545.727 14.2147C547.114 13.0014 548.743 12.0134 550.615 11.2507C552.522 10.4534 554.463 10.0547 556.439 10.0547C558.346 10.0547 560.027 10.3667 561.483 10.9907C562.939 11.6147 564.066 12.6374 564.863 14.0587C565.695 15.4454 566.111 17.3694 566.111 19.8307V37.0947H558.363V21.4427C558.363 19.7094 557.93 18.4614 557.063 17.6987C556.231 16.9014 555.001 16.5027 553.371 16.5027C552.539 16.5027 551.707 16.6241 550.875 16.8667C550.078 17.0747 549.454 17.3521 549.003 17.6987L548.899 37.0947H541.203ZM583.86 37.8747C581.226 37.8747 578.886 37.3374 576.84 36.2627C574.83 35.1534 573.252 33.5934 572.108 31.5827C570.999 29.5374 570.444 27.1107 570.444 24.3027C570.444 19.7267 571.571 16.1907 573.824 13.6947C576.112 11.1641 579.371 9.89873 583.6 9.89873C586.512 9.89873 588.852 10.5227 590.62 11.7707C592.423 13.0187 593.74 14.8387 594.572 17.2307C595.404 19.6227 595.803 22.5347 595.768 25.9667H575.748L574.916 21.0267H589.372L588.228 23.4707C588.194 20.6627 587.795 18.6867 587.032 17.5427C586.27 16.3987 585.022 15.8267 583.288 15.8267C582.318 15.8267 581.434 16.0694 580.636 16.5547C579.874 17.0401 579.267 17.8547 578.816 18.9987C578.4 20.1081 578.192 21.6507 578.192 23.6267C578.192 26.1227 578.782 28.0467 579.96 29.3987C581.174 30.7507 583.098 31.4267 585.732 31.4267C586.703 31.4267 587.656 31.3227 588.592 31.1147C589.563 30.8721 590.464 30.5947 591.296 30.2827C592.128 29.9707 592.839 29.6934 593.428 29.4507V36.1067C592.18 36.6267 590.776 37.0427 589.216 37.3547C587.691 37.7014 585.906 37.8747 583.86 37.8747ZM600.112 37.0947V13.5387C600.597 13.1227 601.464 12.6547 602.712 12.1347C603.96 11.5801 605.381 11.0947 606.976 10.6787C608.605 10.2281 610.234 10.0027 611.864 10.0027C613.493 10.0027 614.776 10.1241 615.712 10.3667C616.648 10.6094 617.358 10.9214 617.844 11.3027V16.9707C617.254 16.8321 616.509 16.7281 615.608 16.6587C614.706 16.5894 613.77 16.5547 612.8 16.5547C611.829 16.5201 610.91 16.5201 610.044 16.5547C609.177 16.5894 608.449 16.6587 607.86 16.7627V37.0947H600.112ZM632.308 37.8747C629.673 37.8747 627.333 37.3374 625.288 36.2627C623.277 35.1534 621.7 33.5934 620.556 31.5827C619.446 29.5374 618.892 27.1107 618.892 24.3027C618.892 19.7267 620.018 16.1907 622.272 13.6947C624.56 11.1641 627.818 9.89873 632.048 9.89873C634.96 9.89873 637.3 10.5227 639.068 11.7707C640.87 13.0187 642.188 14.8387 643.02 17.2307C643.852 19.6227 644.25 22.5347 644.216 25.9667H624.196L623.364 21.0267H637.82L636.676 23.4707C636.641 20.6627 636.242 18.6867 635.48 17.5427C634.717 16.3987 633.469 15.8267 631.736 15.8267C630.765 15.8267 629.881 16.0694 629.084 16.5547C628.321 17.0401 627.714 17.8547 627.264 18.9987C626.848 20.1081 626.64 21.6507 626.64 23.6267C626.64 26.1227 627.229 28.0467 628.408 29.3987C629.621 30.7507 631.545 31.4267 634.18 31.4267C635.15 31.4267 636.104 31.3227 637.04 31.1147C638.01 30.8721 638.912 30.5947 639.744 30.2827C640.576 29.9707 641.286 29.6934 641.876 29.4507V36.1067C640.628 36.6267 639.224 37.0427 637.664 37.3547C636.138 37.7014 634.353 37.8747 632.308 37.8747ZM648.195 37.0947V29.7627H655.735V37.0947H648.195Z" fill="url(#paint0_linear_81_29151)"/>
<defs>
<linearGradient id="paint0_linear_81_29151" x1="72.4573" y1="17.5947" x2="688.93" y2="17.5947" gradientUnits="userSpaceOnUse">
<stop stop-color="#7B40BC"/>
<stop offset="0.471154" stop-color="#F7941D"/>
<stop offset="0.9375" stop-color="#7B4AB3"/>
</linearGradient>
</defs>
</svg>
