<svg width="25" height="25" viewBox="0 0 25 25" fill="none" xmlns="http://www.w3.org/2000/svg">
<mask id="mask0_68_16546" style="mask-type:alpha" maskUnits="userSpaceOnUse" x="0" y="0" width="25" height="25">
<rect x="0.575195" y="0.65332" width="24" height="24" fill="#D9D9D9"/>
</mask>
<g mask="url(#mask0_68_16546)">
<path d="M4.5752 21.6533V12.2783L2.7752 13.6533L1.5752 12.0533L4.5752 9.75332V6.65332H6.5752V8.22832L12.5752 3.65332L23.5752 12.0533L22.3752 13.6283L20.5752 12.2783V21.6533H4.5752ZM6.5752 19.6533H11.5752V15.6533H13.5752V19.6533H18.5752V10.7533L12.5752 6.17832L6.5752 10.7533V19.6533ZM4.5752 5.65332C4.5752 4.81999 4.86686 4.11165 5.4502 3.52832C6.03353 2.94499 6.74186 2.65332 7.5752 2.65332C7.85853 2.65332 8.09603 2.55749 8.2877 2.36582C8.47936 2.17415 8.5752 1.93665 8.5752 1.65332H10.5752C10.5752 2.48665 10.2835 3.19499 9.7002 3.77832C9.11686 4.36165 8.40853 4.65332 7.5752 4.65332C7.29186 4.65332 7.05436 4.74915 6.8627 4.94082C6.67103 5.13249 6.5752 5.36999 6.5752 5.65332H4.5752Z" fill="#5C2D91"/>
</g>
</svg>
