<svg width="25" height="25" viewBox="0 0 25 25" fill="none" xmlns="http://www.w3.org/2000/svg">
<mask id="mask0_68_16543" style="mask-type:alpha" maskUnits="userSpaceOnUse" x="0" y="0" width="25" height="25">
<rect x="0.575195" y="0.323242" width="24" height="24" fill="#D9D9D9"/>
</mask>
<g mask="url(#mask0_68_16543)">
<path d="M12.5752 22.3232C10.8085 22.3232 9.36686 22.0441 8.2502 21.4857C7.13353 20.9274 6.5752 20.2066 6.5752 19.3232C6.5752 18.9232 6.69603 18.5524 6.9377 18.2107C7.17936 17.8691 7.51686 17.5732 7.9502 17.3232L9.5252 18.7982C9.3752 18.8649 9.2127 18.9399 9.0377 19.0232C8.8627 19.1066 8.7252 19.2066 8.6252 19.3232C8.84186 19.5899 9.34186 19.8232 10.1252 20.0232C10.9085 20.2232 11.7252 20.3232 12.5752 20.3232C13.4252 20.3232 14.246 20.2232 15.0377 20.0232C15.8294 19.8232 16.3335 19.5899 16.5502 19.3232C16.4335 19.1899 16.2835 19.0816 16.1002 18.9982C15.9169 18.9149 15.7419 18.8399 15.5752 18.7732L17.1252 17.2732C17.5919 17.5399 17.9502 17.8441 18.2002 18.1857C18.4502 18.5274 18.5752 18.9066 18.5752 19.3232C18.5752 20.2066 18.0169 20.9274 16.9002 21.4857C15.7835 22.0441 14.3419 22.3232 12.5752 22.3232ZM12.6002 16.8232C14.2502 15.6066 15.4919 14.3857 16.3252 13.1607C17.1585 11.9357 17.5752 10.7066 17.5752 9.47324C17.5752 7.77324 17.0335 6.48991 15.9502 5.62324C14.8669 4.75658 13.7419 4.32324 12.5752 4.32324C11.4085 4.32324 10.2835 4.75658 9.2002 5.62324C8.11686 6.48991 7.5752 7.77324 7.5752 9.47324C7.5752 10.5899 7.98353 11.7524 8.8002 12.9607C9.61686 14.1691 10.8835 15.4566 12.6002 16.8232ZM12.5752 19.3232C10.2252 17.5899 8.47103 15.9066 7.3127 14.2732C6.15436 12.6399 5.5752 11.0399 5.5752 9.47324C5.5752 8.28991 5.7877 7.25241 6.2127 6.36074C6.6377 5.46908 7.18353 4.72324 7.8502 4.12324C8.51686 3.52324 9.26686 3.07324 10.1002 2.77324C10.9335 2.47324 11.7585 2.32324 12.5752 2.32324C13.3919 2.32324 14.2169 2.47324 15.0502 2.77324C15.8835 3.07324 16.6335 3.52324 17.3002 4.12324C17.9669 4.72324 18.5127 5.46908 18.9377 6.36074C19.3627 7.25241 19.5752 8.28991 19.5752 9.47324C19.5752 11.0399 18.996 12.6399 17.8377 14.2732C16.6794 15.9066 14.9252 17.5899 12.5752 19.3232ZM12.5752 11.3232C13.1252 11.3232 13.596 11.1274 13.9877 10.7357C14.3794 10.3441 14.5752 9.87324 14.5752 9.32324C14.5752 8.77324 14.3794 8.30241 13.9877 7.91074C13.596 7.51908 13.1252 7.32324 12.5752 7.32324C12.0252 7.32324 11.5544 7.51908 11.1627 7.91074C10.771 8.30241 10.5752 8.77324 10.5752 9.32324C10.5752 9.87324 10.771 10.3441 11.1627 10.7357C11.5544 11.1274 12.0252 11.3232 12.5752 11.3232Z" fill="#5C2D91"/>
</g>
</svg>
