<svg width="25" height="25" viewBox="0 0 25 25" fill="none" xmlns="http://www.w3.org/2000/svg">
<mask id="mask0_68_16549" style="mask-type:alpha" maskUnits="userSpaceOnUse" x="0" y="0" width="25" height="25">
<rect x="0.575195" y="0.139648" width="24" height="24" fill="#D9D9D9"/>
</mask>
<g mask="url(#mask0_68_16549)">
<path d="M12.5752 23.1396V21.1396H19.5752V20.1396H15.5752V12.1396H19.5752V11.1396C19.5752 9.20632 18.8919 7.55632 17.5252 6.18965C16.1585 4.82298 14.5085 4.13965 12.5752 4.13965C10.6419 4.13965 8.99186 4.82298 7.6252 6.18965C6.25853 7.55632 5.5752 9.20632 5.5752 11.1396V12.1396H9.5752V20.1396H5.5752C5.0252 20.1396 4.55436 19.9438 4.1627 19.5521C3.77103 19.1605 3.5752 18.6896 3.5752 18.1396V11.1396C3.5752 9.90631 3.8127 8.74382 4.2877 7.65215C4.7627 6.56048 5.40853 5.60632 6.2252 4.78965C7.04186 3.97298 7.99603 3.32715 9.0877 2.85215C10.1794 2.37715 11.3419 2.13965 12.5752 2.13965C13.8085 2.13965 14.971 2.37715 16.0627 2.85215C17.1544 3.32715 18.1085 3.97298 18.9252 4.78965C19.7419 5.60632 20.3877 6.56048 20.8627 7.65215C21.3377 8.74382 21.5752 9.90631 21.5752 11.1396V21.1396C21.5752 21.6896 21.3794 22.1605 20.9877 22.5521C20.596 22.9438 20.1252 23.1396 19.5752 23.1396H12.5752ZM5.5752 18.1396H7.5752V14.1396H5.5752V18.1396ZM17.5752 18.1396H19.5752V14.1396H17.5752V18.1396Z" fill="#5C2D91"/>
</g>
</svg>
