<svg width="68" height="67" viewBox="0 0 68 67" fill="none" xmlns="http://www.w3.org/2000/svg">
<circle cx="24.5283" cy="24.539" r="23.957" fill="#EAD9FD"/>
<path d="M66.7208 31.566C67.1213 31.566 67.4468 31.2405 67.4468 30.8401V27.5308C67.4468 27.1304 67.1213 26.8048 66.7208 26.8048H51.5438V21.8215H53.6079C54.0084 21.8215 54.3339 21.496 54.3339 21.0956V17.7863C54.3339 17.3859 54.0084 17.0604 53.6079 17.0604H47.7773L47.7799 4.77673C47.7799 4.37631 47.4544 4.05078 47.054 4.05078H25.8476C25.4471 4.05078 25.1216 4.37628 25.1216 4.77673V17.0604H19.291C18.8906 17.0604 18.5651 17.3859 18.5651 17.7863V21.0956C18.5651 21.496 18.8906 21.8215 19.291 21.8215H21.3551V26.8048H6.1781C5.77768 26.8048 5.45215 27.1303 5.45215 27.5308V30.8401C5.45215 31.2405 5.77765 31.566 6.1781 31.566H8.33518V61.7262C6.687 62.0957 5.45215 63.5682 5.45215 65.3248C5.45215 65.7253 5.77765 66.0508 6.1781 66.0508H66.7241C67.1245 66.0508 67.45 65.7253 67.45 65.3248C67.45 63.5682 66.2152 62.0957 64.567 61.7262V31.566H66.7241H66.7208ZM65.9949 28.2567V30.1142H51.5434V28.2567H65.9949ZM26.5707 5.50281H46.3254V17.061H26.5707V5.50281ZM20.0167 18.5126H52.8844V20.37H20.0167V18.5126ZM50.0923 21.8219V61.6363H43.3757V47.6682C43.3757 47.2678 43.0502 46.9423 42.6498 46.9423H30.2524C29.852 46.9423 29.5264 47.2678 29.5264 47.6682V61.6363H22.8099L22.8073 21.8219H50.0923ZM30.9757 61.6363V48.3944H35.7239V61.6363H30.9757ZM37.1757 48.3944H41.9239V61.6363H37.1757V48.3944ZM6.90437 28.2573H21.3559V30.1148H6.90437V28.2573ZM21.3559 31.5666V61.6369H9.7878V31.5666H21.3559ZM65.8744 64.5997H7.02606C7.32831 63.7214 8.16276 63.0884 9.1418 63.0884H63.7616C64.7407 63.0884 65.5751 63.7213 65.8773 64.5997H65.8744ZM63.1128 61.6366H51.5447V31.5663H63.1128V61.6366Z" fill="#5C2D91"/>
<path d="M40.7198 9.09423H38.6377V7.01208C38.6377 6.61166 38.3122 6.28613 37.9117 6.28613H34.9874C34.587 6.28613 34.2614 6.61164 34.2614 7.01208V9.09423H32.1793C31.7789 9.09423 31.4533 9.41974 31.4533 9.82018V12.7471C31.4533 13.1475 31.7788 13.4731 32.1793 13.4731H34.2614V15.5552C34.2614 15.9556 34.5869 16.2812 34.9874 16.2812H37.9117C38.3122 16.2812 38.6377 15.9557 38.6377 15.5552V13.4731H40.7198C41.1203 13.4731 41.4458 13.1476 41.4458 12.7471V9.82018C41.4458 9.41976 41.1203 9.09423 40.7198 9.09423ZM39.9939 12.0212H37.9117C37.5113 12.0212 37.1858 12.3467 37.1858 12.7471V14.8293H35.7133V12.7471C35.7133 12.3467 35.3878 12.0212 34.9873 12.0212H32.9052V10.5461H34.9873C35.3877 10.5461 35.7133 10.2206 35.7133 9.82011V7.73796H37.1858V9.82011C37.1858 10.2205 37.5113 10.5461 37.9117 10.5461H39.9939V12.0212Z" fill="#5C2D91"/>
<path d="M25.1394 31.5658H28.4486C28.849 31.5658 29.1746 31.2403 29.1746 30.8399V27.5306C29.1746 27.1302 28.8491 26.8047 28.4486 26.8047H25.1394C24.7389 26.8047 24.4134 27.1302 24.4134 27.5306V30.8399C24.4134 31.2403 24.7389 31.5658 25.1394 31.5658ZM25.8653 28.2566H27.7227V30.114H25.8653V28.2566Z" fill="#5C2D91"/>
<path d="M25.1394 38.0043H28.4486C28.849 38.0043 29.1746 37.6788 29.1746 37.2784V33.9691C29.1746 33.5687 28.8491 33.2432 28.4486 33.2432H25.1394C24.7389 33.2432 24.4134 33.5687 24.4134 33.9691V37.2784C24.4134 37.6788 24.7389 38.0043 25.1394 38.0043ZM25.8653 34.6951H27.7227V36.5525H25.8653V34.6951Z" fill="#5C2D91"/>
<path d="M31.5748 31.5658H34.8841C35.2845 31.5658 35.61 31.2403 35.61 30.8399V27.5306C35.61 27.1302 35.2845 26.8047 34.8841 26.8047H31.5748C31.1744 26.8047 30.8488 27.1302 30.8488 27.5306V30.8399C30.8488 31.2403 31.1744 31.5658 31.5748 31.5658ZM32.3007 28.2566H34.1582V30.114H32.3007V28.2566Z" fill="#5C2D91"/>
<path d="M31.5748 38.0043H34.8841C35.2845 38.0043 35.61 37.6788 35.61 37.2784V33.9691C35.61 33.5687 35.2845 33.2432 34.8841 33.2432H31.5748C31.1744 33.2432 30.8488 33.5687 30.8488 33.9691V37.2784C30.8488 37.6788 31.1744 38.0043 31.5748 38.0043ZM32.3007 34.6951H34.1582V36.5525H32.3007V34.6951Z" fill="#5C2D91"/>
<path d="M38.0149 31.5658H41.3242C41.7246 31.5658 42.0501 31.2403 42.0501 30.8399V27.5306C42.0501 27.1302 41.7246 26.8047 41.3242 26.8047H38.0149C37.6145 26.8047 37.289 27.1302 37.289 27.5306V30.8399C37.289 31.2403 37.6145 31.5658 38.0149 31.5658ZM38.7409 28.2566H40.5983V30.114H38.7409V28.2566Z" fill="#5C2D91"/>
<path d="M38.0149 38.0043H41.3242C41.7246 38.0043 42.0501 37.6788 42.0501 37.2784V33.9691C42.0501 33.5687 41.7246 33.2432 41.3242 33.2432H38.0149C37.6145 33.2432 37.289 33.5687 37.289 33.9691V37.2784C37.289 37.6788 37.6145 38.0043 38.0149 38.0043ZM38.7409 34.6951H40.5983V36.5525H38.7409V34.6951Z" fill="#5C2D91"/>
<path d="M44.4503 31.5658H47.7596C48.16 31.5658 48.4856 31.2403 48.4856 30.8399V27.5306C48.4856 27.1302 48.16 26.8047 47.7596 26.8047H44.4503C44.0499 26.8047 43.7244 27.1302 43.7244 27.5306V30.8399C43.7244 31.2403 44.0499 31.5658 44.4503 31.5658ZM45.1763 28.2566H47.0337V30.114H45.1763V28.2566Z" fill="#5C2D91"/>
<path d="M44.4503 38.0043H47.7596C48.16 38.0043 48.4856 37.6788 48.4856 37.2784V33.9691C48.4856 33.5687 48.16 33.2432 47.7596 33.2432H44.4503C44.0499 33.2432 43.7244 33.5687 43.7244 33.9691V37.2784C43.7244 37.6788 44.0499 38.0043 44.4503 38.0043ZM45.1763 34.6951H47.0337V36.5525H45.1763V34.6951Z" fill="#5C2D91"/>
<path d="M25.1394 44.4389H28.4486C28.849 44.4389 29.1746 44.1134 29.1746 43.7129V40.4037C29.1746 40.0033 28.8491 39.6777 28.4486 39.6777H25.1394C24.7389 39.6777 24.4134 40.0032 24.4134 40.4037V43.7129C24.4134 44.1134 24.7389 44.4389 25.1394 44.4389ZM25.8653 41.1296H27.7227V42.9871H25.8653V41.1296Z" fill="#5C2D91"/>
<path d="M31.5748 44.4389H34.8841C35.2845 44.4389 35.61 44.1134 35.61 43.7129V40.4037C35.61 40.0033 35.2845 39.6777 34.8841 39.6777H31.5748C31.1744 39.6777 30.8488 40.0032 30.8488 40.4037V43.7129C30.8488 44.1134 31.1744 44.4389 31.5748 44.4389ZM32.3007 41.1296H34.1582V42.9871H32.3007V41.1296Z" fill="#5C2D91"/>
<path d="M38.0149 44.4389H41.3242C41.7246 44.4389 42.0501 44.1134 42.0501 43.7129V40.4037C42.0501 40.0033 41.7246 39.6777 41.3242 39.6777H38.0149C37.6145 39.6777 37.289 40.0032 37.289 40.4037V43.7129C37.289 44.1134 37.6145 44.4389 38.0149 44.4389ZM38.7409 41.1296H40.5983V42.9871H38.7409V41.1296Z" fill="#5C2D91"/>
<path d="M44.4503 44.4389H47.7596C48.16 44.4389 48.4856 44.1134 48.4856 43.7129V40.4037C48.4856 40.0033 48.16 39.6777 47.7596 39.6777H44.4503C44.0499 39.6777 43.7244 40.0032 43.7244 40.4037V43.7129C43.7244 44.1134 44.0499 44.4389 44.4503 44.4389ZM45.1763 41.1296H47.0337V42.9871H45.1763V41.1296Z" fill="#5C2D91"/>
<path d="M13.9178 38.0043H17.227C17.6275 38.0043 17.953 37.6788 17.953 37.2784V33.9691C17.953 33.5687 17.6275 33.2432 17.227 33.2432H13.9178C13.5174 33.2432 13.1918 33.5687 13.1918 33.9691V37.2784C13.1918 37.6788 13.5173 38.0043 13.9178 38.0043ZM14.6437 34.6951H16.5012V36.5525H14.6437V34.6951Z" fill="#5C2D91"/>
<path d="M13.9178 44.4389H17.227C17.6275 44.4389 17.953 44.1134 17.953 43.7129V40.4037C17.953 40.0033 17.6275 39.6777 17.227 39.6777H13.9178C13.5174 39.6777 13.1918 40.0032 13.1918 40.4037V43.7129C13.1918 44.1134 13.5173 44.4389 13.9178 44.4389ZM14.6437 41.1296H16.5012V42.9871H14.6437V41.1296Z" fill="#5C2D91"/>
<path d="M13.9178 50.8774H17.227C17.6275 50.8774 17.953 50.5519 17.953 50.1514V46.8422C17.953 46.4417 17.6275 46.1162 17.227 46.1162H13.9178C13.5174 46.1162 13.1918 46.4417 13.1918 46.8422V50.1514C13.1918 50.5518 13.5173 50.8774 13.9178 50.8774ZM14.6437 47.5681H16.5012V49.4255H14.6437V47.5681Z" fill="#5C2D91"/>
<path d="M13.9178 57.3149H17.227C17.6275 57.3149 17.953 56.9894 17.953 56.5889V53.2797C17.953 52.8792 17.6275 52.5537 17.227 52.5537H13.9178C13.5174 52.5537 13.1918 52.8792 13.1918 53.2797V56.5889C13.1918 56.9893 13.5173 57.3149 13.9178 57.3149ZM14.6437 54.0056H16.5012V55.863H14.6437V54.0056Z" fill="#5C2D91"/>
<path d="M55.6719 38.0043H58.9812C59.3816 38.0043 59.7071 37.6788 59.7071 37.2784V33.9691C59.7071 33.5687 59.3816 33.2432 58.9812 33.2432H55.6719C55.2715 33.2432 54.946 33.5687 54.946 33.9691V37.2784C54.946 37.6788 55.2715 38.0043 55.6719 38.0043ZM56.3978 34.6951H58.2553V36.5525H56.3978V34.6951Z" fill="#5C2D91"/>
<path d="M55.6719 44.4389H58.9812C59.3816 44.4389 59.7071 44.1134 59.7071 43.7129V40.4037C59.7071 40.0033 59.3816 39.6777 58.9812 39.6777H55.6719C55.2715 39.6777 54.946 40.0032 54.946 40.4037V43.7129C54.946 44.1134 55.2715 44.4389 55.6719 44.4389ZM56.3978 41.1296H58.2553V42.9871H56.3978V41.1296Z" fill="#5C2D91"/>
<path d="M55.6719 50.8774H58.9812C59.3816 50.8774 59.7071 50.5519 59.7071 50.1514V46.8422C59.7071 46.4417 59.3816 46.1162 58.9812 46.1162H55.6719C55.2715 46.1162 54.946 46.4417 54.946 46.8422V50.1514C54.946 50.5518 55.2715 50.8774 55.6719 50.8774ZM56.3978 47.5681H58.2553V49.4255H56.3978V47.5681Z" fill="#5C2D91"/>
<path d="M55.6719 57.3149H58.9812C59.3816 57.3149 59.7071 56.9894 59.7071 56.5889V53.2797C59.7071 52.8792 59.3816 52.5537 58.9812 52.5537H55.6719C55.2715 52.5537 54.946 52.8792 54.946 53.2797V56.5889C54.946 56.9893 55.2715 57.3149 55.6719 57.3149ZM56.3978 54.0056H58.2553V55.863H56.3978V54.0056Z" fill="#5C2D91"/>
</svg>
