<svg width="47" height="47" viewBox="0 0 47 47" fill="none" xmlns="http://www.w3.org/2000/svg">
<path d="M23.3726 31.6268L25.1396 29.8597L19.7501 24.4702H32.3552V21.9037H19.7501L25.1396 16.5142L23.3726 14.7472L14.9328 23.187L23.3726 31.6268ZM23.381 46.2851C20.187 46.2851 17.1841 45.6789 14.3721 44.4667C11.5605 43.2545 9.11469 41.6094 7.03458 39.5314C4.95447 37.4535 3.30787 35.0098 2.09479 32.2004C0.881289 29.3914 0.274536 26.3897 0.274536 23.1953C0.274536 20.0013 0.880647 16.9984 2.09287 14.1864C3.30509 11.3749 4.95019 8.92902 7.02816 6.84891C9.10614 4.7688 11.5498 3.1222 14.3592 1.90913C17.1682 0.69562 20.1699 0.0888672 23.3643 0.0888672C26.5582 0.0888672 29.5612 0.69498 32.3732 1.9072C35.1847 3.11942 37.6306 4.76452 39.7107 6.84249C41.7908 8.92047 43.4374 11.3642 44.6505 14.1736C45.864 16.9826 46.4707 19.9842 46.4707 23.1786C46.4707 26.3726 45.8646 29.3755 44.6524 32.1875C43.4402 34.9991 41.7951 37.4449 39.7171 39.525C37.6391 41.6051 35.1954 43.2517 32.386 44.4648C29.577 45.6783 26.5754 46.2851 23.381 46.2851ZM23.3726 43.7186C29.1044 43.7186 33.9593 41.7296 37.9373 37.7516C41.9153 33.7736 43.9043 28.9187 43.9043 23.187C43.9043 17.4552 41.9153 12.6003 37.9373 8.62233C33.9593 4.64432 29.1044 2.65532 23.3726 2.65532C17.6409 2.65532 12.786 4.64432 8.808 8.62233C4.82999 12.6003 2.84099 17.4552 2.84099 23.187C2.84099 28.9187 4.82999 33.7736 8.808 37.7516C12.786 41.7296 17.6409 43.7186 23.3726 43.7186Z" fill="#1C1C1C"/>
</svg>
