<svg width="46" height="61" viewBox="0 0 46 61" fill="none" xmlns="http://www.w3.org/2000/svg">
<path d="M41.5902 32.2676C43.9308 32.2676 45.8343 34.1711 45.8343 36.5105C45.8343 38.8511 43.9308 40.7546 41.5902 40.7546H31.9341V32.2676H41.5902Z" fill="#FFCD00"/>
<path d="M36.9813 22.5312C39.3207 22.5312 41.2242 24.4347 41.2242 26.7754C41.2242 29.1148 39.3207 31.0183 36.9813 31.0183H31.9341V22.5312H36.9813Z" fill="#FFCD00"/>
<path d="M36.9813 42.0039C39.3207 42.0039 41.2242 43.9074 41.2242 46.2468C41.2242 48.5862 39.3207 50.4909 36.9813 50.4909H31.9341V42.0039H36.9813Z" fill="#FFCD00"/>
<path d="M31.9341 51.7402C34.2747 51.7402 36.1782 53.6437 36.1782 55.9831C36.1782 58.3225 34.2747 60.226 31.9341 60.226V51.7402Z" fill="#FFCD00"/>
<path d="M18.4635 22.5317V21.5275L18.6246 21.3489C22.8288 16.7113 25.1445 10.716 25.1445 4.46848C25.1445 2.12908 23.241 0.225586 20.9003 0.225586C18.5609 0.225586 16.6575 2.12908 16.6575 4.46848C16.6575 10.5499 13.2601 16.1842 7.79197 19.1743C3.01825 21.7835 0.0531006 26.9182 0.0531006 32.575V44.7166C0.0531006 53.2686 7.01134 60.2256 15.5621 60.2256H31.9341V22.5317H18.4635Z" fill="#FFDA44"/>
</svg>
