<svg width="67" height="64" viewBox="0 0 67 64" fill="none" xmlns="http://www.w3.org/2000/svg">
<circle cx="24.5829" cy="24.539" r="23.957" fill="#EAD9FD"/>
<path fill-rule="evenodd" clip-rule="evenodd" d="M56.7165 52.1982C56.5349 52.1982 56.3532 52.1255 56.2079 51.9802C55.9173 51.6896 55.9173 51.2536 56.2079 50.963C59.5501 47.5845 62.0204 43.4455 63.2896 38.9046C63.3985 38.505 63.7981 38.287 64.1977 38.396C64.5973 38.505 64.8153 38.9046 64.7063 39.3042C63.3258 44.0632 60.7829 48.4567 57.2613 51.9801C57.116 52.1254 56.9345 52.1982 56.7165 52.1982ZM16.3265 52.1982C16.1449 52.1982 15.9632 52.1255 15.8179 51.9802C12.2941 48.4564 9.71476 44.0628 8.37295 39.3043C8.26397 38.9047 8.48193 38.505 8.88154 38.3961C9.24483 38.2871 9.64445 38.5051 9.75339 38.9047C11.0612 43.4457 13.4952 47.5847 16.835 50.9631C17.1257 51.2537 17.1257 51.6897 16.835 51.9803C16.6897 52.1256 16.5082 52.1982 16.3265 52.1982ZM63.9792 24.2305C63.6886 24.2305 63.3979 24.0489 63.2889 23.7219C60.31 13.1894 51.4122 5.34201 40.5888 3.78271C40.1892 3.74638 39.8986 3.34677 39.9713 2.94713C40.0076 2.58385 40.4072 2.29322 40.7705 2.36588C52.1754 4.00064 61.5455 12.245 64.7056 23.3225C64.8146 23.7221 64.5603 24.1218 64.1971 24.2307L63.9792 24.2305ZM9.06072 24.2305H8.87908C8.47947 24.1216 8.2615 23.7219 8.37049 23.3224C11.4947 12.2448 20.9013 4.00064 32.2697 2.3657C32.6693 2.29304 33.0326 2.58367 33.1052 2.94695C33.1779 3.34656 32.8873 3.7462 32.4877 3.78253C21.6643 5.34462 12.7661 13.1892 9.75099 23.7218C9.67833 24.0487 9.38769 24.2305 9.06072 24.2305Z" fill="#5C2D91"/>
<path fill-rule="evenodd" clip-rule="evenodd" d="M54.7914 47.3306C54.6098 47.3306 54.4645 47.2943 54.3192 47.1853C54.0285 46.931 53.9922 46.4587 54.2465 46.1682C57.734 41.9904 59.6231 36.7255 59.6231 31.3123C59.6231 20.5255 52.3238 11.2639 41.8247 8.82982C41.4251 8.72084 41.2072 8.32123 41.2798 7.95798C41.3888 7.55837 41.7521 7.30406 42.1516 7.41305C53.3018 10.0287 61.0741 19.8348 61.0741 31.3122C61.0741 37.0884 59.0397 42.6806 55.3342 47.0764C55.1889 47.258 55.0073 47.3307 54.7893 47.3307L54.7914 47.3306ZM18.2889 47.3306C18.0709 47.3306 17.8529 47.258 17.7076 47.0763C14.0021 42.6807 11.9678 37.0887 11.9678 31.3122C11.9678 19.8347 19.7761 10.0288 30.8902 7.41301C31.2898 7.30402 31.6895 7.55832 31.7621 7.95793C31.871 8.32122 31.6167 8.72084 31.2535 8.82978C20.7568 11.2638 13.4185 20.5249 13.4185 31.3123C13.4185 36.7252 15.3439 41.9905 18.8314 46.1681C19.0857 46.4587 19.0494 46.931 18.7588 47.1853C18.6135 47.2943 18.4318 47.3306 18.2865 47.3306L18.2889 47.3306Z" fill="#5C2D91"/>
<path fill-rule="evenodd" clip-rule="evenodd" d="M64.0525 39.8131H59.0755C58.6396 39.8131 58.3489 39.4862 58.3489 39.0865C58.3489 38.6869 58.6396 38.36 59.0755 38.36H64.0525C64.561 38.36 64.997 37.924 64.997 37.4154V25.2113C64.997 24.6664 64.561 24.2305 64.0525 24.2305H59.0755C58.6396 24.2305 58.3489 23.9036 58.3489 23.5039C58.3489 23.1043 58.6396 22.7773 59.0755 22.7773H64.0525C65.3603 22.7773 66.4501 23.8672 66.4501 25.2113V37.4154C66.4501 38.7233 65.3603 39.8131 64.0525 39.8131Z" fill="#5C2D91"/>
<path fill-rule="evenodd" clip-rule="evenodd" d="M14.0016 39.8131H9.02462C7.68046 39.8131 6.62695 38.7233 6.62695 37.4154V25.2113C6.62695 23.8672 7.68046 22.7773 9.02462 22.7773H14.0016C14.4012 22.7773 14.7281 23.1043 14.7281 23.5039C14.7281 23.9036 14.4012 24.2305 14.0016 24.2305H9.02462C8.4797 24.2305 8.04378 24.6664 8.04378 25.2113V37.4154C8.04378 37.924 8.47972 38.36 9.02462 38.36H14.0016C14.4012 38.36 14.7281 38.6869 14.7281 39.0865C14.7281 39.4862 14.4012 39.8131 14.0016 39.8131Z" fill="#5C2D91"/>
<path fill-rule="evenodd" clip-rule="evenodd" d="M39.4632 13.2257H33.5781C32.3792 13.2257 31.1441 12.6444 30.4538 11.7363C29.9452 11.046 29.7636 10.2831 29.9452 9.48392L31.9433 1.96641C32.016 1.63946 32.2703 1.42148 32.5972 1.42148C35.1765 1.27617 37.8648 1.27617 40.4781 1.42148C40.805 1.42148 41.0593 1.63945 41.132 1.96641L43.0937 9.48392C43.3117 10.2832 43.13 11.046 42.6214 11.7363C41.8949 12.6444 40.6597 13.2257 39.4609 13.2257H39.4632ZM33.2173 2.83819L31.3646 9.88326C31.2919 10.2102 31.3646 10.5372 31.6189 10.8641C32.0185 11.409 32.8541 11.7723 33.5806 11.7723H39.4658C40.2287 11.7723 41.0279 11.409 41.4639 10.8641C41.7182 10.5372 41.7908 10.2102 41.7182 9.88326L39.8654 2.83819C37.6494 2.72921 35.3971 2.72921 33.2197 2.83819H33.2173Z" fill="#5C2D91"/>
<path fill-rule="evenodd" clip-rule="evenodd" d="M56.7166 63.3122H16.3266C15.927 63.3122 15.6 62.9853 15.6 62.5856V50.999C15.6 50.5994 15.927 50.2725 16.3266 50.2725H56.7166C57.1162 50.2725 57.4432 50.5994 57.4432 50.999V62.5856C57.4432 62.9852 57.1162 63.3122 56.7166 63.3122ZM17.0533 61.859H55.9899V51.7257H17.0533V61.859Z" fill="#5C2D91"/>
<path fill-rule="evenodd" clip-rule="evenodd" d="M56.7165 51.7263H16.3265C16.0722 51.7263 15.8543 51.6174 15.7089 51.3994C15.6 51.2177 15.5636 50.9271 15.6726 50.7091L25.1518 29.2807C25.2608 29.0264 25.5151 28.8447 25.8057 28.8447H47.2342C47.5248 28.8447 47.7791 29.0264 47.9245 29.2807L57.4037 50.7091C57.4763 50.9271 57.4763 51.2177 57.331 51.3994C57.222 51.6174 56.9677 51.7263 56.7134 51.7263H56.7165ZM17.4531 50.2732H55.6265L46.7649 30.2974H26.2806L17.4555 50.2732H17.4531Z" fill="#5C2D91"/>
<path fill-rule="evenodd" clip-rule="evenodd" d="M44.3309 30.2977H28.7124C28.3128 30.2977 27.9858 29.9707 27.9858 29.5711V26.6285C27.9858 24.9574 29.3663 23.6133 31.0011 23.6133H42.0787C43.7134 23.6133 45.0576 24.9574 45.0576 26.6285V29.5711C45.0576 29.9707 44.7305 30.2977 44.3309 30.2977ZM29.4384 28.8445H43.6042V26.6285C43.6042 25.7567 42.914 25.0664 42.0785 25.0664H31.0009C30.1653 25.0664 29.4388 25.7567 29.4388 26.6285L29.4384 28.8445Z" fill="#5C2D91"/>
<path fill-rule="evenodd" clip-rule="evenodd" d="M50.2141 37.0156C50.1414 37.0156 50.0688 36.9793 49.9961 36.9793C49.5965 36.834 49.4149 36.4344 49.5238 36.0348C49.9961 34.6179 50.2504 33.1285 50.2504 31.6028C50.2504 24.0487 44.111 17.9094 36.5205 17.9094C28.9664 17.9094 22.7906 24.0488 22.7906 31.6028C22.7906 33.1285 23.0449 34.618 23.5535 36.0348C23.6625 36.4344 23.4808 36.834 23.0812 36.9793C22.7179 37.0883 22.282 36.9066 22.173 36.507C21.6281 34.9449 21.3375 33.3102 21.3375 31.6027C21.3375 23.2494 28.1649 16.4561 36.5201 16.4561C44.9093 16.4561 51.7026 23.2469 51.7026 31.6027C51.7026 33.3101 51.4483 34.9449 50.9034 36.507C50.7944 36.834 50.5038 37.0156 50.2131 37.0156L50.2141 37.0156Z" fill="#5C2D91"/>
<path fill-rule="evenodd" clip-rule="evenodd" d="M16.9807 32.6919C16.5811 32.6556 16.2541 32.3287 16.2541 31.929C16.3267 26.1529 18.9424 20.7058 23.4083 16.9281C23.7352 16.6738 24.1712 16.7101 24.4618 17.0371C24.7161 17.3277 24.6434 17.8 24.3528 18.0543C20.2114 21.5418 17.7796 26.5892 17.707 31.9659C17.707 32.3655 17.3803 32.6919 16.9807 32.6919ZM56.099 32.6919C55.6994 32.6919 55.3724 32.365 55.3724 31.9654C55.2998 26.5888 52.8658 21.5419 48.7267 18.0538C48.3997 17.7995 48.3634 17.3272 48.6177 17.0366C48.872 16.7097 49.3442 16.6733 49.6348 16.9276C54.1395 20.7058 56.7165 26.1526 56.8256 31.9286C56.8256 32.3282 56.4986 32.6556 56.099 32.6919Z" fill="#5C2D91"/>
<path fill-rule="evenodd" clip-rule="evenodd" d="M47.8183 51.7256H25.2632C25.0453 51.7256 24.8273 51.653 24.682 51.4713C24.5367 51.2897 24.5003 51.0717 24.5367 50.8537L29.8406 29.3887C29.9132 29.098 30.2039 28.8438 30.5672 28.8438H42.5164C42.8434 28.8438 43.134 29.098 43.2067 29.3887L48.5106 50.8537C48.5833 51.0717 48.5106 51.2897 48.4016 51.4713C48.2563 51.653 48.0384 51.7256 47.8204 51.7256H47.8183ZM26.1715 50.2725H46.874L41.9333 30.2966H31.11L26.1693 50.2725H26.1715Z" fill="#5C2D91"/>
</svg>
