<svg width="47" height="47" viewBox="0 0 47 47" fill="none" xmlns="http://www.w3.org/2000/svg">
<path d="M23.3412 32.032L21.5742 30.265L26.9638 24.8755H14.3586V22.309H26.9638L21.5742 16.9195L23.3412 15.1524L31.781 23.5922L23.3412 32.032ZM23.3329 46.6903C26.5268 46.6903 29.5298 46.0842 32.3418 44.872C35.1533 43.6598 37.5992 42.0147 39.6793 39.9367C41.7594 37.8587 43.406 35.415 44.6191 32.6056C45.8326 29.7966 46.4393 26.795 46.4393 23.6006C46.4393 20.4066 45.8332 17.4037 44.621 14.5917C43.4088 11.7801 41.7637 9.33429 39.6857 7.25418C37.6077 5.17407 35.164 3.52748 32.3546 2.3144C29.5456 1.10089 26.544 0.494141 23.3496 0.494141C20.1556 0.494141 17.1527 1.10025 14.3407 2.31248C11.5291 3.5247 9.0833 5.16979 7.00319 7.24777C4.92307 9.32574 3.27648 11.7694 2.0634 14.5788C0.849895 17.3878 0.243141 20.3895 0.243141 23.5839C0.243141 26.7778 0.849255 29.7808 2.06148 32.5928C3.2737 35.4043 4.9188 37.8502 6.99677 39.9303C9.07474 42.0104 11.5184 43.657 14.3278 44.8701C17.1368 46.0836 20.1385 46.6903 23.3329 46.6903ZM23.3412 44.1239C17.6095 44.1239 12.7546 42.1349 8.7766 38.1569C4.7986 34.1789 2.8096 29.324 2.8096 23.5922C2.8096 17.8605 4.7986 13.0056 8.7766 9.0276C12.7546 5.0496 17.6095 3.0606 23.3412 3.0606C29.073 3.0606 33.9279 5.0496 37.9059 9.0276C41.8839 13.0056 43.8729 17.8605 43.8729 23.5922C43.8729 29.324 41.8839 34.1789 37.9059 38.1569C33.9279 42.1349 29.073 44.1239 23.3412 44.1239Z" fill="#1C1C1C"/>
</svg>
