<?xml version="1.0" encoding="UTF-8"?>
<svg id="Layer_1" data-name="Layer 1" xmlns="http://www.w3.org/2000/svg" xmlns:xlink="http://www.w3.org/1999/xlink" viewBox="0 0 238.454 238.454">
  <defs>
    <style>
      .cls-1 {
        font-family: Inter-Bold, Inter;
        font-size: 36px;
        font-weight: 700;
      }

      .cls-1, .cls-2 {
        fill: #fff;
      }

      .cls-3 {
        fill: #f7941d;
      }

      .cls-4 {
        mask: url(#mask);
      }

      .cls-5, .cls-6 {
        fill: #46226d;
      }

      .cls-6 {
        stroke: #f7941d;
        stroke-dasharray: 5 5;
        stroke-width: 2px;
      }

      .cls-7 {
        isolation: isolate;
        opacity: .8;
      }

      .cls-7, .cls-8 {
        fill: #d9d9d9;
      }
    </style>
    <mask id="mask" x="10.524" y="10.524" width="217.4063" height="217.406" maskUnits="userSpaceOnUse">
      <g id="mask0_295_514" data-name="mask0 295 514">
        <rect class="cls-8" x="10.5243" y="149.946" width="217.406" height="43.3288"/>
      </g>
    </mask>
  </defs>
  <circle class="cls-5" cx="119.227" cy="119.227" r="119.227"/>
  <circle class="cls-6" cx="119.227" cy="119.227" r="107.703"/>
  <path class="cls-2" d="M56.539,79.0775v-24.3h6.69c1.64,0,3.06.18,4.26.54,1.2.36,2.13,1.01,2.79,1.95.68.92,1.02,2.23,1.02,3.93,0,1-.08,1.89-.24,2.67-.16.78-.46,1.46-.9,2.04-.42.56-1.03,1.03-1.83,1.41l3.33,11.76h-5.55l-2.67-10.89h-1.53v10.89h-5.37ZM61.909,65.0975h1.5c.76,0,1.35-.13,1.77-.39.42-.28.71-.67.87-1.17.18-.52.27-1.14.27-1.86,0-1.04-.19-1.85-.57-2.43s-1.08-.87-2.1-.87h-1.74v6.72ZM71.8573,79.0775l4.59-24.3h6.12l4.5297,24.3h-4.9497l-.81-5.13h-3.57l-.84,5.13h-5.07ZM78.2473,70.7375h2.58l-1.29-9.48-1.29,9.48ZM88.051,79.0775v-24.3h6.15c2.12,0,3.77.27,4.95.81,1.18.52,2.01,1.35,2.49,2.49.48,1.12.72,2.58.72,4.38v8.82c0,1.82-.24,3.31-.72,4.47-.48,1.14-1.31,1.98-2.49,2.52-1.16.54-2.79.81-4.89.81h-6.21ZM93.421,75.3575h.84c.82,0,1.41-.12,1.77-.36s.58-.6.66-1.08c.1-.48.15-1.08.15-1.8v-10.59c0-.72-.06-1.3-.18-1.74-.1-.44-.33-.76-.69-.96s-.94-.3-1.74-.3h-.81v16.83ZM104.159,79.0775v-24.3h5.37v24.3h-5.37ZM118.612,79.4375c-1.82,0-3.26-.32-4.32-.96s-1.82-1.56-2.28-2.76-.69-2.63-.69-4.29v-9.03c0-1.68.23-3.11.69-4.29s1.22-2.08,2.28-2.7c1.06-.64,2.5-.96,4.32-.96,1.84,0,3.29.32,4.35.96,1.08.62,1.85,1.52,2.31,2.7.46,1.18.69,2.61.69,4.29v9.03c0,1.66-.23,3.09-.69,4.29-.46,1.2-1.23,2.12-2.31,2.76-1.06.64-2.51.96-4.35.96ZM118.612,75.6275c.56,0,.97-.14,1.23-.42.26-.28.43-.64.51-1.08.08-.44.12-.89.12-1.35v-11.7c0-.48-.04-.93-.12-1.35-.08-.44-.25-.8-.51-1.08-.26-.28-.67-.42-1.23-.42-.52,0-.91.14-1.17.42-.26.28-.43.64-.51,1.08-.08.42-.12.87-.12,1.35v11.7c0,.46.03.91.09,1.35.08.44.24.8.48,1.08.26.28.67.42,1.23.42ZM127.73,79.0775v-24.3h5.37v20.67h5.58v3.63h-10.95ZM146.11,79.4375c-1.82,0-3.26-.32-4.32-.96s-1.82-1.56-2.28-2.76c-.46-1.2-.69-2.63-.69-4.29v-9.03c0-1.68.23-3.11.69-4.29.46-1.18,1.22-2.08,2.28-2.7,1.06-.64,2.5-.96,4.32-.96,1.84,0,3.29.32,4.35.96,1.08.62,1.85,1.52,2.31,2.7.46,1.18.69,2.61.69,4.29v9.03c0,1.66-.23,3.09-.69,4.29-.46,1.2-1.23,2.12-2.31,2.76-1.06.64-2.51.96-4.35.96ZM146.11,75.6275c.56,0,.97-.14,1.23-.42.26-.28.43-.64.51-1.08.08-.44.12-.89.12-1.35v-11.7c0-.48-.04-.93-.12-1.35-.08-.44-.25-.8-.51-1.08-.26-.28-.67-.42-1.23-.42-.52,0-.91.14-1.17.42-.26.28-.43.64-.51,1.08-.08.42-.12.87-.12,1.35v11.7c0,.46.03.91.09,1.35.08.44.24.8.48,1.08.26.28.67.42,1.23.42ZM161.558,79.4375c-1.68,0-3.01-.35-3.99-1.05-.96-.7-1.65-1.68-2.07-2.94-.4-1.28-.6-2.75-.6-4.41v-8.16c0-1.72.22-3.21.66-4.47.44-1.26,1.19-2.23,2.25-2.91,1.08-.7,2.54-1.05,4.38-1.05,1.8,0,3.21.3,4.23.9,1.04.6,1.78,1.43,2.22,2.49.44,1.06.66,2.3.66,3.72v1.56h-5.25v-1.98c0-.52-.04-1-.12-1.44-.06-.44-.22-.79-.48-1.05-.24-.28-.64-.42-1.2-.42-.58,0-1,.16-1.26.48-.26.3-.43.68-.51,1.14-.06.46-.09.94-.09,1.44v11.25c0,.54.05,1.05.15,1.53.12.46.32.84.6,1.14.3.28.72.42,1.26.42.56,0,.99-.15,1.29-.45.3-.3.51-.69.63-1.17.12-.48.18-.99.18-1.53v-2.85h-2.19v-3.15h7.02v12.6h-3.54l-.3-2.01c-.32.68-.79,1.25-1.41,1.71-.62.44-1.46.66-2.52.66ZM173.781,79.0775v-9.93l-4.62-14.37h5.07l2.31,7.68,2.07-7.68h4.86l-4.53,14.37v9.93h-5.16ZM96.9,109.438c-1.52,0-2.79-.27-3.81-.81-1.02-.54-1.79-1.37-2.31-2.49-.52-1.14-.81-2.61-.87-4.41l4.59-.69c.02,1.04.11,1.88.27,2.52.18.64.42,1.1.72,1.38.32.28.7.42,1.14.42.56,0,.92-.19,1.08-.57.18-.38.27-.78.27-1.2,0-1-.24-1.84-.72-2.52-.48-.7-1.13-1.4-1.95-2.1l-2.1-1.83c-.92-.78-1.7-1.66-2.34-2.64-.62-1-.93-2.23-.93-3.69,0-2.06.61-3.63,1.83-4.71,1.22-1.1,2.88-1.6505,4.98-1.6505,1.3,0,2.34.22,3.12.6605.8.44,1.4,1.02,1.8,1.74.42.7.7,1.45.84,2.25.16.78.25,1.53.27,2.25l-4.62.57c-.02-.72-.07-1.34-.15-1.86-.06-.54-.2-.95-.42-1.23-.22-.3-.56-.45-1.02-.45-.5,0-.87.21-1.11.63-.22.42-.33.84-.33,1.26,0,.9.21,1.64.63,2.22.44.56,1.01,1.15,1.71,1.77l2.01,1.77c1.06.9,1.95,1.92,2.67,3.06.74,1.14,1.11,2.55,1.11,4.23,0,1.14-.26,2.18-.78,3.12-.52.92-1.26,1.65-2.22,2.19-.94.54-2.06.81-3.36.81ZM111.32,109.438c-1.84,0-3.3-.33-4.38-.99-1.06-.68-1.81-1.62-2.25-2.82-.44-1.22-.66-2.65-.66-4.29v-8.76c0-1.68.22-3.12.66-4.32.44-1.22,1.19-2.16,2.25-2.82,1.08-.66,2.54-.9905,4.38-.9905,1.8,0,3.2.3,4.2.9005,1.02.58,1.74,1.4,2.16,2.46s.63,2.28.63,3.66v2.1h-5.25v-2.43c0-.48-.03-.94-.09-1.38-.04-.44-.18-.8-.42-1.08-.24-.3-.65-.45-1.23-.45-.56,0-.98.15-1.26.45-.26.3-.43.68-.51,1.14-.06.44-.09.91-.09,1.41v11.43c0,.54.04,1.04.12,1.5.1.44.28.8.54,1.08.28.26.68.39,1.2.39.56,0,.96-.14,1.2-.42.24-.3.39-.68.45-1.14.06-.46.09-.93.09-1.41v-2.55h5.25v2.1c0,1.38-.21,2.62-.63,3.72-.4,1.08-1.11,1.94-2.13,2.58-1,.62-2.41.93-4.23.93ZM118.595,109.078l4.59-24.3h6.12l4.53,24.3h-4.95l-.81-5.13h-3.57l-.84,5.13h-5.07ZM124.985,100.738h2.58l-1.29-9.48-1.29,9.48ZM134.788,109.078v-24.3h3.78l4.98,11.7v-11.7h4.44v24.3h-3.63l-4.98-12.6v12.6h-4.59Z"/>
  <path class="cls-2" d="M64.6123,128.078c-.0629-.589-.3283-1.048-.7961-1.376-.4633-.328-1.0661-.492-1.8083-.492-.5217,0-.9693.078-1.3427.236-.3733.157-.6589.371-.8568.641-.198.27-.2992.578-.3037.924,0,.288.0653.538.1957.749.1349.211.3171.391.5465.54.2294.144.4836.265.7625.364.2788.099.56.182.8433.25l1.2955.324c.5218.121,1.0233.285,1.5046.492.4858.207.9199.468,1.3022.783.3869.315.6927.695.9176,1.14.2249.445.3374.967.3374,1.565,0,.81-.2069,1.523-.6207,2.139-.4139.612-1.0121,1.091-1.7948,1.437-.7782.342-1.7205.513-2.827.513-1.0751,0-2.0085-.166-2.8001-.499-.7872-.333-1.4034-.819-1.8487-1.457-.4409-.639-.6793-1.417-.7152-2.335h2.4627c.036.481.1844.882.4453,1.201.2609.319.6005.558,1.0188.715.4228.158.8951.236,1.4169.236.5443,0,1.0211-.081,1.4304-.243.4138-.166.7377-.395.9716-.688.2339-.297.3531-.643.3576-1.039-.0045-.36-.1102-.657-.3171-.89-.2069-.239-.4971-.437-.8704-.594-.3688-.162-.8007-.306-1.2955-.432l-1.572-.405c-1.1381-.292-2.0377-.735-2.6989-1.329-.6567-.598-.9851-1.392-.9851-2.382,0-.814.2204-1.527.6612-2.139.4453-.611,1.0503-1.086,1.815-1.423.7647-.342,1.6306-.513,2.5977-.513.9806,0,1.8397.171,2.5774.513.7422.337,1.3247.807,1.7475,1.41.4228.598.641,1.286.6545,2.064h-2.4088ZM74.5087,127.734v1.89h-5.9577v-1.89h5.9577ZM70.0219,125.251h2.4424v9.73c0,.328.0495.58.1485.756.1034.17.2384.287.4048.35.1664.063.3509.095.5533.095.1529,0,.2924-.011.4183-.034.1304-.022.2294-.043.2969-.061l.4116,1.91c-.1305.045-.3172.094-.5601.148-.2384.054-.5307.086-.8771.095-.6117.018-1.1628-.074-1.653-.277-.4903-.207-.8794-.526-1.1673-.958-.2834-.432-.4228-.972-.4183-1.619v-10.135ZM79.5337,138.307c-.6567,0-1.2482-.117-1.7745-.351-.5218-.238-.9356-.589-1.2415-1.052-.3014-.464-.4521-1.035-.4521-1.714,0-.585.108-1.068.3239-1.451.2159-.382.5105-.688.8839-.917.3733-.23.7939-.403,1.2617-.52.4723-.121.9603-.209,1.4641-.263.6073-.063,1.0998-.119,1.4777-.169.3778-.054.6522-.135.8231-.242.1754-.113.2632-.286.2632-.52v-.041c0-.508-.1507-.901-.4521-1.18-.3014-.279-.7354-.419-1.3022-.419-.5983,0-1.0728.131-1.4237.392-.3463.261-.5802.569-.7017.924l-2.2805-.324c.1799-.629.4768-1.156.8906-1.579.4138-.427.9199-.746,1.5181-.958.5983-.216,1.2595-.324,1.9837-.324.4993,0,.9963.059,1.4911.176.4948.117.9469.31,1.3562.58.4093.266.7377.628.9851,1.086.2519.459.3778,1.033.3778,1.721v6.936h-2.348v-1.424h-.081c-.1484.288-.3576.558-.6274.81-.2654.247-.6005.448-1.0054.601-.4003.148-.8703.222-1.4101.222ZM80.1679,136.512c.4903,0,.9154-.096,1.2752-.29.3599-.198.6365-.458.8299-.782.1979-.324.2969-.677.2969-1.06v-1.221c-.0765.063-.2069.122-.3913.176-.18.054-.3824.101-.6073.141-.2249.041-.4475.077-.6679.108-.2205.032-.4116.059-.5736.081-.3643.05-.6904.131-.9783.243-.2879.112-.515.27-.6815.472-.1664.198-.2496.455-.2496.77,0,.449.1642.789.4925,1.018.3284.23.7467.344,1.255.344ZM87.462,138.098v-10.364h2.368v1.728h.108c.189-.599.513-1.06.971-1.384.464-.328.992-.492,1.586-.492.135,0,.286.007.452.02.171.009.313.025.425.047v2.247c-.103-.036-.268-.067-.492-.094-.221-.032-.435-.047-.641-.047-.446,0-.846.096-1.201.29-.351.189-.628.452-.83.789-.203.337-.304.727-.304,1.167v6.093h-2.442ZM100.727,127.734v1.89h-5.958v-1.89h5.958ZM96.24,125.251h2.442v9.73c0,.328.05.58.149.756.103.17.238.287.404.35.167.063.351.095.554.095.153,0,.292-.011.418-.034.13-.022.229-.043.297-.061l.411,1.91c-.13.045-.317.094-.56.148-.238.054-.53.086-.877.095-.611.018-1.162-.074-1.653-.277-.49-.207-.879-.526-1.167-.958-.283-.432-.423-.972-.418-1.619v-10.135ZM102.769,138.098v-10.364h2.443v10.364h-2.443ZM103.997,126.264c-.387,0-.72-.129-.998-.385-.279-.261-.419-.574-.419-.938,0-.369.14-.681.419-.938.278-.261.611-.391.998-.391.392,0,.724.13.999.391.279.257.418.569.418.938,0,.364-.139.677-.418.938-.275.256-.607.385-.999.385ZM110.166,132.026v6.072h-2.443v-10.364h2.335v1.761h.121c.239-.58.619-1.041,1.141-1.383.526-.342,1.176-.513,1.949-.513.716,0,1.339.153,1.869.459.536.306.95.749,1.242,1.329.297.581.443,1.285.438,2.112v6.599h-2.442v-6.221c0-.693-.18-1.235-.54-1.626-.355-.391-.848-.587-1.477-.587-.428,0-.808.095-1.141.283-.328.185-.587.453-.776.803-.184.351-.276.776-.276,1.276ZM123.809,142.2c-.878,0-1.631-.119-2.261-.357-.629-.234-1.136-.549-1.518-.945-.382-.396-.648-.834-.796-1.316l2.2-.533c.098.203.242.403.431.601.189.202.443.369.763.499.324.135.731.203,1.221.203.693,0,1.266-.169,1.721-.506.454-.333.681-.882.681-1.647v-1.963h-.121c-.126.252-.311.51-.554.776-.238.265-.555.488-.951.668-.391.18-.884.27-1.478.27-.796,0-1.518-.187-2.166-.56-.643-.378-1.156-.941-1.538-1.687-.378-.751-.567-1.691-.567-2.821,0-1.138.189-2.098.567-2.881.382-.787.897-1.383,1.545-1.788.648-.409,1.37-.614,2.166-.614.607,0,1.107.104,1.498.311.396.202.711.447.945.735.233.284.411.551.533.803h.135v-1.714h2.408v10.533c0,.886-.211,1.619-.634,2.199-.423.581-1.001,1.015-1.734,1.302-.733.288-1.565.432-2.496.432ZM123.829,136.033c.517,0,.958-.126,1.322-.377.365-.252.641-.614.83-1.087.189-.472.284-1.039.284-1.7,0-.652-.095-1.224-.284-1.714-.184-.49-.459-.87-.823-1.14-.36-.274-.803-.412-1.329-.412-.544,0-.999.142-1.363.425-.364.284-.639.673-.823,1.168-.185.49-.277,1.048-.277,1.673,0,.634.092,1.19.277,1.667.189.472.465.841.83,1.106.368.261.821.391,1.356.391ZM135.997,138.098v-13.818h8.853v2.098h-6.35v3.752h5.742v2.098h-5.742v5.87h-2.503ZM146.874,138.098v-10.364h2.368v1.728h.108c.189-.599.513-1.06.971-1.384.464-.328.992-.492,1.586-.492.135,0,.286.007.452.02.171.009.313.025.425.047v2.247c-.103-.036-.267-.067-.492-.094-.221-.032-.434-.047-.641-.047-.446,0-.846.096-1.201.29-.351.189-.628.452-.83.789-.203.337-.304.727-.304,1.167v6.093h-2.442ZM158.501,138.3c-1.012,0-1.889-.222-2.632-.668-.742-.445-1.318-1.068-1.727-1.868-.405-.801-.607-1.737-.607-2.807,0-1.071.202-2.009.607-2.814.409-.805.985-1.43,1.727-1.876.743-.445,1.62-.668,2.632-.668s1.889.223,2.631.668c.742.446,1.316,1.071,1.721,1.876.409.805.614,1.743.614,2.814,0,1.07-.205,2.006-.614,2.807-.405.8-.979,1.423-1.721,1.868-.742.446-1.619.668-2.631.668ZM158.514,136.344c.549,0,1.008-.151,1.377-.452.369-.306.643-.715.823-1.228.184-.513.276-1.084.276-1.714,0-.634-.092-1.208-.276-1.721-.18-.517-.454-.928-.823-1.234s-.828-.459-1.377-.459c-.562,0-1.03.153-1.403.459-.369.306-.646.717-.83,1.234-.18.513-.27,1.087-.27,1.721,0,.63.09,1.201.27,1.714.184.513.461.922.83,1.228.373.301.841.452,1.403.452ZM165.54,138.098v-10.364h2.334v1.761h.122c.216-.593.573-1.057,1.072-1.39.5-.337,1.096-.506,1.788-.506.702,0,1.294.171,1.775.513.486.338.828.799,1.026,1.383h.108c.229-.575.616-1.034,1.16-1.376.549-.346,1.199-.52,1.95-.52.954,0,1.732.302,2.334.905.603.602.905,1.482.905,2.638v6.956h-2.45v-6.578c0-.644-.171-1.114-.512-1.411-.342-.301-.761-.452-1.255-.452-.59,0-1.051.185-1.384.554-.328.364-.492.838-.492,1.423v6.464h-2.395v-6.68c0-.535-.162-.962-.486-1.282-.32-.319-.738-.479-1.255-.479-.351,0-.67.09-.958.27-.288.176-.517.425-.688.749-.171.32-.257.693-.257,1.12v6.302h-2.442Z"/>
  <path class="cls-2" d="M111.737,207.236c0,1.489-.279,2.764-.837,3.825-.553,1.058-1.309,1.867-2.267,2.429-.954.563-2.035.844-3.245.844s-2.294-.281-3.253-.844c-.953-.566-1.709-1.378-2.267-2.435-.553-1.062-.829-2.335-.829-3.819,0-1.489.276-2.762.829-3.819.558-1.062,1.314-1.874,2.267-2.436.959-.562,2.043-.843,3.253-.843s2.291.281,3.245.843c.958.562,1.714,1.374,2.267,2.436.558,1.057.837,2.33.837,3.819ZM109.22,207.236c0-1.048-.164-1.932-.493-2.652-.323-.724-.773-1.271-1.349-1.639-.576-.374-1.239-.56-1.99-.56-.752,0-1.415.186-1.991.56-.576.368-1.028.915-1.356,1.639-.324.72-.486,1.604-.486,2.652s.162,1.934.486,2.658c.328.72.78,1.266,1.356,1.64.576.369,1.239.553,1.991.553.751,0,1.414-.184,1.99-.553.576-.374,1.026-.92,1.349-1.64.329-.724.493-1.61.493-2.658ZM116.438,208.072v6.073h-2.443v-10.364h2.335v1.761h.121c.239-.58.619-1.041,1.141-1.383.526-.342,1.176-.513,1.949-.513.716,0,1.339.153,1.869.459.536.306.95.749,1.242,1.329.297.581.443,1.285.438,2.112v6.599h-2.442v-6.221c0-.693-.18-1.235-.54-1.626-.355-.391-.848-.587-1.477-.587-.428,0-.808.094-1.141.283-.328.185-.587.452-.776.803-.184.351-.276.776-.276,1.275ZM128.016,200.327v13.818h-2.443v-13.818h2.443ZM132.046,218.031c-.333,0-.641-.027-.925-.081-.279-.049-.501-.108-.668-.175l.567-1.903c.355.104.673.153.951.149.279-.005.524-.093.736-.264.216-.166.398-.445.546-.836l.21-.56-3.759-10.58h2.591l2.389,7.827h.108l2.395-7.827h2.598l-4.15,11.619c-.193.549-.45,1.019-.769,1.41-.319.396-.711.697-1.174.904-.459.212-1.008.317-1.646.317Z"/>
  <g class="cls-4">
    <circle class="cls-3" cx="119.227" cy="119.227" r="108.703"/>
  </g>
  <path class="cls-7" d="M119.893,18.2514l1.46,4.4949h4.726l-3.823,2.7781,1.46,4.495-3.823-2.7781-3.824,2.7781,1.46-4.495-3.823-2.7781h4.726l1.461-4.4949Z"/>
  <path class="cls-7" d="M137.403,18.2514l1.461,4.4949h4.726l-3.823,2.7781,1.46,4.495-3.824-2.7781-3.823,2.7781,1.46-4.495-3.823-2.7781h4.726l1.46-4.4949Z"/>
  <path class="cls-7" d="M102.382,18.2514l1.461,4.4949h4.726l-3.824,2.7781,1.461,4.495-3.824-2.7781-3.824,2.7781,1.461-4.495-3.824-2.7781h4.727l1.46-4.4949Z"/>
  <text class="cls-1" transform="translate(47.9595 183.3638)"><tspan x="0" y="0">Rs.440*/-</tspan></text>
</svg>