<svg width="239" height="240" viewBox="0 0 239 240" fill="none" xmlns="http://www.w3.org/2000/svg">
<circle cx="119.227" cy="119.891" r="119.227" fill="#46226D"/>
<circle cx="119.227" cy="119.89" r="107.703" fill="#46226D" stroke="#F7941D" stroke-width="2" stroke-dasharray="5 5"/>
<path d="M56.5388 79.7412V55.4412H63.2288C64.8688 55.4412 66.2888 55.6212 67.4888 55.9812C68.6888 56.3412 69.6188 56.9912 70.2788 57.9312C70.9588 58.8512 71.2988 60.1612 71.2988 61.8612C71.2988 62.8612 71.2188 63.7512 71.0588 64.5312C70.8988 65.3112 70.5988 65.9912 70.1588 66.5712C69.7388 67.1312 69.1288 67.6012 68.3288 67.9812L71.6588 79.7412H66.1088L63.4388 68.8512H61.9088V79.7412H56.5388ZM61.9088 65.7612H63.4088C64.1688 65.7612 64.7588 65.6312 65.1788 65.3712C65.5988 65.0912 65.8888 64.7012 66.0488 64.2012C66.2288 63.6812 66.3188 63.0612 66.3188 62.3412C66.3188 61.3012 66.1288 60.4912 65.7488 59.9112C65.3688 59.3312 64.6688 59.0412 63.6488 59.0412H61.9088V65.7612ZM71.8571 79.7412L76.4471 55.4412H82.5671L87.0971 79.7412H82.1471L81.3371 74.6112H77.7671L76.9271 79.7412H71.8571ZM78.2471 71.4012H80.8271L79.5371 61.9212L78.2471 71.4012ZM88.0506 79.7412V55.4412H94.2006C96.3206 55.4412 97.9706 55.7112 99.1506 56.2512C100.331 56.7712 101.161 57.6012 101.641 58.7412C102.121 59.8612 102.361 61.3212 102.361 63.1212V71.9412C102.361 73.7612 102.121 75.2512 101.641 76.4112C101.161 77.5512 100.331 78.3912 99.1506 78.9312C97.9906 79.4712 96.3606 79.7412 94.2606 79.7412H88.0506ZM93.4206 76.0212H94.2606C95.0806 76.0212 95.6706 75.9012 96.0306 75.6612C96.3906 75.4212 96.6106 75.0612 96.6906 74.5812C96.7906 74.1012 96.8406 73.5012 96.8406 72.7812V62.1912C96.8406 61.4712 96.7806 60.8912 96.6606 60.4512C96.5606 60.0112 96.3306 59.6912 95.9706 59.4912C95.6106 59.2912 95.0306 59.1912 94.2306 59.1912H93.4206V76.0212ZM104.159 79.7412V55.4412H109.529V79.7412H104.159ZM118.612 80.1012C116.792 80.1012 115.352 79.7812 114.292 79.1412C113.232 78.5012 112.472 77.5812 112.012 76.3812C111.552 75.1812 111.322 73.7512 111.322 72.0912V63.0612C111.322 61.3812 111.552 59.9512 112.012 58.7712C112.472 57.5912 113.232 56.6912 114.292 56.0712C115.352 55.4312 116.792 55.1112 118.612 55.1112C120.452 55.1112 121.902 55.4312 122.962 56.0712C124.042 56.6912 124.812 57.5912 125.272 58.7712C125.732 59.9512 125.962 61.3812 125.962 63.0612V72.0912C125.962 73.7512 125.732 75.1812 125.272 76.3812C124.812 77.5812 124.042 78.5012 122.962 79.1412C121.902 79.7812 120.452 80.1012 118.612 80.1012ZM118.612 76.2912C119.172 76.2912 119.582 76.1512 119.842 75.8712C120.102 75.5912 120.272 75.2312 120.352 74.7912C120.432 74.3512 120.472 73.9012 120.472 73.4412V61.7412C120.472 61.2612 120.432 60.8112 120.352 60.3912C120.272 59.9512 120.102 59.5912 119.842 59.3112C119.582 59.0312 119.172 58.8912 118.612 58.8912C118.092 58.8912 117.702 59.0312 117.442 59.3112C117.182 59.5912 117.012 59.9512 116.932 60.3912C116.852 60.8112 116.812 61.2612 116.812 61.7412V73.4412C116.812 73.9012 116.842 74.3512 116.902 74.7912C116.982 75.2312 117.142 75.5912 117.382 75.8712C117.642 76.1512 118.052 76.2912 118.612 76.2912ZM127.73 79.7412V55.4412H133.1V76.1112H138.68V79.7412H127.73ZM146.11 80.1012C144.29 80.1012 142.85 79.7812 141.79 79.1412C140.73 78.5012 139.97 77.5812 139.51 76.3812C139.05 75.1812 138.82 73.7512 138.82 72.0912V63.0612C138.82 61.3812 139.05 59.9512 139.51 58.7712C139.97 57.5912 140.73 56.6912 141.79 56.0712C142.85 55.4312 144.29 55.1112 146.11 55.1112C147.95 55.1112 149.4 55.4312 150.46 56.0712C151.54 56.6912 152.31 57.5912 152.77 58.7712C153.23 59.9512 153.46 61.3812 153.46 63.0612V72.0912C153.46 73.7512 153.23 75.1812 152.77 76.3812C152.31 77.5812 151.54 78.5012 150.46 79.1412C149.4 79.7812 147.95 80.1012 146.11 80.1012ZM146.11 76.2912C146.67 76.2912 147.08 76.1512 147.34 75.8712C147.6 75.5912 147.77 75.2312 147.85 74.7912C147.93 74.3512 147.97 73.9012 147.97 73.4412V61.7412C147.97 61.2612 147.93 60.8112 147.85 60.3912C147.77 59.9512 147.6 59.5912 147.34 59.3112C147.08 59.0312 146.67 58.8912 146.11 58.8912C145.59 58.8912 145.2 59.0312 144.94 59.3112C144.68 59.5912 144.51 59.9512 144.43 60.3912C144.35 60.8112 144.31 61.2612 144.31 61.7412V73.4412C144.31 73.9012 144.34 74.3512 144.4 74.7912C144.48 75.2312 144.64 75.5912 144.88 75.8712C145.14 76.1512 145.55 76.2912 146.11 76.2912ZM161.558 80.1012C159.878 80.1012 158.548 79.7512 157.568 79.0512C156.608 78.3512 155.918 77.3712 155.498 76.1112C155.098 74.8312 154.898 73.3612 154.898 71.7012V63.5412C154.898 61.8212 155.118 60.3312 155.558 59.0712C155.998 57.8112 156.748 56.8412 157.808 56.1612C158.888 55.4612 160.348 55.1112 162.188 55.1112C163.988 55.1112 165.398 55.4112 166.418 56.0112C167.458 56.6112 168.198 57.4412 168.638 58.5012C169.078 59.5612 169.298 60.8012 169.298 62.2212V63.7812H164.048V61.8012C164.048 61.2812 164.008 60.8012 163.928 60.3612C163.868 59.9212 163.708 59.5712 163.448 59.3112C163.208 59.0312 162.808 58.8912 162.248 58.8912C161.668 58.8912 161.248 59.0512 160.988 59.3712C160.728 59.6712 160.558 60.0512 160.478 60.5112C160.418 60.9712 160.388 61.4512 160.388 61.9512V73.2012C160.388 73.7412 160.438 74.2512 160.538 74.7312C160.658 75.1912 160.858 75.5712 161.138 75.8712C161.438 76.1512 161.858 76.2912 162.398 76.2912C162.958 76.2912 163.388 76.1412 163.688 75.8412C163.988 75.5412 164.198 75.1512 164.318 74.6712C164.438 74.1912 164.498 73.6812 164.498 73.1412V70.2912H162.308V67.1412H169.328V79.7412H165.788L165.488 77.7312C165.168 78.4112 164.698 78.9812 164.078 79.4412C163.458 79.8812 162.618 80.1012 161.558 80.1012ZM173.78 79.7412V69.8112L169.16 55.4412H174.23L176.54 63.1212L178.61 55.4412H183.47L178.94 69.8112V79.7412H173.78ZM96.9 110.101C95.38 110.101 94.11 109.831 93.09 109.291C92.07 108.751 91.3 107.921 90.78 106.801C90.26 105.661 89.97 104.191 89.91 102.391L94.5 101.701C94.52 102.741 94.61 103.581 94.77 104.221C94.95 104.861 95.19 105.321 95.49 105.601C95.81 105.881 96.19 106.021 96.63 106.021C97.19 106.021 97.55 105.831 97.71 105.451C97.89 105.071 97.98 104.671 97.98 104.251C97.98 103.251 97.74 102.411 97.26 101.731C96.78 101.031 96.13 100.331 95.31 99.6312L93.21 97.8012C92.29 97.0212 91.51 96.1412 90.87 95.1612C90.25 94.1612 89.94 92.9312 89.94 91.4712C89.94 89.4112 90.55 87.8412 91.77 86.7612C92.99 85.6612 94.65 85.1112 96.75 85.1112C98.05 85.1112 99.09 85.3312 99.87 85.7712C100.67 86.2112 101.27 86.7912 101.67 87.5112C102.09 88.2112 102.37 88.9612 102.51 89.7612C102.67 90.5412 102.76 91.2912 102.78 92.0112L98.16 92.5812C98.14 91.8612 98.09 91.2412 98.01 90.7212C97.95 90.1812 97.81 89.7712 97.59 89.4912C97.37 89.1912 97.03 89.0412 96.57 89.0412C96.07 89.0412 95.7 89.2512 95.46 89.6712C95.24 90.0912 95.13 90.5112 95.13 90.9312C95.13 91.8312 95.34 92.5712 95.76 93.1512C96.2 93.7112 96.77 94.3012 97.47 94.9212L99.48 96.6912C100.54 97.5912 101.43 98.6112 102.15 99.7512C102.89 100.891 103.26 102.301 103.26 103.981C103.26 105.121 103 106.161 102.48 107.101C101.96 108.021 101.22 108.751 100.26 109.291C99.32 109.831 98.2 110.101 96.9 110.101ZM111.32 110.101C109.48 110.101 108.02 109.771 106.94 109.111C105.88 108.431 105.13 107.491 104.69 106.291C104.25 105.071 104.03 103.641 104.03 102.001V93.2412C104.03 91.5612 104.25 90.1212 104.69 88.9212C105.13 87.7012 105.88 86.7612 106.94 86.1012C108.02 85.4412 109.48 85.1112 111.32 85.1112C113.12 85.1112 114.52 85.4112 115.52 86.0112C116.54 86.5912 117.26 87.4112 117.68 88.4712C118.1 89.5312 118.31 90.7512 118.31 92.1312V94.2312H113.06V91.8012C113.06 91.3212 113.03 90.8612 112.97 90.4212C112.93 89.9812 112.79 89.6212 112.55 89.3412C112.31 89.0412 111.9 88.8912 111.32 88.8912C110.76 88.8912 110.34 89.0412 110.06 89.3412C109.8 89.6412 109.63 90.0212 109.55 90.4812C109.49 90.9212 109.46 91.3912 109.46 91.8912V103.321C109.46 103.861 109.5 104.361 109.58 104.821C109.68 105.261 109.86 105.621 110.12 105.901C110.4 106.161 110.8 106.291 111.32 106.291C111.88 106.291 112.28 106.151 112.52 105.871C112.76 105.571 112.91 105.191 112.97 104.731C113.03 104.271 113.06 103.801 113.06 103.321V100.771H118.31V102.871C118.31 104.251 118.1 105.491 117.68 106.591C117.28 107.671 116.57 108.531 115.55 109.171C114.55 109.791 113.14 110.101 111.32 110.101ZM118.594 109.741L123.184 85.4412H129.304L133.834 109.741H128.884L128.074 104.611H124.504L123.664 109.741H118.594ZM124.984 101.401H127.564L126.274 91.9212L124.984 101.401ZM134.788 109.741V85.4412H138.568L143.548 97.1412V85.4412H147.988V109.741H144.358L139.378 97.1412V109.741H134.788Z" fill="white"/>
<path d="M64.6122 128.742C64.5492 128.153 64.2838 127.694 63.816 127.366C63.3527 127.037 62.7499 126.873 62.0078 126.873C61.486 126.873 61.0384 126.952 60.6651 127.109C60.2917 127.267 60.0061 127.48 59.8082 127.75C59.6103 128.02 59.5091 128.328 59.5046 128.675C59.5046 128.963 59.5698 129.212 59.7002 129.424C59.8352 129.635 60.0173 129.815 60.2467 129.963C60.4762 130.107 60.7303 130.229 61.0092 130.328C61.2881 130.427 61.5692 130.51 61.8526 130.577L63.148 130.901C63.6698 131.023 64.1713 131.187 64.6526 131.394C65.1384 131.601 65.5725 131.862 65.9548 132.176C66.3417 132.491 66.6476 132.871 66.8725 133.317C67.0974 133.762 67.2098 134.284 67.2098 134.882C67.2098 135.692 67.0029 136.405 66.5891 137.021C66.1753 137.633 65.577 138.112 64.7943 138.458C64.0162 138.8 63.0738 138.971 61.9673 138.971C60.8922 138.971 59.9589 138.804 59.1672 138.472C58.38 138.139 57.7638 137.653 57.3185 137.014C56.8777 136.375 56.6393 135.597 56.6033 134.68H59.066C59.102 135.161 59.2504 135.561 59.5113 135.881C59.7722 136.2 60.1118 136.438 60.5301 136.596C60.953 136.753 61.4253 136.832 61.947 136.832C62.4913 136.832 62.9681 136.751 63.3774 136.589C63.7913 136.423 64.1151 136.193 64.349 135.901C64.5829 135.604 64.7021 135.258 64.7066 134.862C64.7021 134.502 64.5964 134.205 64.3895 133.971C64.1826 133.733 63.8925 133.535 63.5191 133.377C63.1503 133.216 62.7185 133.072 62.2237 132.946L60.6516 132.541C59.5136 132.248 58.6139 131.805 57.9527 131.212C57.296 130.613 56.9676 129.819 56.9676 128.83C56.9676 128.016 57.188 127.303 57.6289 126.691C58.0742 126.079 58.6792 125.605 59.4438 125.267C60.2085 124.926 61.0744 124.755 62.0415 124.755C63.0221 124.755 63.8812 124.926 64.6189 125.267C65.3611 125.605 65.9436 126.075 66.3664 126.678C66.7892 127.276 67.0074 127.964 67.0209 128.742H64.6122ZM74.5086 128.398V130.287H68.5508V128.398H74.5086ZM70.0217 125.915H72.4642V135.645C72.4642 135.973 72.5136 136.225 72.6126 136.4C72.7161 136.571 72.851 136.688 73.0174 136.751C73.1839 136.814 73.3683 136.846 73.5707 136.846C73.7236 136.846 73.8631 136.834 73.989 136.812C74.1195 136.789 74.2184 136.769 74.2859 136.751L74.6975 138.661C74.567 138.705 74.3804 138.755 74.1375 138.809C73.8991 138.863 73.6067 138.894 73.2603 138.903C72.6486 138.921 72.0976 138.829 71.6073 138.627C71.117 138.42 70.7279 138.1 70.44 137.669C70.1566 137.237 70.0172 136.697 70.0217 136.049V125.915ZM79.5335 138.971C78.8768 138.971 78.2853 138.854 77.759 138.62C77.2372 138.382 76.8234 138.031 76.5175 137.567C76.2162 137.104 76.0655 136.533 76.0655 135.854C76.0655 135.269 76.1734 134.785 76.3893 134.403C76.6052 134.021 76.8999 133.715 77.2732 133.485C77.6465 133.256 78.0671 133.083 78.5349 132.966C79.0072 132.844 79.4953 132.757 79.9991 132.703C80.6063 132.64 81.0988 132.584 81.4767 132.534C81.8545 132.48 82.1289 132.399 82.2998 132.291C82.4753 132.179 82.563 132.006 82.563 131.772V131.731C82.563 131.223 82.4123 130.829 82.1109 130.55C81.8095 130.272 81.3755 130.132 80.8087 130.132C80.2105 130.132 79.7359 130.263 79.3851 130.523C79.0387 130.784 78.8048 131.092 78.6834 131.448L76.4028 131.124C76.5827 130.494 76.8796 129.968 77.2934 129.545C77.7073 129.118 78.2133 128.798 78.8116 128.587C79.4098 128.371 80.071 128.263 80.7952 128.263C81.2945 128.263 81.7916 128.322 82.2863 128.439C82.7811 128.556 83.2332 128.749 83.6425 129.019C84.0519 129.284 84.3802 129.646 84.6276 130.105C84.8795 130.564 85.0055 131.137 85.0055 131.826V138.762H82.6574V137.338H82.5765C82.428 137.626 82.2189 137.896 81.949 138.148C81.6836 138.395 81.3485 138.595 80.9437 138.748C80.5433 138.897 80.0733 138.971 79.5335 138.971ZM80.1677 137.176C80.658 137.176 81.0831 137.079 81.4429 136.886C81.8028 136.688 82.0794 136.427 82.2729 136.103C82.4708 135.779 82.5697 135.426 82.5697 135.044V133.823C82.4933 133.886 82.3628 133.944 82.1784 133.998C81.9985 134.052 81.7961 134.099 81.5711 134.14C81.3462 134.18 81.1236 134.216 80.9032 134.248C80.6828 134.279 80.4916 134.306 80.3297 134.329C79.9653 134.378 79.6392 134.459 79.3513 134.572C79.0635 134.684 78.8363 134.842 78.6699 135.044C78.5034 135.242 78.4202 135.498 78.4202 135.813C78.4202 136.263 78.5844 136.603 78.9128 136.832C79.2411 137.061 79.6595 137.176 80.1677 137.176ZM87.4614 138.762V128.398H89.8297V130.125H89.9376C90.1265 129.527 90.4504 129.066 90.9092 128.742C91.3725 128.414 91.901 128.25 92.4948 128.25C92.6297 128.25 92.7804 128.256 92.9469 128.27C93.1178 128.279 93.2595 128.295 93.3719 128.317V130.564C93.2685 130.528 93.1043 130.496 92.8794 130.469C92.659 130.438 92.4453 130.422 92.2384 130.422C91.7931 130.422 91.3928 130.519 91.0374 130.712C90.6866 130.901 90.4099 131.164 90.2075 131.502C90.0051 131.839 89.9039 132.228 89.9039 132.669V138.762H87.4614ZM100.726 128.398V130.287H94.7686V128.398H100.726ZM96.2395 125.915H98.6819V135.645C98.6819 135.973 98.7314 136.225 98.8304 136.4C98.9338 136.571 99.0688 136.688 99.2352 136.751C99.4016 136.814 99.5861 136.846 99.7885 136.846C99.9414 136.846 100.081 136.834 100.207 136.812C100.337 136.789 100.436 136.769 100.504 136.751L100.915 138.661C100.785 138.705 100.598 138.755 100.355 138.809C100.117 138.863 99.8245 138.894 99.4781 138.903C98.8664 138.921 98.3153 138.829 97.8251 138.627C97.3348 138.42 96.9457 138.1 96.6578 137.669C96.3744 137.237 96.235 136.697 96.2395 136.049V125.915ZM102.769 138.762V128.398H105.212V138.762H102.769ZM103.997 126.927C103.61 126.927 103.277 126.799 102.998 126.543C102.72 126.282 102.58 125.969 102.58 125.605C102.58 125.236 102.72 124.923 102.998 124.667C103.277 124.406 103.61 124.276 103.997 124.276C104.388 124.276 104.721 124.406 104.996 124.667C105.274 124.923 105.414 125.236 105.414 125.605C105.414 125.969 105.274 126.282 104.996 126.543C104.721 126.799 104.388 126.927 103.997 126.927ZM110.166 132.689V138.762H107.723V128.398H110.058V130.159H110.179C110.417 129.579 110.798 129.118 111.319 128.776C111.846 128.434 112.496 128.263 113.269 128.263C113.984 128.263 114.607 128.416 115.138 128.722C115.674 129.028 116.087 129.471 116.38 130.051C116.677 130.631 116.823 131.335 116.818 132.163V138.762H114.376V132.541C114.376 131.848 114.196 131.306 113.836 130.915C113.481 130.523 112.988 130.328 112.358 130.328C111.931 130.328 111.551 130.422 111.218 130.611C110.89 130.796 110.631 131.063 110.442 131.414C110.258 131.765 110.166 132.19 110.166 132.689ZM123.808 142.864C122.931 142.864 122.178 142.745 121.548 142.506C120.918 142.272 120.412 141.958 120.03 141.562C119.648 141.166 119.382 140.727 119.234 140.246L121.433 139.713C121.532 139.915 121.676 140.116 121.865 140.314C122.054 140.516 122.308 140.682 122.628 140.813C122.951 140.948 123.359 141.015 123.849 141.015C124.542 141.015 125.115 140.847 125.569 140.509C126.024 140.176 126.251 139.628 126.251 138.863V136.9H126.129C126.003 137.151 125.819 137.41 125.576 137.675C125.338 137.941 125.021 138.163 124.625 138.343C124.233 138.523 123.741 138.613 123.147 138.613C122.351 138.613 121.629 138.427 120.981 138.053C120.338 137.675 119.825 137.113 119.443 136.366C119.065 135.615 118.876 134.675 118.876 133.546C118.876 132.408 119.065 131.448 119.443 130.665C119.825 129.878 120.34 129.282 120.988 128.877C121.636 128.468 122.358 128.263 123.154 128.263C123.761 128.263 124.26 128.367 124.652 128.574C125.048 128.776 125.362 129.021 125.596 129.309C125.83 129.592 126.008 129.86 126.129 130.112H126.264V128.398H128.673V138.93C128.673 139.817 128.462 140.55 128.039 141.13C127.616 141.71 127.038 142.144 126.305 142.432C125.572 142.72 124.739 142.864 123.808 142.864ZM123.829 136.697C124.346 136.697 124.787 136.571 125.151 136.319C125.515 136.067 125.792 135.705 125.981 135.233C126.17 134.761 126.264 134.194 126.264 133.533C126.264 132.88 126.17 132.309 125.981 131.819C125.797 131.329 125.522 130.949 125.158 130.679C124.798 130.404 124.355 130.267 123.829 130.267C123.284 130.267 122.83 130.409 122.466 130.692C122.101 130.975 121.827 131.365 121.643 131.859C121.458 132.35 121.366 132.907 121.366 133.533C121.366 134.167 121.458 134.722 121.643 135.199C121.831 135.672 122.108 136.04 122.472 136.306C122.841 136.567 123.293 136.697 123.829 136.697ZM135.997 138.762V124.944H144.849V127.042H138.5V130.793H144.242V132.892H138.5V138.762H135.997ZM146.874 138.762V128.398H149.242V130.125H149.35C149.539 129.527 149.863 129.066 150.321 128.742C150.785 128.414 151.313 128.25 151.907 128.25C152.042 128.25 152.193 128.256 152.359 128.27C152.53 128.279 152.672 128.295 152.784 128.317V130.564C152.681 130.528 152.516 130.496 152.291 130.469C152.071 130.438 151.857 130.422 151.651 130.422C151.205 130.422 150.805 130.519 150.45 130.712C150.099 130.901 149.822 131.164 149.62 131.502C149.417 131.839 149.316 132.228 149.316 132.669V138.762H146.874ZM158.501 138.964C157.488 138.964 156.611 138.741 155.869 138.296C155.127 137.851 154.551 137.228 154.142 136.427C153.737 135.627 153.535 134.691 153.535 133.62C153.535 132.55 153.737 131.612 154.142 130.807C154.551 130.002 155.127 129.376 155.869 128.931C156.611 128.486 157.488 128.263 158.501 128.263C159.513 128.263 160.39 128.486 161.132 128.931C161.874 129.376 162.448 130.002 162.852 130.807C163.262 131.612 163.466 132.55 163.466 133.62C163.466 134.691 163.262 135.627 162.852 136.427C162.448 137.228 161.874 137.851 161.132 138.296C160.39 138.741 159.513 138.964 158.501 138.964ZM158.514 137.007C159.063 137.007 159.522 136.857 159.89 136.555C160.259 136.25 160.534 135.84 160.714 135.327C160.898 134.815 160.99 134.243 160.99 133.614C160.99 132.979 160.898 132.406 160.714 131.893C160.534 131.376 160.259 130.964 159.89 130.658C159.522 130.353 159.063 130.2 158.514 130.2C157.952 130.2 157.484 130.353 157.111 130.658C156.742 130.964 156.465 131.376 156.281 131.893C156.101 132.406 156.011 132.979 156.011 133.614C156.011 134.243 156.101 134.815 156.281 135.327C156.465 135.84 156.742 136.25 157.111 136.555C157.484 136.857 157.952 137.007 158.514 137.007ZM165.54 138.762V128.398H167.874V130.159H167.996C168.211 129.565 168.569 129.102 169.068 128.769C169.568 128.432 170.164 128.263 170.856 128.263C171.558 128.263 172.15 128.434 172.631 128.776C173.117 129.113 173.458 129.574 173.656 130.159H173.764C173.994 129.583 174.381 129.125 174.925 128.783C175.474 128.436 176.124 128.263 176.875 128.263C177.828 128.263 178.607 128.565 179.209 129.167C179.812 129.77 180.113 130.649 180.113 131.805V138.762H177.664V132.183C177.664 131.54 177.493 131.07 177.151 130.773C176.81 130.472 176.391 130.321 175.896 130.321C175.307 130.321 174.846 130.505 174.513 130.874C174.185 131.239 174.021 131.713 174.021 132.298V138.762H171.625V132.082C171.625 131.547 171.464 131.119 171.14 130.8C170.82 130.481 170.402 130.321 169.885 130.321C169.534 130.321 169.214 130.411 168.927 130.591C168.639 130.766 168.409 131.016 168.238 131.34C168.067 131.659 167.982 132.033 167.982 132.46V138.762H165.54Z" fill="white"/>
<path d="M111.736 207.9C111.736 209.388 111.458 210.664 110.9 211.725C110.347 212.782 109.591 213.592 108.633 214.154C107.679 214.716 106.597 214.998 105.387 214.998C104.177 214.998 103.093 214.716 102.135 214.154C101.182 213.587 100.426 212.775 99.8682 211.718C99.315 210.657 99.0383 209.384 99.0383 207.9C99.0383 206.411 99.315 205.138 99.8682 204.081C100.426 203.019 101.182 202.207 102.135 201.645C103.093 201.083 104.177 200.801 105.387 200.801C106.597 200.801 107.679 201.083 108.633 201.645C109.591 202.207 110.347 203.019 110.9 204.081C111.458 205.138 111.736 206.411 111.736 207.9ZM109.22 207.9C109.22 206.851 109.056 205.968 108.727 205.248C108.403 204.524 107.954 203.977 107.378 203.608C106.802 203.235 106.139 203.048 105.387 203.048C104.636 203.048 103.973 203.235 103.397 203.608C102.821 203.977 102.369 204.524 102.041 205.248C101.717 205.968 101.555 206.851 101.555 207.9C101.555 208.948 101.717 209.834 102.041 210.558C102.369 211.278 102.821 211.824 103.397 212.197C103.973 212.566 104.636 212.751 105.387 212.751C106.139 212.751 106.802 212.566 107.378 212.197C107.954 211.824 108.403 211.278 108.727 210.558C109.056 209.834 109.22 208.948 109.22 207.9ZM116.438 208.736V214.809H113.995V204.445H116.33V206.206H116.451C116.689 205.626 117.07 205.165 117.591 204.823C118.118 204.481 118.768 204.31 119.541 204.31C120.256 204.31 120.879 204.463 121.41 204.769C121.946 205.075 122.359 205.518 122.652 206.098C122.949 206.678 123.095 207.382 123.09 208.21V214.809H120.648V208.588C120.648 207.895 120.468 207.353 120.108 206.962C119.753 206.57 119.26 206.375 118.63 206.375C118.203 206.375 117.823 206.469 117.49 206.658C117.162 206.842 116.903 207.11 116.714 207.461C116.53 207.812 116.438 208.237 116.438 208.736ZM128.016 200.99V214.809H125.573V200.99H128.016ZM132.045 218.695C131.713 218.695 131.404 218.668 131.121 218.614C130.842 218.565 130.62 218.506 130.453 218.439L131.02 216.536C131.375 216.639 131.692 216.689 131.971 216.684C132.25 216.68 132.495 216.592 132.707 216.421C132.923 216.255 133.105 215.976 133.253 215.585L133.462 215.025L129.704 204.445H132.295L134.684 212.272H134.792L137.187 204.445H139.784L135.635 216.064C135.442 216.612 135.185 217.082 134.866 217.474C134.546 217.87 134.155 218.171 133.692 218.378C133.233 218.589 132.684 218.695 132.045 218.695Z" fill="white"/>
<mask id="mask0_193_42518" style="mask-type:alpha" maskUnits="userSpaceOnUse" x="10" y="150" width="218" height="44">
<rect x="10.524" y="150.609" width="217.406" height="43.3288" fill="#D9D9D9"/>
</mask>
<g mask="url(#mask0_193_42518)">
<circle cx="119.227" cy="119.89" r="108.703" fill="#F7941D"/>
</g>
<path d="M65.6489 181.385V159.567H74.2569C75.9046 159.567 77.3108 159.861 78.4756 160.451C79.6475 161.033 80.5388 161.861 81.1496 162.933C81.7675 163.998 82.0765 165.252 82.0765 166.694C82.0765 168.143 81.764 169.389 81.139 170.433C80.514 171.47 79.6084 172.265 78.4224 172.819C77.2434 173.373 75.8158 173.65 74.1397 173.65H68.3762V169.943H73.3939C74.2746 169.943 75.0062 169.822 75.5885 169.581C76.1709 169.339 76.6042 168.977 76.8883 168.494C77.1795 168.011 77.325 167.411 77.325 166.694C77.325 165.969 77.1795 165.358 76.8883 164.861C76.6042 164.364 76.1674 163.988 75.5779 163.732C74.9955 163.469 74.2604 163.338 73.3726 163.338H70.2618V181.385H65.6489ZM77.4316 171.456L82.8542 181.385H77.7618L72.4564 171.456H77.4316ZM98.8662 169.687L94.7114 169.943C94.6404 169.588 94.4877 169.268 94.2533 168.984C94.0189 168.693 93.71 168.462 93.3265 168.292C92.95 168.114 92.4991 168.025 91.9735 168.025C91.2704 168.025 90.6773 168.175 90.1944 168.473C89.7114 168.764 89.4699 169.155 89.4699 169.645C89.4699 170.035 89.6262 170.366 89.9387 170.635C90.2512 170.905 90.7874 171.122 91.5474 171.285L94.509 171.882C96.0999 172.209 97.286 172.734 98.0672 173.459C98.8485 174.183 99.2391 175.135 99.2391 176.314C99.2391 177.386 98.9231 178.327 98.291 179.137C97.666 179.947 96.8066 180.579 95.7128 181.033C94.6262 181.481 93.3726 181.704 91.9522 181.704C89.786 181.704 88.0601 181.253 86.7746 180.351C85.4962 179.442 84.7469 178.206 84.5268 176.644L88.9905 176.41C89.1255 177.07 89.4522 177.574 89.9706 177.922C90.4891 178.263 91.1532 178.434 91.9628 178.434C92.7583 178.434 93.3975 178.281 93.8804 177.976C94.3705 177.663 94.6191 177.262 94.6262 176.772C94.6191 176.36 94.4451 176.023 94.1042 175.76C93.7633 175.49 93.2377 175.284 92.5275 175.142L89.6937 174.577C88.0956 174.258 86.906 173.704 86.1248 172.915C85.3506 172.127 84.9635 171.122 84.9635 169.9C84.9635 168.849 85.2476 167.944 85.8158 167.184C86.3911 166.424 87.1972 165.838 88.2341 165.426C89.2782 165.014 90.4998 164.808 91.8989 164.808C93.9657 164.808 95.5921 165.245 96.7782 166.118C97.9714 166.992 98.6674 168.182 98.8662 169.687ZM104.75 181.662C104.046 181.662 103.443 181.413 102.939 180.916C102.441 180.412 102.193 179.808 102.193 179.105C102.193 178.409 102.441 177.812 102.939 177.315C103.443 176.818 104.046 176.569 104.75 176.569C105.431 176.569 106.028 176.818 106.539 177.315C107.051 177.812 107.306 178.409 107.306 179.105C107.306 179.574 107.186 180.003 106.944 180.394C106.71 180.778 106.401 181.086 106.017 181.321C105.634 181.548 105.211 181.662 104.75 181.662ZM115.443 159.567L119.843 167.003H120.013L124.434 159.567H129.644L122.986 170.476L129.793 181.385H124.488L120.013 173.938H119.843L115.368 181.385H110.084L116.913 170.476L110.212 159.567H115.443ZM136.888 159.567L141.288 167.003H141.459L145.88 159.567H151.089L144.431 170.476L151.238 181.385H145.933L141.459 173.938H141.288L136.814 181.385H131.53L138.358 170.476L131.657 159.567H136.888ZM158.334 159.567L162.733 167.003H162.904L167.325 159.567H172.535L165.876 170.476L172.684 181.385H167.378L162.904 173.938H162.733L158.259 181.385H152.975L159.804 170.476L153.103 159.567H158.334Z" fill="white"/>
</svg>
