<svg width="138" height="139" viewBox="0 0 138 139" fill="none" xmlns="http://www.w3.org/2000/svg">
<circle cx="69.1602" cy="69.4814" r="68.6299" fill="#46226D"/>
<circle cx="69.1604" cy="69.4812" r="61.572" fill="#46226D" stroke="#F7941D" stroke-width="2" stroke-dasharray="5 5"/>
<path d="M33.6373 45.7988V32.0288H37.4283C38.3577 32.0288 39.1623 32.1308 39.8423 32.3348C40.5223 32.5388 41.0493 32.9072 41.4233 33.4398C41.8087 33.9612 42.0013 34.7035 42.0013 35.6668C42.0013 36.2335 41.956 36.7378 41.8653 37.1798C41.7747 37.6218 41.6047 38.0072 41.3553 38.3358C41.1173 38.6532 40.7717 38.9195 40.3183 39.1348L42.2053 45.7988H39.0603L37.5473 39.6278H36.6803V45.7988H33.6373ZM36.6803 37.8768H37.5303C37.961 37.8768 38.2953 37.8032 38.5333 37.6558C38.7713 37.4972 38.9357 37.2762 39.0263 36.9928C39.1283 36.6982 39.1793 36.3468 39.1793 35.9388C39.1793 35.3495 39.0717 34.8905 38.8563 34.5618C38.641 34.2332 38.2443 34.0688 37.6663 34.0688H36.6803V37.8768ZM42.3177 45.7988L44.9187 32.0288H48.3867L50.9537 45.7988H48.1487L47.6897 42.8918H45.6667L45.1907 45.7988H42.3177ZM45.9387 41.0728H47.4007L46.6697 35.7008L45.9387 41.0728ZM51.494 45.7988V32.0288H54.979C56.1803 32.0288 57.1153 32.1818 57.784 32.4878C58.4526 32.7825 58.923 33.2528 59.195 33.8988C59.467 34.5335 59.603 35.3608 59.603 36.3808V41.3788C59.603 42.4102 59.467 43.2545 59.195 43.9118C58.923 44.5578 58.4526 45.0338 57.784 45.3398C57.1266 45.6458 56.203 45.7988 55.013 45.7988H51.494ZM54.537 43.6908H55.013C55.4776 43.6908 55.812 43.6228 56.016 43.4868C56.22 43.3508 56.3446 43.1468 56.39 42.8748C56.4466 42.6028 56.475 42.2628 56.475 41.8548V35.8538C56.475 35.4458 56.441 35.1172 56.373 34.8678C56.3163 34.6185 56.186 34.4372 55.982 34.3238C55.778 34.2105 55.4493 34.1538 54.996 34.1538H54.537V43.6908ZM60.6219 45.7988V32.0288H63.6649V45.7988H60.6219ZM68.8122 46.0028C67.7809 46.0028 66.9649 45.8215 66.3642 45.4588C65.7635 45.0962 65.3329 44.5748 65.0722 43.8948C64.8115 43.2148 64.6812 42.4045 64.6812 41.4638V36.3468C64.6812 35.3948 64.8115 34.5845 65.0722 33.9158C65.3329 33.2472 65.7635 32.7372 66.3642 32.3858C66.9649 32.0232 67.7809 31.8418 68.8122 31.8418C69.8549 31.8418 70.6765 32.0232 71.2772 32.3858C71.8892 32.7372 72.3255 33.2472 72.5862 33.9158C72.8469 34.5845 72.9772 35.3948 72.9772 36.3468V41.4638C72.9772 42.4045 72.8469 43.2148 72.5862 43.8948C72.3255 44.5748 71.8892 45.0962 71.2772 45.4588C70.6765 45.8215 69.8549 46.0028 68.8122 46.0028ZM68.8122 43.8438C69.1295 43.8438 69.3619 43.7645 69.5092 43.6058C69.6565 43.4472 69.7529 43.2432 69.7982 42.9938C69.8435 42.7445 69.8662 42.4895 69.8662 42.2288V35.5988C69.8662 35.3268 69.8435 35.0718 69.7982 34.8338C69.7529 34.5845 69.6565 34.3805 69.5092 34.2218C69.3619 34.0632 69.1295 33.9838 68.8122 33.9838C68.5175 33.9838 68.2965 34.0632 68.1492 34.2218C68.0019 34.3805 67.9055 34.5845 67.8602 34.8338C67.8149 35.0718 67.7922 35.3268 67.7922 35.5988V42.2288C67.7922 42.4895 67.8092 42.7445 67.8432 42.9938C67.8885 43.2432 67.9792 43.4472 68.1152 43.6058C68.2625 43.7645 68.4949 43.8438 68.8122 43.8438ZM73.9791 45.7988V32.0288H77.0221V43.7418H80.1841V45.7988H73.9791ZM84.3944 46.0028C83.3631 46.0028 82.5471 45.8215 81.9464 45.4588C81.3458 45.0962 80.9151 44.5748 80.6544 43.8948C80.3938 43.2148 80.2634 42.4045 80.2634 41.4638V36.3468C80.2634 35.3948 80.3938 34.5845 80.6544 33.9158C80.9151 33.2472 81.3458 32.7372 81.9464 32.3858C82.5471 32.0232 83.3631 31.8418 84.3944 31.8418C85.4371 31.8418 86.2588 32.0232 86.8594 32.3858C87.4714 32.7372 87.9078 33.2472 88.1684 33.9158C88.4291 34.5845 88.5594 35.3948 88.5594 36.3468V41.4638C88.5594 42.4045 88.4291 43.2148 88.1684 43.8948C87.9078 44.5748 87.4714 45.0962 86.8594 45.4588C86.2588 45.8215 85.4371 46.0028 84.3944 46.0028ZM84.3944 43.8438C84.7118 43.8438 84.9441 43.7645 85.0914 43.6058C85.2388 43.4472 85.3351 43.2432 85.3804 42.9938C85.4258 42.7445 85.4484 42.4895 85.4484 42.2288V35.5988C85.4484 35.3268 85.4258 35.0718 85.3804 34.8338C85.3351 34.5845 85.2388 34.3805 85.0914 34.2218C84.9441 34.0632 84.7118 33.9838 84.3944 33.9838C84.0998 33.9838 83.8788 34.0632 83.7314 34.2218C83.5841 34.3805 83.4878 34.5845 83.4424 34.8338C83.3971 35.0718 83.3744 35.3268 83.3744 35.5988V42.2288C83.3744 42.4895 83.3914 42.7445 83.4254 42.9938C83.4708 43.2432 83.5614 43.4472 83.6974 43.6058C83.8448 43.7645 84.0771 43.8438 84.3944 43.8438ZM93.1484 46.0028C92.1964 46.0028 91.4427 45.8045 90.8874 45.4078C90.3434 45.0112 89.9524 44.4558 89.7144 43.7418C89.4877 43.0165 89.3744 42.1835 89.3744 41.2428V36.6188C89.3744 35.6442 89.499 34.7998 89.7484 34.0858C89.9977 33.3718 90.4227 32.8222 91.0234 32.4368C91.6354 32.0402 92.4627 31.8418 93.5054 31.8418C94.5254 31.8418 95.3244 32.0118 95.9024 32.3518C96.4917 32.6918 96.911 33.1622 97.1604 33.7628C97.4097 34.3635 97.5344 35.0662 97.5344 35.8708V36.7548H94.5594V35.6328C94.5594 35.3382 94.5367 35.0662 94.4914 34.8168C94.4574 34.5675 94.3667 34.3692 94.2194 34.2218C94.0834 34.0632 93.8567 33.9838 93.5394 33.9838C93.2107 33.9838 92.9727 34.0745 92.8254 34.2558C92.678 34.4258 92.5817 34.6412 92.5364 34.9018C92.5024 35.1625 92.4854 35.4345 92.4854 35.7178V42.0928C92.4854 42.3988 92.5137 42.6878 92.5704 42.9598C92.6384 43.2205 92.7517 43.4358 92.9104 43.6058C93.0804 43.7645 93.3184 43.8438 93.6244 43.8438C93.9417 43.8438 94.1854 43.7588 94.3554 43.5888C94.5254 43.4188 94.6444 43.1978 94.7124 42.9258C94.7804 42.6538 94.8144 42.3648 94.8144 42.0588V40.4438H93.5734V38.6588H97.5514V45.7988H95.5454L95.3754 44.6598C95.194 45.0452 94.9277 45.3682 94.5764 45.6288C94.225 45.8782 93.749 46.0028 93.1484 46.0028ZM100.074 45.7988V40.1718L97.4563 32.0288H100.329L101.638 36.3808L102.811 32.0288H105.565L102.998 40.1718V45.7988H100.074ZM56.5086 64.0028C55.6473 64.0028 54.9276 63.8498 54.3496 63.5438C53.7716 63.2378 53.3353 62.7675 53.0406 62.1328C52.746 61.4868 52.5816 60.6538 52.5476 59.6338L55.1486 59.2428C55.16 59.8322 55.211 60.3082 55.3016 60.6708C55.4036 61.0335 55.5396 61.2942 55.7096 61.4528C55.891 61.6115 56.1063 61.6908 56.3556 61.6908C56.673 61.6908 56.877 61.5832 56.9676 61.3678C57.0696 61.1525 57.1206 60.9258 57.1206 60.6878C57.1206 60.1212 56.9846 59.6452 56.7126 59.2598C56.4406 58.8632 56.0723 58.4665 55.6076 58.0698L54.4176 57.0328C53.8963 56.5908 53.4543 56.0922 53.0916 55.5368C52.7403 54.9702 52.5646 54.2732 52.5646 53.4458C52.5646 52.2785 52.9103 51.3888 53.6016 50.7768C54.293 50.1535 55.2336 49.8418 56.4236 49.8418C57.1603 49.8418 57.7496 49.9665 58.1916 50.2158C58.645 50.4652 58.985 50.7938 59.2116 51.2018C59.4496 51.5985 59.6083 52.0235 59.6876 52.4768C59.7783 52.9188 59.8293 53.3438 59.8406 53.7518L57.2226 54.0748C57.2113 53.6668 57.183 53.3155 57.1376 53.0208C57.1036 52.7148 57.0243 52.4825 56.8996 52.3238C56.775 52.1538 56.5823 52.0688 56.3216 52.0688C56.0383 52.0688 55.8286 52.1878 55.6926 52.4258C55.568 52.6638 55.5056 52.9018 55.5056 53.1398C55.5056 53.6498 55.6246 54.0692 55.8626 54.3978C56.112 54.7152 56.435 55.0495 56.8316 55.4008L57.9706 56.4038C58.5713 56.9138 59.0756 57.4918 59.4836 58.1378C59.903 58.7838 60.1126 59.5828 60.1126 60.5348C60.1126 61.1808 59.9653 61.7702 59.6706 62.3028C59.376 62.8242 58.9566 63.2378 58.4126 63.5438C57.88 63.8498 57.2453 64.0028 56.5086 64.0028ZM64.6801 64.0028C63.6374 64.0028 62.8101 63.8158 62.1981 63.4418C61.5974 63.0565 61.1724 62.5238 60.9231 61.8438C60.6737 61.1525 60.5491 60.3422 60.5491 59.4128V54.4488C60.5491 53.4968 60.6737 52.6808 60.9231 52.0008C61.1724 51.3095 61.5974 50.7768 62.1981 50.4028C62.8101 50.0288 63.6374 49.8418 64.6801 49.8418C65.7001 49.8418 66.4934 50.0118 67.0601 50.3518C67.6381 50.6805 68.0461 51.1452 68.2841 51.7458C68.5221 52.3465 68.6411 53.0378 68.6411 53.8198V55.0098H65.6661V53.6328C65.6661 53.3608 65.6491 53.1002 65.6151 52.8508C65.5924 52.6015 65.5131 52.3975 65.3771 52.2388C65.2411 52.0688 65.0087 51.9838 64.6801 51.9838C64.3627 51.9838 64.1247 52.0688 63.9661 52.2388C63.8187 52.4088 63.7224 52.6242 63.6771 52.8848C63.6431 53.1342 63.6261 53.4005 63.6261 53.6838V60.1608C63.6261 60.4668 63.6487 60.7502 63.6941 61.0108C63.7507 61.2602 63.8527 61.4642 64.0001 61.6228C64.1587 61.7702 64.3854 61.8438 64.6801 61.8438C64.9974 61.8438 65.2241 61.7645 65.3601 61.6058C65.4961 61.4358 65.5811 61.2205 65.6151 60.9598C65.6491 60.6992 65.6661 60.4328 65.6661 60.1608V58.7158H68.6411V59.9058C68.6411 60.6878 68.5221 61.3905 68.2841 62.0138C68.0574 62.6258 67.6551 63.1132 67.0771 63.4758C66.5104 63.8272 65.7114 64.0028 64.6801 64.0028ZM68.8022 63.7988L71.4032 50.0288H74.8712L77.4382 63.7988H74.6332L74.1742 60.8918H72.1512L71.6752 63.7988H68.8022ZM72.4232 59.0728H73.8852L73.1542 53.7008L72.4232 59.0728ZM77.9785 63.7988V50.0288H80.1205L82.9425 56.6588V50.0288H85.4585V63.7988H83.4015L80.5795 56.6588V63.7988H77.9785Z" fill="white"/>
<path d="M40.3818 75.1348C40.3487 74.8246 40.209 74.5832 39.9628 74.4103C39.719 74.2375 39.4017 74.1511 39.0111 74.1511C38.7365 74.1511 38.5009 74.1925 38.3044 74.2754C38.1079 74.3583 37.9576 74.4707 37.8534 74.6127C37.7493 74.7548 37.696 74.917 37.6936 75.0993C37.6936 75.2508 37.728 75.3822 37.7966 75.4934C37.8676 75.6047 37.9635 75.6994 38.0843 75.7775C38.205 75.8533 38.3388 75.9172 38.4855 75.9693C38.6323 76.0214 38.7803 76.0652 38.9294 76.1007L39.6112 76.2711C39.8859 76.335 40.1498 76.4215 40.4031 76.5304C40.6588 76.6393 40.8873 76.7766 41.0885 76.9423C41.2921 77.108 41.4531 77.3081 41.5715 77.5424C41.6898 77.7768 41.749 78.0514 41.749 78.3663C41.749 78.7924 41.6401 79.1677 41.4223 79.492C41.2045 79.814 40.8897 80.0661 40.4777 80.2484C40.0682 80.4283 39.5722 80.5183 38.9898 80.5183C38.424 80.5183 37.9327 80.4307 37.5161 80.2555C37.1018 80.0803 36.7774 79.8246 36.5431 79.4885C36.3111 79.1523 36.1856 78.7427 36.1666 78.2598H37.4628C37.4817 78.5131 37.5599 78.7238 37.6972 78.8919C37.8345 79.06 38.0132 79.1854 38.2334 79.2683C38.4559 79.3511 38.7045 79.3926 38.9791 79.3926C39.2656 79.3926 39.5165 79.35 39.732 79.2647C39.9498 79.1771 40.1202 79.0564 40.2433 78.9025C40.3664 78.7463 40.4292 78.564 40.4316 78.3556C40.4292 78.1663 40.3736 78.01 40.2647 77.8869C40.1557 77.7614 40.003 77.6573 39.8066 77.5744C39.6124 77.4892 39.3852 77.4134 39.1247 77.3471L38.2973 77.1341C37.6984 76.9802 37.2249 76.747 36.8769 76.4345C36.5312 76.1196 36.3584 75.7018 36.3584 75.1809C36.3584 74.7524 36.4744 74.3772 36.7064 74.0552C36.9408 73.7333 37.2592 73.4835 37.6617 73.3059C38.0641 73.126 38.5199 73.036 39.0289 73.036C39.545 73.036 39.9971 73.126 40.3854 73.3059C40.776 73.4835 41.0826 73.7309 41.3051 74.0481C41.5277 74.363 41.6425 74.7252 41.6496 75.1348H40.3818ZM45.5905 74.9537V75.948H42.4548V74.9537H45.5905ZM43.229 73.6468H44.5145V78.7676C44.5145 78.9404 44.5405 79.073 44.5926 79.1653C44.647 79.2553 44.7181 79.3168 44.8057 79.35C44.8933 79.3831 44.9903 79.3997 45.0969 79.3997C45.1774 79.3997 45.2507 79.3938 45.317 79.3819C45.3857 79.3701 45.4378 79.3594 45.4733 79.35L45.6899 80.3549C45.6212 80.3786 45.523 80.4047 45.3952 80.4331C45.2697 80.4615 45.1158 80.478 44.9335 80.4828C44.6115 80.4922 44.3215 80.4437 44.0635 80.3372C43.8054 80.2283 43.6006 80.0602 43.4491 79.8329C43.3 79.6056 43.2266 79.3216 43.229 78.9806V73.6468ZM48.2352 80.5183C47.8895 80.5183 47.5782 80.4567 47.3012 80.3336C47.0266 80.2082 46.8088 80.0235 46.6478 79.7797C46.4892 79.5358 46.4099 79.2351 46.4099 78.8777C46.4099 78.5699 46.4667 78.3154 46.5803 78.1142C46.694 77.9129 46.849 77.752 47.0455 77.6312C47.242 77.5105 47.4634 77.4193 47.7096 77.3578C47.9582 77.2939 48.2151 77.2477 48.4802 77.2193C48.7998 77.1861 49.059 77.1565 49.2579 77.1305C49.4568 77.1021 49.6012 77.0595 49.6911 77.0027C49.7835 76.9435 49.8296 76.8523 49.8296 76.7292V76.7079C49.8296 76.4404 49.7503 76.2333 49.5917 76.0865C49.4331 75.9397 49.2046 75.8663 48.9063 75.8663C48.5915 75.8663 48.3417 75.935 48.1571 76.0723C47.9748 76.2096 47.8517 76.3717 47.7877 76.5588L46.5874 76.3883C46.6821 76.0569 46.8384 75.7799 47.0562 75.5574C47.274 75.3324 47.5403 75.1644 47.8552 75.0531C48.1701 74.9395 48.5181 74.8826 48.8992 74.8826C49.162 74.8826 49.4236 74.9134 49.684 74.975C49.9445 75.0365 50.1824 75.1383 50.3978 75.2804C50.6133 75.42 50.7861 75.6106 50.9163 75.8521C51.0489 76.0936 51.1151 76.3954 51.1151 76.7576V80.4082H49.8794V79.6589H49.8367C49.7586 79.8104 49.6485 79.9525 49.5065 80.085C49.3668 80.2153 49.1904 80.3206 48.9774 80.4011C48.7667 80.4792 48.5193 80.5183 48.2352 80.5183ZM48.569 79.5737C48.827 79.5737 49.0508 79.5228 49.2401 79.421C49.4295 79.3168 49.5751 79.1795 49.6769 79.0091C49.7811 78.8386 49.8332 78.6528 49.8332 78.4515V77.8088C49.7929 77.8419 49.7243 77.8727 49.6272 77.9011C49.5325 77.9295 49.426 77.9544 49.3076 77.9757C49.1892 77.997 49.0721 78.0159 48.9561 78.0325C48.8401 78.0491 48.7394 78.0633 48.6542 78.0751C48.4624 78.1011 48.2908 78.1438 48.1393 78.2029C47.9878 78.2621 47.8682 78.345 47.7806 78.4515C47.693 78.5557 47.6492 78.6906 47.6492 78.8564C47.6492 79.0931 47.7356 79.2718 47.9085 79.3926C48.0813 79.5133 48.3015 79.5737 48.569 79.5737ZM52.4078 80.4082V74.9537H53.6542V75.8627H53.711C53.8105 75.5479 53.9809 75.3052 54.2224 75.1348C54.4662 74.9619 54.7444 74.8755 55.0569 74.8755C55.1279 74.8755 55.2072 74.8791 55.2948 74.8862C55.3848 74.8909 55.4594 74.8992 55.5186 74.911V76.0936C55.4641 76.0746 55.3777 76.0581 55.2593 76.0439C55.1433 76.0273 55.0309 76.019 54.922 76.019C54.6876 76.019 54.4769 76.0699 54.2899 76.1717C54.1052 76.2711 53.9596 76.4096 53.8531 76.5872C53.7465 76.7647 53.6933 76.9695 53.6933 77.2015V80.4082H52.4078ZM59.3893 74.9537V75.948H56.2536V74.9537H59.3893ZM57.0278 73.6468H58.3133V78.7676C58.3133 78.9404 58.3393 79.073 58.3914 79.1653C58.4459 79.2553 58.5169 79.3168 58.6045 79.35C58.6921 79.3831 58.7892 79.3997 58.8957 79.3997C58.9762 79.3997 59.0496 79.3938 59.1159 79.3819C59.1845 79.3701 59.2366 79.3594 59.2721 79.35L59.4887 80.3549C59.4201 80.3786 59.3218 80.4047 59.194 80.4331C59.0685 80.4615 58.9146 80.478 58.7323 80.4828C58.4104 80.4922 58.1204 80.4437 57.8623 80.3372C57.6043 80.2283 57.3995 80.0602 57.248 79.8329C57.0988 79.6056 57.0254 79.3216 57.0278 78.9806V73.6468ZM60.4644 80.4082V74.9537H61.7499V80.4082H60.4644ZM61.1107 74.1795C60.9071 74.1795 60.7319 74.112 60.5851 73.9771C60.4384 73.8398 60.365 73.6752 60.365 73.4835C60.365 73.2894 60.4384 73.1248 60.5851 72.9899C60.7319 72.8526 60.9071 72.7839 61.1107 72.7839C61.3167 72.7839 61.4919 72.8526 61.6363 72.9899C61.7831 73.1248 61.8564 73.2894 61.8564 73.4835C61.8564 73.6752 61.7831 73.8398 61.6363 73.9771C61.4919 74.112 61.3167 74.1795 61.1107 74.1795ZM64.3573 77.2122V80.4082H63.0718V74.9537H64.3005V75.8805H64.3644C64.4899 75.5751 64.69 75.3324 64.9646 75.1525C65.2416 74.9726 65.5837 74.8826 65.9909 74.8826C66.3673 74.8826 66.6952 74.9631 66.9745 75.1241C67.2562 75.2851 67.474 75.5183 67.6279 75.8237C67.7842 76.1291 67.8611 76.4996 67.8588 76.9352V80.4082H66.5732V77.1341C66.5732 76.7695 66.4785 76.4842 66.2892 76.2782C66.1021 76.0723 65.8429 75.9693 65.5115 75.9693C65.2865 75.9693 65.0865 76.019 64.9113 76.1184C64.7385 76.2155 64.6024 76.3564 64.5029 76.541C64.4059 76.7257 64.3573 76.9494 64.3573 77.2122ZM71.5377 82.5673C71.0761 82.5673 70.6795 82.5046 70.3481 82.3791C70.0167 82.256 69.7503 82.0903 69.5491 81.8819C69.3479 81.6736 69.2082 81.4428 69.1301 81.1895L70.2877 80.9089C70.3398 81.0154 70.4156 81.1208 70.515 81.225C70.6144 81.3315 70.7482 81.4191 70.9163 81.4877C71.0867 81.5588 71.301 81.5943 71.559 81.5943C71.9236 81.5943 72.2255 81.5055 72.4646 81.3279C72.7037 81.1528 72.8232 80.8639 72.8232 80.4615V79.4281H72.7593C72.693 79.5607 72.596 79.6968 72.4681 79.8365C72.3427 79.9761 72.1758 80.0933 71.9674 80.188C71.7615 80.2827 71.5022 80.3301 71.1897 80.3301C70.7707 80.3301 70.3907 80.2318 70.0498 80.0353C69.7113 79.8365 69.4414 79.5405 69.2401 79.1475C69.0413 78.7522 68.9419 78.2574 68.9419 77.6632C68.9419 77.0642 69.0413 76.5588 69.2401 76.1468C69.4414 75.7325 69.7124 75.4189 70.0534 75.2058C70.3943 74.9904 70.7742 74.8826 71.1933 74.8826C71.5129 74.8826 71.7757 74.9371 71.9816 75.046C72.19 75.1525 72.3557 75.2815 72.4788 75.4331C72.6019 75.5822 72.6954 75.7231 72.7593 75.8556H72.8303V74.9537H74.0981V80.497C74.0981 80.9634 73.9868 81.3493 73.7643 81.6547C73.5418 81.96 73.2375 82.1885 72.8517 82.34C72.4658 82.4915 72.0278 82.5673 71.5377 82.5673ZM71.5484 79.3216C71.8206 79.3216 72.0526 79.2553 72.2444 79.1227C72.4362 78.9901 72.5818 78.7995 72.6812 78.551C72.7806 78.3024 72.8303 78.0041 72.8303 77.6561C72.8303 77.3128 72.7806 77.0121 72.6812 76.7541C72.5841 76.496 72.4397 76.296 72.248 76.1539C72.0586 76.0095 71.8254 75.9373 71.5484 75.9373C71.2619 75.9373 71.0228 76.0119 70.8311 76.161C70.6393 76.3102 70.4949 76.515 70.3978 76.7754C70.3008 77.0334 70.2522 77.327 70.2522 77.6561C70.2522 77.9899 70.3008 78.2823 70.3978 78.5332C70.4972 78.7818 70.6428 78.9759 70.8346 79.1156C71.0287 79.2529 71.2667 79.3216 71.5484 79.3216ZM77.9529 80.4082V73.1355H82.612V74.2399H79.2703V76.2143H82.2923V77.3187H79.2703V80.4082H77.9529ZM83.6773 80.4082V74.9537H84.9237V75.8627H84.9806C85.08 75.5479 85.2504 75.3052 85.4919 75.1348C85.7358 74.9619 86.0139 74.8755 86.3264 74.8755C86.3975 74.8755 86.4768 74.8791 86.5644 74.8862C86.6543 74.8909 86.7289 74.8992 86.7881 74.911V76.0936C86.7336 76.0746 86.6472 76.0581 86.5289 76.0439C86.4129 76.0273 86.3004 76.019 86.1915 76.019C85.9571 76.019 85.7464 76.0699 85.5594 76.1717C85.3747 76.2711 85.2291 76.4096 85.1226 76.5872C85.0161 76.7647 84.9628 76.9695 84.9628 77.2015V80.4082H83.6773ZM89.7968 80.5147C89.2641 80.5147 88.8025 80.3975 88.4118 80.1632C88.0212 79.9288 87.7182 79.6009 87.5028 79.1795C87.2897 78.7581 87.1832 78.2657 87.1832 77.7022C87.1832 77.1388 87.2897 76.6452 87.5028 76.2214C87.7182 75.7976 88.0212 75.4686 88.4118 75.2342C88.8025 74.9998 89.2641 74.8826 89.7968 74.8826C90.3295 74.8826 90.7911 74.9998 91.1817 75.2342C91.5724 75.4686 91.8742 75.7976 92.0873 76.2214C92.3027 76.6452 92.4104 77.1388 92.4104 77.7022C92.4104 78.2657 92.3027 78.7581 92.0873 79.1795C91.8742 79.6009 91.5724 79.9288 91.1817 80.1632C90.7911 80.3975 90.3295 80.5147 89.7968 80.5147ZM89.8039 79.4849C90.0927 79.4849 90.3342 79.4056 90.5283 79.247C90.7225 79.086 90.8669 78.8706 90.9616 78.6007C91.0586 78.3308 91.1072 78.0301 91.1072 77.6987C91.1072 77.3649 91.0586 77.063 90.9616 76.7931C90.8669 76.5209 90.7225 76.3043 90.5283 76.1433C90.3342 75.9823 90.0927 75.9018 89.8039 75.9018C89.508 75.9018 89.2618 75.9823 89.0653 76.1433C88.8711 76.3043 88.7255 76.5209 88.6285 76.7931C88.5338 77.063 88.4864 77.3649 88.4864 77.6987C88.4864 78.0301 88.5338 78.3308 88.6285 78.6007C88.7255 78.8706 88.8711 79.086 89.0653 79.247C89.2618 79.4056 89.508 79.4849 89.8039 79.4849ZM93.5015 80.4082V74.9537H94.7302V75.8805H94.7941C94.9078 75.568 95.096 75.3242 95.3588 75.149C95.6215 74.9714 95.9352 74.8826 96.2998 74.8826C96.6691 74.8826 96.9804 74.9726 97.2338 75.1525C97.4894 75.3301 97.6694 75.5727 97.7735 75.8805H97.8303C97.9511 75.5775 98.1547 75.336 98.4411 75.1561C98.73 74.9738 99.0721 74.8826 99.4674 74.8826C99.9693 74.8826 100.379 75.0413 100.696 75.3585C101.013 75.6757 101.172 76.1386 101.172 76.747V80.4082H99.8829V76.9458C99.8829 76.6073 99.7929 76.3599 99.613 76.2037C99.4331 76.045 99.2129 75.9657 98.9525 75.9657C98.6424 75.9657 98.3997 76.0628 98.2245 76.2569C98.0517 76.4487 97.9653 76.6984 97.9653 77.0062V80.4082H96.7046V76.8926C96.7046 76.6109 96.6194 76.3859 96.449 76.2179C96.2809 76.0498 96.0607 75.9657 95.7884 75.9657C95.6038 75.9657 95.4357 76.0131 95.2842 76.1078C95.1327 76.2001 95.0119 76.3315 94.922 76.502C94.832 76.67 94.787 76.8665 94.787 77.0914V80.4082H93.5015Z" fill="white"/>
<path d="M65.2123 119.97C65.2123 120.754 65.0655 121.425 64.772 121.984C64.4808 122.54 64.0831 122.966 63.5788 123.262C63.0769 123.558 62.5075 123.706 61.8707 123.706C61.2339 123.706 60.6633 123.558 60.1591 123.262C59.6572 122.964 59.2594 122.536 58.9659 121.98C58.6747 121.421 58.5291 120.751 58.5291 119.97C58.5291 119.186 58.6747 118.516 58.9659 117.96C59.2594 117.401 59.6572 116.974 60.1591 116.678C60.6633 116.382 61.2339 116.234 61.8707 116.234C62.5075 116.234 63.0769 116.382 63.5788 116.678C64.0831 116.974 64.4808 117.401 64.772 117.96C65.0655 118.516 65.2123 119.186 65.2123 119.97ZM63.8878 119.97C63.8878 119.418 63.8013 118.953 63.6285 118.574C63.4581 118.193 63.2213 117.906 62.9183 117.712C62.6153 117.515 62.2661 117.417 61.8707 117.417C61.4754 117.417 61.1262 117.515 60.8231 117.712C60.5201 117.906 60.2822 118.193 60.1093 118.574C59.9389 118.953 59.8537 119.418 59.8537 119.97C59.8537 120.522 59.9389 120.988 60.1093 121.369C60.2822 121.748 60.5201 122.036 60.8231 122.232C61.1262 122.426 61.4754 122.523 61.8707 122.523C62.2661 122.523 62.6153 122.426 62.9183 122.232C63.2213 122.036 63.4581 121.748 63.6285 121.369C63.8013 120.988 63.8878 120.522 63.8878 119.97ZM67.6866 120.41V123.606H66.4011V118.152H67.6298V119.079H67.6937C67.8192 118.773 68.0192 118.531 68.2938 118.351C68.5708 118.171 68.9129 118.081 69.3201 118.081C69.6965 118.081 70.0244 118.161 70.3038 118.322C70.5855 118.483 70.8033 118.717 70.9572 119.022C71.1134 119.327 71.1904 119.698 71.188 120.133V123.606H69.9025V120.332C69.9025 119.968 69.8078 119.682 69.6184 119.476C69.4314 119.271 69.1721 119.168 68.8407 119.168C68.6158 119.168 68.4158 119.217 68.2406 119.317C68.0677 119.414 67.9316 119.555 67.8322 119.739C67.7351 119.924 67.6866 120.148 67.6866 120.41ZM73.7803 116.334V123.606H72.4948V116.334H73.7803ZM75.9013 125.652C75.7261 125.652 75.5639 125.638 75.4147 125.609C75.268 125.583 75.1508 125.552 75.0632 125.517L75.3615 124.516C75.5485 124.57 75.7154 124.596 75.8622 124.594C76.009 124.591 76.138 124.545 76.2493 124.455C76.3629 124.368 76.4588 124.221 76.5369 124.015L76.647 123.72L74.669 118.152H76.0326L77.2897 122.271H77.3466L78.6072 118.152H79.9744L77.7905 124.267C77.6887 124.556 77.5537 124.803 77.3856 125.009C77.2175 125.217 77.0116 125.376 76.7677 125.485C76.5263 125.596 76.2374 125.652 75.9013 125.652Z" fill="white"/>
<mask id="mask0_81_29667" style="mask-type:alpha" maskUnits="userSpaceOnUse" x="6" y="87" width="126" height="26">
<rect x="6.58838" y="87.1631" width="125.144" height="24.9411" fill="#D9D9D9"/>
</mask>
<g mask="url(#mask0_81_29667)">
<circle cx="69.1604" cy="69.4812" r="62.572" fill="#F7941D"/>
</g>
<path d="M38.7942 105.611V93.2477H43.672C44.6057 93.2477 45.4026 93.4147 46.0626 93.7488C46.7267 94.0788 47.2318 94.5476 47.5779 95.1554C47.928 95.7591 48.1031 96.4694 48.1031 97.2864C48.1031 98.1074 47.926 98.8137 47.5719 99.4054C47.2177 99.993 46.7046 100.444 46.0324 100.758C45.3644 101.072 44.5554 101.229 43.6056 101.229H40.3396V99.1277H43.183C43.6821 99.1277 44.0966 99.0592 44.4266 98.9224C44.7566 98.7856 45.0021 98.5803 45.1631 98.3066C45.3281 98.033 45.4106 97.6929 45.4106 97.2864C45.4106 96.8759 45.3281 96.5298 45.1631 96.248C45.0021 95.9663 44.7546 95.753 44.4206 95.6081C44.0906 95.4592 43.674 95.3848 43.1709 95.3848H41.4082V105.611H38.7942ZM45.471 99.9849L48.5438 105.611H45.6582L42.6518 99.9849H45.471ZM57.6173 98.9828L55.2629 99.1277C55.2227 98.9264 55.1361 98.7453 55.0033 98.5843C54.8705 98.4193 54.6954 98.2885 54.4781 98.1919C54.2648 98.0913 54.0092 98.041 53.7114 98.041C53.313 98.041 52.9769 98.1255 52.7033 98.2946C52.4296 98.4596 52.2927 98.6809 52.2927 98.9586C52.2927 99.18 52.3813 99.3671 52.5584 99.5201C52.7354 99.673 53.0393 99.7958 53.4699 99.8883L55.1482 100.226C56.0497 100.412 56.7218 100.709 57.1645 101.12C57.6073 101.53 57.8286 102.07 57.8286 102.738C57.8286 103.345 57.6495 103.879 57.2913 104.338C56.9372 104.796 56.4502 105.155 55.8304 105.412C55.2146 105.666 54.5043 105.792 53.6993 105.792C52.4718 105.792 51.4939 105.537 50.7654 105.026C50.041 104.511 49.6164 103.81 49.4916 102.925L52.0211 102.792C52.0975 103.166 52.2827 103.452 52.5765 103.649C52.8703 103.843 53.2466 103.939 53.7054 103.939C54.1561 103.939 54.5184 103.853 54.792 103.68C55.0697 103.502 55.2106 103.275 55.2146 102.997C55.2106 102.764 55.112 102.573 54.9188 102.424C54.7256 102.271 54.4278 102.154 54.0253 102.074L52.4195 101.754C51.514 101.573 50.8399 101.259 50.3971 100.812C49.9585 100.365 49.7391 99.7958 49.7391 99.1035C49.7391 98.5079 49.9001 97.9947 50.2221 97.5641C50.5481 97.1335 51.0049 96.8014 51.5925 96.568C52.1841 96.3346 52.8763 96.2179 53.6692 96.2179C54.8403 96.2179 55.762 96.4654 56.4341 96.9604C57.1102 97.4554 57.5046 98.1296 57.6173 98.9828ZM60.9512 105.768C60.5528 105.768 60.2107 105.627 59.9249 105.346C59.6432 105.06 59.5023 104.718 59.5023 104.319C59.5023 103.925 59.6432 103.587 59.9249 103.305C60.2107 103.023 60.5528 102.883 60.9512 102.883C61.3376 102.883 61.6756 103.023 61.9654 103.305C62.2552 103.587 62.4001 103.925 62.4001 104.319C62.4001 104.585 62.3317 104.829 62.1948 105.05C62.062 105.267 61.8869 105.442 61.6696 105.575C61.4523 105.704 61.2128 105.768 60.9512 105.768ZM67.0108 93.2477L69.504 97.4615H69.6006L72.1059 93.2477H75.058L71.2849 99.4295L75.1425 105.611H72.1361L69.6006 101.392H69.504L66.9685 105.611H63.9742L67.8439 99.4295L64.0466 93.2477H67.0108ZM79.1631 93.2477L81.6564 97.4615H81.753L84.2583 93.2477H87.2104L83.4373 99.4295L87.2949 105.611H84.2885L81.753 101.392H81.6564L79.1209 105.611H76.1265L79.9962 99.4295L76.199 93.2477H79.1631ZM91.3155 93.2477L93.8087 97.4615H93.9053L96.4106 93.2477H99.3627L95.5896 99.4295L99.4472 105.611H96.4408L93.9053 101.392H93.8087L91.2732 105.611H88.2789L92.1486 99.4295L88.3513 93.2477H91.3155Z" fill="white"/>
</svg>
