<svg width="287" height="288" viewBox="0 0 287 288" fill="none" xmlns="http://www.w3.org/2000/svg">
<g filter="url(#filter0_d_193_42517)">
<circle cx="133.227" cy="134.891" r="119.227" fill="#46226D"/>
<circle cx="133.227" cy="134.89" r="107.703" fill="#46226D" stroke="#F7941D" stroke-width="2" stroke-dasharray="5 5"/>
<path d="M70.5388 94.7412V70.4412H77.2288C78.8688 70.4412 80.2888 70.6212 81.4888 70.9812C82.6888 71.3412 83.6188 71.9912 84.2788 72.9312C84.9588 73.8512 85.2988 75.1612 85.2988 76.8612C85.2988 77.8612 85.2188 78.7512 85.0588 79.5312C84.8988 80.3112 84.5988 80.9912 84.1588 81.5712C83.7388 82.1312 83.1288 82.6012 82.3288 82.9812L85.6588 94.7412H80.1088L77.4388 83.8512H75.9088V94.7412H70.5388ZM75.9088 80.7612H77.4088C78.1688 80.7612 78.7588 80.6312 79.1788 80.3712C79.5988 80.0912 79.8888 79.7012 80.0488 79.2012C80.2288 78.6812 80.3188 78.0612 80.3188 77.3412C80.3188 76.3012 80.1288 75.4912 79.7488 74.9112C79.3688 74.3312 78.6688 74.0412 77.6488 74.0412H75.9088V80.7612ZM85.8571 94.7412L90.4471 70.4412H96.5671L101.097 94.7412H96.1471L95.3371 89.6112H91.7671L90.9271 94.7412H85.8571ZM92.2471 86.4012H94.8271L93.5371 76.9212L92.2471 86.4012ZM102.051 94.7412V70.4412H108.201C110.321 70.4412 111.971 70.7112 113.151 71.2512C114.331 71.7712 115.161 72.6012 115.641 73.7412C116.121 74.8612 116.361 76.3212 116.361 78.1212V86.9412C116.361 88.7612 116.121 90.2512 115.641 91.4112C115.161 92.5512 114.331 93.3912 113.151 93.9312C111.991 94.4712 110.361 94.7412 108.261 94.7412H102.051ZM107.421 91.0212H108.261C109.081 91.0212 109.671 90.9012 110.031 90.6612C110.391 90.4212 110.611 90.0612 110.691 89.5812C110.791 89.1012 110.841 88.5012 110.841 87.7812V77.1912C110.841 76.4712 110.781 75.8912 110.661 75.4512C110.561 75.0112 110.331 74.6912 109.971 74.4912C109.611 74.2912 109.031 74.1912 108.231 74.1912H107.421V91.0212ZM118.159 94.7412V70.4412H123.529V94.7412H118.159ZM132.612 95.1012C130.792 95.1012 129.352 94.7812 128.292 94.1412C127.232 93.5012 126.472 92.5812 126.012 91.3812C125.552 90.1812 125.322 88.7512 125.322 87.0912V78.0612C125.322 76.3812 125.552 74.9512 126.012 73.7712C126.472 72.5912 127.232 71.6912 128.292 71.0712C129.352 70.4312 130.792 70.1112 132.612 70.1112C134.452 70.1112 135.902 70.4312 136.962 71.0712C138.042 71.6912 138.812 72.5912 139.272 73.7712C139.732 74.9512 139.962 76.3812 139.962 78.0612V87.0912C139.962 88.7512 139.732 90.1812 139.272 91.3812C138.812 92.5812 138.042 93.5012 136.962 94.1412C135.902 94.7812 134.452 95.1012 132.612 95.1012ZM132.612 91.2912C133.172 91.2912 133.582 91.1512 133.842 90.8712C134.102 90.5912 134.272 90.2312 134.352 89.7912C134.432 89.3512 134.472 88.9012 134.472 88.4412V76.7412C134.472 76.2612 134.432 75.8112 134.352 75.3912C134.272 74.9512 134.102 74.5912 133.842 74.3112C133.582 74.0312 133.172 73.8912 132.612 73.8912C132.092 73.8912 131.702 74.0312 131.442 74.3112C131.182 74.5912 131.012 74.9512 130.932 75.3912C130.852 75.8112 130.812 76.2612 130.812 76.7412V88.4412C130.812 88.9012 130.842 89.3512 130.902 89.7912C130.982 90.2312 131.142 90.5912 131.382 90.8712C131.642 91.1512 132.052 91.2912 132.612 91.2912ZM141.73 94.7412V70.4412H147.1V91.1112H152.68V94.7412H141.73ZM160.11 95.1012C158.29 95.1012 156.85 94.7812 155.79 94.1412C154.73 93.5012 153.97 92.5812 153.51 91.3812C153.05 90.1812 152.82 88.7512 152.82 87.0912V78.0612C152.82 76.3812 153.05 74.9512 153.51 73.7712C153.97 72.5912 154.73 71.6912 155.79 71.0712C156.85 70.4312 158.29 70.1112 160.11 70.1112C161.95 70.1112 163.4 70.4312 164.46 71.0712C165.54 71.6912 166.31 72.5912 166.77 73.7712C167.23 74.9512 167.46 76.3812 167.46 78.0612V87.0912C167.46 88.7512 167.23 90.1812 166.77 91.3812C166.31 92.5812 165.54 93.5012 164.46 94.1412C163.4 94.7812 161.95 95.1012 160.11 95.1012ZM160.11 91.2912C160.67 91.2912 161.08 91.1512 161.34 90.8712C161.6 90.5912 161.77 90.2312 161.85 89.7912C161.93 89.3512 161.97 88.9012 161.97 88.4412V76.7412C161.97 76.2612 161.93 75.8112 161.85 75.3912C161.77 74.9512 161.6 74.5912 161.34 74.3112C161.08 74.0312 160.67 73.8912 160.11 73.8912C159.59 73.8912 159.2 74.0312 158.94 74.3112C158.68 74.5912 158.51 74.9512 158.43 75.3912C158.35 75.8112 158.31 76.2612 158.31 76.7412V88.4412C158.31 88.9012 158.34 89.3512 158.4 89.7912C158.48 90.2312 158.64 90.5912 158.88 90.8712C159.14 91.1512 159.55 91.2912 160.11 91.2912ZM175.558 95.1012C173.878 95.1012 172.548 94.7512 171.568 94.0512C170.608 93.3512 169.918 92.3712 169.498 91.1112C169.098 89.8312 168.898 88.3612 168.898 86.7012V78.5412C168.898 76.8212 169.118 75.3312 169.558 74.0712C169.998 72.8112 170.748 71.8412 171.808 71.1612C172.888 70.4612 174.348 70.1112 176.188 70.1112C177.988 70.1112 179.398 70.4112 180.418 71.0112C181.458 71.6112 182.198 72.4412 182.638 73.5012C183.078 74.5612 183.298 75.8012 183.298 77.2212V78.7812H178.048V76.8012C178.048 76.2812 178.008 75.8012 177.928 75.3612C177.868 74.9212 177.708 74.5712 177.448 74.3112C177.208 74.0312 176.808 73.8912 176.248 73.8912C175.668 73.8912 175.248 74.0512 174.988 74.3712C174.728 74.6712 174.558 75.0512 174.478 75.5112C174.418 75.9712 174.388 76.4512 174.388 76.9512V88.2012C174.388 88.7412 174.438 89.2512 174.538 89.7312C174.658 90.1912 174.858 90.5712 175.138 90.8712C175.438 91.1512 175.858 91.2912 176.398 91.2912C176.958 91.2912 177.388 91.1412 177.688 90.8412C177.988 90.5412 178.198 90.1512 178.318 89.6712C178.438 89.1912 178.498 88.6812 178.498 88.1412V85.2912H176.308V82.1412H183.328V94.7412H179.788L179.488 92.7312C179.168 93.4112 178.698 93.9812 178.078 94.4412C177.458 94.8812 176.618 95.1012 175.558 95.1012ZM187.78 94.7412V84.8112L183.16 70.4412H188.23L190.54 78.1212L192.61 70.4412H197.47L192.94 84.8112V94.7412H187.78ZM110.9 125.101C109.38 125.101 108.11 124.831 107.09 124.291C106.07 123.751 105.3 122.921 104.78 121.801C104.26 120.661 103.97 119.191 103.91 117.391L108.5 116.701C108.52 117.741 108.61 118.581 108.77 119.221C108.95 119.861 109.19 120.321 109.49 120.601C109.81 120.881 110.19 121.021 110.63 121.021C111.19 121.021 111.55 120.831 111.71 120.451C111.89 120.071 111.98 119.671 111.98 119.251C111.98 118.251 111.74 117.411 111.26 116.731C110.78 116.031 110.13 115.331 109.31 114.631L107.21 112.801C106.29 112.021 105.51 111.141 104.87 110.161C104.25 109.161 103.94 107.931 103.94 106.471C103.94 104.411 104.55 102.841 105.77 101.761C106.99 100.661 108.65 100.111 110.75 100.111C112.05 100.111 113.09 100.331 113.87 100.771C114.67 101.211 115.27 101.791 115.67 102.511C116.09 103.211 116.37 103.961 116.51 104.761C116.67 105.541 116.76 106.291 116.78 107.011L112.16 107.581C112.14 106.861 112.09 106.241 112.01 105.721C111.95 105.181 111.81 104.771 111.59 104.491C111.37 104.191 111.03 104.041 110.57 104.041C110.07 104.041 109.7 104.251 109.46 104.671C109.24 105.091 109.13 105.511 109.13 105.931C109.13 106.831 109.34 107.571 109.76 108.151C110.2 108.711 110.77 109.301 111.47 109.921L113.48 111.691C114.54 112.591 115.43 113.611 116.15 114.751C116.89 115.891 117.26 117.301 117.26 118.981C117.26 120.121 117 121.161 116.48 122.101C115.96 123.021 115.22 123.751 114.26 124.291C113.32 124.831 112.2 125.101 110.9 125.101ZM125.32 125.101C123.48 125.101 122.02 124.771 120.94 124.111C119.88 123.431 119.13 122.491 118.69 121.291C118.25 120.071 118.03 118.641 118.03 117.001V108.241C118.03 106.561 118.25 105.121 118.69 103.921C119.13 102.701 119.88 101.761 120.94 101.101C122.02 100.441 123.48 100.111 125.32 100.111C127.12 100.111 128.52 100.411 129.52 101.011C130.54 101.591 131.26 102.411 131.68 103.471C132.1 104.531 132.31 105.751 132.31 107.131V109.231H127.06V106.801C127.06 106.321 127.03 105.861 126.97 105.421C126.93 104.981 126.79 104.621 126.55 104.341C126.31 104.041 125.9 103.891 125.32 103.891C124.76 103.891 124.34 104.041 124.06 104.341C123.8 104.641 123.63 105.021 123.55 105.481C123.49 105.921 123.46 106.391 123.46 106.891V118.321C123.46 118.861 123.5 119.361 123.58 119.821C123.68 120.261 123.86 120.621 124.12 120.901C124.4 121.161 124.8 121.291 125.32 121.291C125.88 121.291 126.28 121.151 126.52 120.871C126.76 120.571 126.91 120.191 126.97 119.731C127.03 119.271 127.06 118.801 127.06 118.321V115.771H132.31V117.871C132.31 119.251 132.1 120.491 131.68 121.591C131.28 122.671 130.57 123.531 129.55 124.171C128.55 124.791 127.14 125.101 125.32 125.101ZM132.594 124.741L137.184 100.441H143.304L147.834 124.741H142.884L142.074 119.611H138.504L137.664 124.741H132.594ZM138.984 116.401H141.564L140.274 106.921L138.984 116.401ZM148.788 124.741V100.441H152.568L157.548 112.141V100.441H161.988V124.741H158.358L153.378 112.141V124.741H148.788Z" fill="white"/>
<path d="M78.6122 143.742C78.5492 143.153 78.2838 142.694 77.816 142.366C77.3527 142.037 76.7499 141.873 76.0078 141.873C75.486 141.873 75.0384 141.952 74.6651 142.109C74.2917 142.267 74.0061 142.48 73.8082 142.75C73.6103 143.02 73.5091 143.328 73.5046 143.675C73.5046 143.963 73.5698 144.212 73.7002 144.424C73.8352 144.635 74.0173 144.815 74.2467 144.963C74.4762 145.107 74.7303 145.229 75.0092 145.328C75.2881 145.427 75.5692 145.51 75.8526 145.577L77.148 145.901C77.6698 146.023 78.1713 146.187 78.6526 146.394C79.1384 146.601 79.5725 146.862 79.9548 147.176C80.3417 147.491 80.6476 147.871 80.8725 148.317C81.0974 148.762 81.2098 149.284 81.2098 149.882C81.2098 150.692 81.0029 151.405 80.5891 152.021C80.1753 152.633 79.577 153.112 78.7943 153.458C78.0162 153.8 77.0738 153.971 75.9673 153.971C74.8922 153.971 73.9589 153.804 73.1672 153.472C72.38 153.139 71.7638 152.653 71.3185 152.014C70.8777 151.375 70.6393 150.597 70.6033 149.68H73.066C73.102 150.161 73.2504 150.561 73.5113 150.881C73.7722 151.2 74.1118 151.438 74.5301 151.596C74.953 151.753 75.4253 151.832 75.947 151.832C76.4913 151.832 76.9681 151.751 77.3774 151.589C77.7913 151.423 78.1151 151.193 78.349 150.901C78.5829 150.604 78.7021 150.258 78.7066 149.862C78.7021 149.502 78.5964 149.205 78.3895 148.971C78.1826 148.733 77.8925 148.535 77.5191 148.377C77.1503 148.216 76.7185 148.072 76.2237 147.946L74.6516 147.541C73.5136 147.248 72.6139 146.805 71.9527 146.212C71.296 145.613 70.9676 144.819 70.9676 143.83C70.9676 143.016 71.188 142.303 71.6289 141.691C72.0742 141.079 72.6792 140.605 73.4438 140.267C74.2085 139.926 75.0744 139.755 76.0415 139.755C77.0221 139.755 77.8812 139.926 78.6189 140.267C79.3611 140.605 79.9436 141.075 80.3664 141.678C80.7892 142.276 81.0074 142.964 81.0209 143.742H78.6122ZM88.5086 143.398V145.287H82.5508V143.398H88.5086ZM84.0217 140.915H86.4642V150.645C86.4642 150.973 86.5136 151.225 86.6126 151.4C86.7161 151.571 86.851 151.688 87.0174 151.751C87.1839 151.814 87.3683 151.846 87.5707 151.846C87.7236 151.846 87.8631 151.834 87.989 151.812C88.1195 151.789 88.2184 151.769 88.2859 151.751L88.6975 153.661C88.567 153.705 88.3804 153.755 88.1375 153.809C87.8991 153.863 87.6067 153.894 87.2603 153.903C86.6486 153.921 86.0976 153.829 85.6073 153.627C85.117 153.42 84.7279 153.1 84.44 152.669C84.1566 152.237 84.0172 151.697 84.0217 151.049V140.915ZM93.5335 153.971C92.8768 153.971 92.2853 153.854 91.759 153.62C91.2372 153.382 90.8234 153.031 90.5175 152.567C90.2162 152.104 90.0655 151.533 90.0655 150.854C90.0655 150.269 90.1734 149.785 90.3893 149.403C90.6052 149.021 90.8999 148.715 91.2732 148.485C91.6465 148.256 92.0671 148.083 92.5349 147.966C93.0072 147.844 93.4953 147.757 93.9991 147.703C94.6063 147.64 95.0988 147.584 95.4767 147.534C95.8545 147.48 96.1289 147.399 96.2998 147.291C96.4753 147.179 96.563 147.006 96.563 146.772V146.731C96.563 146.223 96.4123 145.829 96.1109 145.55C95.8095 145.272 95.3755 145.132 94.8087 145.132C94.2105 145.132 93.7359 145.263 93.3851 145.523C93.0387 145.784 92.8048 146.092 92.6834 146.448L90.4028 146.124C90.5827 145.494 90.8796 144.968 91.2934 144.545C91.7073 144.118 92.2133 143.798 92.8116 143.587C93.4098 143.371 94.071 143.263 94.7952 143.263C95.2945 143.263 95.7916 143.322 96.2863 143.439C96.7811 143.556 97.2332 143.749 97.6425 144.019C98.0519 144.284 98.3802 144.646 98.6276 145.105C98.8795 145.564 99.0055 146.137 99.0055 146.826V153.762H96.6574V152.338H96.5765C96.428 152.626 96.2189 152.896 95.949 153.148C95.6836 153.395 95.3485 153.595 94.9437 153.748C94.5433 153.897 94.0733 153.971 93.5335 153.971ZM94.1677 152.176C94.658 152.176 95.0831 152.079 95.4429 151.886C95.8028 151.688 96.0794 151.427 96.2729 151.103C96.4708 150.779 96.5697 150.426 96.5697 150.044V148.823C96.4933 148.886 96.3628 148.944 96.1784 148.998C95.9985 149.052 95.7961 149.099 95.5711 149.14C95.3462 149.18 95.1236 149.216 94.9032 149.248C94.6828 149.279 94.4916 149.306 94.3297 149.329C93.9653 149.378 93.6392 149.459 93.3513 149.572C93.0635 149.684 92.8363 149.842 92.6699 150.044C92.5034 150.242 92.4202 150.498 92.4202 150.813C92.4202 151.263 92.5844 151.603 92.9128 151.832C93.2411 152.061 93.6595 152.176 94.1677 152.176ZM101.461 153.762V143.398H103.83V145.125H103.938C104.127 144.527 104.45 144.066 104.909 143.742C105.373 143.414 105.901 143.25 106.495 143.25C106.63 143.25 106.78 143.256 106.947 143.27C107.118 143.279 107.259 143.295 107.372 143.317V145.564C107.268 145.528 107.104 145.496 106.879 145.469C106.659 145.438 106.445 145.422 106.238 145.422C105.793 145.422 105.393 145.519 105.037 145.712C104.687 145.901 104.41 146.164 104.208 146.502C104.005 146.839 103.904 147.228 103.904 147.669V153.762H101.461ZM114.726 143.398V145.287H108.769V143.398H114.726ZM110.239 140.915H112.682V150.645C112.682 150.973 112.731 151.225 112.83 151.4C112.934 151.571 113.069 151.688 113.235 151.751C113.402 151.814 113.586 151.846 113.788 151.846C113.941 151.846 114.081 151.834 114.207 151.812C114.337 151.789 114.436 151.769 114.504 151.751L114.915 153.661C114.785 153.705 114.598 153.755 114.355 153.809C114.117 153.863 113.824 153.894 113.478 153.903C112.866 153.921 112.315 153.829 111.825 153.627C111.335 153.42 110.946 153.1 110.658 152.669C110.374 152.237 110.235 151.697 110.239 151.049V140.915ZM116.769 153.762V143.398H119.212V153.762H116.769ZM117.997 141.927C117.61 141.927 117.277 141.799 116.998 141.543C116.72 141.282 116.58 140.969 116.58 140.605C116.58 140.236 116.72 139.923 116.998 139.667C117.277 139.406 117.61 139.276 117.997 139.276C118.388 139.276 118.721 139.406 118.996 139.667C119.274 139.923 119.414 140.236 119.414 140.605C119.414 140.969 119.274 141.282 118.996 141.543C118.721 141.799 118.388 141.927 117.997 141.927ZM124.166 147.689V153.762H121.723V143.398H124.058V145.159H124.179C124.417 144.579 124.798 144.118 125.319 143.776C125.846 143.434 126.496 143.263 127.269 143.263C127.984 143.263 128.607 143.416 129.138 143.722C129.674 144.028 130.087 144.471 130.38 145.051C130.677 145.631 130.823 146.335 130.818 147.163V153.762H128.376V147.541C128.376 146.848 128.196 146.306 127.836 145.915C127.481 145.523 126.988 145.328 126.358 145.328C125.931 145.328 125.551 145.422 125.218 145.611C124.89 145.796 124.631 146.063 124.442 146.414C124.258 146.765 124.166 147.19 124.166 147.689ZM137.808 157.864C136.931 157.864 136.178 157.745 135.548 157.506C134.918 157.272 134.412 156.958 134.03 156.562C133.648 156.166 133.382 155.727 133.234 155.246L135.433 154.713C135.532 154.915 135.676 155.116 135.865 155.314C136.054 155.516 136.308 155.682 136.628 155.813C136.951 155.948 137.359 156.015 137.849 156.015C138.542 156.015 139.115 155.847 139.569 155.509C140.024 155.176 140.251 154.628 140.251 153.863V151.9H140.129C140.003 152.151 139.819 152.41 139.576 152.675C139.338 152.941 139.021 153.163 138.625 153.343C138.233 153.523 137.741 153.613 137.147 153.613C136.351 153.613 135.629 153.427 134.981 153.053C134.338 152.675 133.825 152.113 133.443 151.366C133.065 150.615 132.876 149.675 132.876 148.546C132.876 147.408 133.065 146.448 133.443 145.665C133.825 144.878 134.34 144.282 134.988 143.877C135.636 143.468 136.358 143.263 137.154 143.263C137.761 143.263 138.26 143.367 138.652 143.574C139.048 143.776 139.362 144.021 139.596 144.309C139.83 144.592 140.008 144.86 140.129 145.112H140.264V143.398H142.673V153.93C142.673 154.817 142.462 155.55 142.039 156.13C141.616 156.71 141.038 157.144 140.305 157.432C139.572 157.72 138.739 157.864 137.808 157.864ZM137.829 151.697C138.346 151.697 138.787 151.571 139.151 151.319C139.515 151.067 139.792 150.705 139.981 150.233C140.17 149.761 140.264 149.194 140.264 148.533C140.264 147.88 140.17 147.309 139.981 146.819C139.797 146.329 139.522 145.949 139.158 145.679C138.798 145.404 138.355 145.267 137.829 145.267C137.284 145.267 136.83 145.409 136.466 145.692C136.101 145.975 135.827 146.365 135.643 146.859C135.458 147.35 135.366 147.907 135.366 148.533C135.366 149.167 135.458 149.722 135.643 150.199C135.831 150.672 136.108 151.04 136.472 151.306C136.841 151.567 137.293 151.697 137.829 151.697ZM149.997 153.762V139.944H158.849V142.042H152.5V145.793H158.242V147.892H152.5V153.762H149.997ZM160.874 153.762V143.398H163.242V145.125H163.35C163.539 144.527 163.863 144.066 164.321 143.742C164.785 143.414 165.313 143.25 165.907 143.25C166.042 143.25 166.193 143.256 166.359 143.27C166.53 143.279 166.672 143.295 166.784 143.317V145.564C166.681 145.528 166.516 145.496 166.291 145.469C166.071 145.438 165.857 145.422 165.651 145.422C165.205 145.422 164.805 145.519 164.45 145.712C164.099 145.901 163.822 146.164 163.62 146.502C163.417 146.839 163.316 147.228 163.316 147.669V153.762H160.874ZM172.501 153.964C171.488 153.964 170.611 153.741 169.869 153.296C169.127 152.851 168.551 152.228 168.142 151.427C167.737 150.627 167.535 149.691 167.535 148.62C167.535 147.55 167.737 146.612 168.142 145.807C168.551 145.002 169.127 144.376 169.869 143.931C170.611 143.486 171.488 143.263 172.501 143.263C173.513 143.263 174.39 143.486 175.132 143.931C175.874 144.376 176.448 145.002 176.852 145.807C177.262 146.612 177.466 147.55 177.466 148.62C177.466 149.691 177.262 150.627 176.852 151.427C176.448 152.228 175.874 152.851 175.132 153.296C174.39 153.741 173.513 153.964 172.501 153.964ZM172.514 152.007C173.063 152.007 173.522 151.857 173.89 151.555C174.259 151.25 174.534 150.84 174.714 150.327C174.898 149.815 174.99 149.243 174.99 148.614C174.99 147.979 174.898 147.406 174.714 146.893C174.534 146.376 174.259 145.964 173.89 145.658C173.522 145.353 173.063 145.2 172.514 145.2C171.952 145.2 171.484 145.353 171.111 145.658C170.742 145.964 170.465 146.376 170.281 146.893C170.101 147.406 170.011 147.979 170.011 148.614C170.011 149.243 170.101 149.815 170.281 150.327C170.465 150.84 170.742 151.25 171.111 151.555C171.484 151.857 171.952 152.007 172.514 152.007ZM179.54 153.762V143.398H181.874V145.159H181.996C182.211 144.565 182.569 144.102 183.068 143.769C183.568 143.432 184.164 143.263 184.856 143.263C185.558 143.263 186.15 143.434 186.631 143.776C187.117 144.113 187.458 144.574 187.656 145.159H187.764C187.994 144.583 188.381 144.125 188.925 143.783C189.474 143.436 190.124 143.263 190.875 143.263C191.828 143.263 192.607 143.565 193.209 144.167C193.812 144.77 194.113 145.649 194.113 146.805V153.762H191.664V147.183C191.664 146.54 191.493 146.07 191.151 145.773C190.81 145.472 190.391 145.321 189.896 145.321C189.307 145.321 188.846 145.505 188.513 145.874C188.185 146.239 188.021 146.713 188.021 147.298V153.762H185.625V147.082C185.625 146.547 185.464 146.119 185.14 145.8C184.82 145.481 184.402 145.321 183.885 145.321C183.534 145.321 183.214 145.411 182.927 145.591C182.639 145.766 182.409 146.016 182.238 146.34C182.067 146.659 181.982 147.033 181.982 147.46V153.762H179.54Z" fill="white"/>
<path d="M125.736 222.9C125.736 224.388 125.458 225.664 124.9 226.725C124.347 227.782 123.591 228.592 122.633 229.154C121.679 229.716 120.597 229.998 119.387 229.998C118.177 229.998 117.093 229.716 116.135 229.154C115.182 228.587 114.426 227.775 113.868 226.718C113.315 225.657 113.038 224.384 113.038 222.9C113.038 221.411 113.315 220.138 113.868 219.081C114.426 218.019 115.182 217.207 116.135 216.645C117.093 216.083 118.177 215.801 119.387 215.801C120.597 215.801 121.679 216.083 122.633 216.645C123.591 217.207 124.347 218.019 124.9 219.081C125.458 220.138 125.736 221.411 125.736 222.9ZM123.22 222.9C123.22 221.851 123.056 220.968 122.727 220.248C122.403 219.524 121.954 218.977 121.378 218.608C120.802 218.235 120.139 218.048 119.387 218.048C118.636 218.048 117.973 218.235 117.397 218.608C116.821 218.977 116.369 219.524 116.041 220.248C115.717 220.968 115.555 221.851 115.555 222.9C115.555 223.948 115.717 224.834 116.041 225.558C116.369 226.278 116.821 226.824 117.397 227.197C117.973 227.566 118.636 227.751 119.387 227.751C120.139 227.751 120.802 227.566 121.378 227.197C121.954 226.824 122.403 226.278 122.727 225.558C123.056 224.834 123.22 223.948 123.22 222.9ZM130.438 223.736V229.809H127.995V219.445H130.33V221.206H130.451C130.689 220.626 131.07 220.165 131.591 219.823C132.118 219.481 132.768 219.31 133.541 219.31C134.256 219.31 134.879 219.463 135.41 219.769C135.946 220.075 136.359 220.518 136.652 221.098C136.949 221.678 137.095 222.382 137.09 223.21V229.809H134.648V223.588C134.648 222.895 134.468 222.353 134.108 221.962C133.753 221.57 133.26 221.375 132.63 221.375C132.203 221.375 131.823 221.469 131.49 221.658C131.162 221.842 130.903 222.11 130.714 222.461C130.53 222.812 130.438 223.237 130.438 223.736ZM142.016 215.99V229.809H139.573V215.99H142.016ZM146.045 233.695C145.713 233.695 145.404 233.668 145.121 233.614C144.842 233.565 144.62 233.506 144.453 233.439L145.02 231.536C145.375 231.639 145.692 231.689 145.971 231.684C146.25 231.68 146.495 231.592 146.707 231.421C146.923 231.255 147.105 230.976 147.253 230.585L147.462 230.025L143.704 219.445H146.295L148.684 227.272H148.792L151.187 219.445H153.784L149.635 231.064C149.442 231.612 149.185 232.082 148.866 232.474C148.546 232.87 148.155 233.171 147.692 233.378C147.233 233.589 146.684 233.695 146.045 233.695Z" fill="white"/>
<mask id="mask0_193_42517" style="mask-type:alpha" maskUnits="userSpaceOnUse" x="24" y="165" width="218" height="44">
<rect x="24.524" y="165.609" width="217.406" height="43.3288" fill="#D9D9D9"/>
</mask>
<g mask="url(#mask0_193_42517)">
<circle cx="133.227" cy="134.89" r="108.703" fill="#F7941D"/>
</g>
<path d="M79.6489 196.385V174.567H88.2569C89.9046 174.567 91.3108 174.861 92.4756 175.451C93.6475 176.033 94.5388 176.861 95.1496 177.933C95.7675 178.998 96.0765 180.252 96.0765 181.694C96.0765 183.143 95.764 184.389 95.139 185.433C94.514 186.47 93.6084 187.265 92.4224 187.819C91.2434 188.373 89.8158 188.65 88.1397 188.65H82.3762V184.943H87.3939C88.2746 184.943 89.0062 184.822 89.5885 184.581C90.1709 184.339 90.6042 183.977 90.8883 183.494C91.1795 183.011 91.325 182.411 91.325 181.694C91.325 180.969 91.1795 180.358 90.8883 179.861C90.6042 179.364 90.1674 178.988 89.5779 178.732C88.9955 178.469 88.2604 178.338 87.3726 178.338H84.2618V196.385H79.6489ZM91.4316 186.456L96.8542 196.385H91.7618L86.4564 186.456H91.4316ZM112.866 184.687L108.711 184.943C108.64 184.588 108.488 184.268 108.253 183.984C108.019 183.693 107.71 183.462 107.326 183.292C106.95 183.114 106.499 183.025 105.973 183.025C105.27 183.025 104.677 183.175 104.194 183.473C103.711 183.764 103.47 184.155 103.47 184.645C103.47 185.035 103.626 185.366 103.939 185.635C104.251 185.905 104.787 186.122 105.547 186.285L108.509 186.882C110.1 187.209 111.286 187.734 112.067 188.459C112.848 189.183 113.239 190.135 113.239 191.314C113.239 192.386 112.923 193.327 112.291 194.137C111.666 194.947 110.807 195.579 109.713 196.033C108.626 196.481 107.373 196.704 105.952 196.704C103.786 196.704 102.06 196.253 100.775 195.351C99.4962 194.442 98.7469 193.206 98.5268 191.644L102.991 191.41C103.125 192.07 103.452 192.574 103.971 192.922C104.489 193.263 105.153 193.434 105.963 193.434C106.758 193.434 107.397 193.281 107.88 192.976C108.371 192.663 108.619 192.262 108.626 191.772C108.619 191.36 108.445 191.023 108.104 190.76C107.763 190.49 107.238 190.284 106.527 190.142L103.694 189.577C102.096 189.258 100.906 188.704 100.125 187.915C99.3506 187.127 98.9635 186.122 98.9635 184.9C98.9635 183.849 99.2476 182.944 99.8158 182.184C100.391 181.424 101.197 180.838 102.234 180.426C103.278 180.014 104.5 179.808 105.899 179.808C107.966 179.808 109.592 180.245 110.778 181.118C111.971 181.992 112.667 183.182 112.866 184.687ZM118.75 196.662C118.046 196.662 117.443 196.413 116.939 195.916C116.441 195.412 116.193 194.808 116.193 194.105C116.193 193.409 116.441 192.812 116.939 192.315C117.443 191.818 118.046 191.569 118.75 191.569C119.431 191.569 120.028 191.818 120.539 192.315C121.051 192.812 121.306 193.409 121.306 194.105C121.306 194.574 121.186 195.003 120.944 195.394C120.71 195.778 120.401 196.086 120.017 196.321C119.634 196.548 119.211 196.662 118.75 196.662ZM129.443 174.567L133.843 182.003H134.013L138.434 174.567H143.644L136.986 185.476L143.793 196.385H138.488L134.013 188.938H133.843L129.368 196.385H124.084L130.913 185.476L124.212 174.567H129.443ZM150.888 174.567L155.288 182.003H155.459L159.88 174.567H165.089L158.431 185.476L165.238 196.385H159.933L155.459 188.938H155.288L150.814 196.385H145.53L152.358 185.476L145.657 174.567H150.888ZM172.334 174.567L176.733 182.003H176.904L181.325 174.567H186.535L179.876 185.476L186.684 196.385H181.378L176.904 188.938H176.733L172.259 196.385H166.975L173.804 185.476L167.103 174.567H172.334Z" fill="white"/>
<path opacity="0.8" d="M133.892 33.915L135.353 38.41H140.079L136.256 41.1881L137.716 45.6831L133.892 42.905L130.069 45.6831L131.529 41.1881L127.706 38.41H132.432L133.892 33.915Z" fill="#D9D9D9"/>
<path opacity="0.8" d="M151.403 33.915L152.864 38.41H157.59L153.766 41.1881L155.227 45.6831L151.403 42.905L147.58 45.6831L149.04 41.1881L145.216 38.41H149.943L151.403 33.915Z" fill="#D9D9D9"/>
<path opacity="0.8" d="M116.382 33.915L117.842 38.41H122.569L118.745 41.1881L120.206 45.6831L116.382 42.905L112.558 45.6831L114.019 41.1881L110.195 38.41H114.921L116.382 33.915Z" fill="#D9D9D9"/>
</g>
<defs>
<filter id="filter0_d_193_42517" x="0" y="0.664062" width="286.454" height="286.454" filterUnits="userSpaceOnUse" color-interpolation-filters="sRGB">
<feFlood flood-opacity="0" result="BackgroundImageFix"/>
<feColorMatrix in="SourceAlpha" type="matrix" values="0 0 0 0 0 0 0 0 0 0 0 0 0 0 0 0 0 0 127 0" result="hardAlpha"/>
<feOffset dx="10" dy="9"/>
<feGaussianBlur stdDeviation="12"/>
<feComposite in2="hardAlpha" operator="out"/>
<feColorMatrix type="matrix" values="0 0 0 0 0 0 0 0 0 0 0 0 0 0 0 0 0 0 0.38 0"/>
<feBlend mode="normal" in2="BackgroundImageFix" result="effect1_dropShadow_193_42517"/>
<feBlend mode="normal" in="SourceGraphic" in2="effect1_dropShadow_193_42517" result="shape"/>
</filter>
</defs>
</svg>
