<svg width="32" height="33" viewBox="0 0 32 33" fill="none" xmlns="http://www.w3.org/2000/svg">
<path d="M21.8628 17.1301C21.1033 16.3707 19.8811 16.3707 19.1216 17.1301L17.9834 18.3113C15.7068 17.2998 14.5257 15.2324 14.104 14.389L15.2423 13.2507C16.0017 12.4913 16.0017 11.2691 15.2423 10.5096L13.1337 8.4011C12.7548 8.02222 12.2903 7.85254 11.7846 7.85254C11.2789 7.85254 10.7732 8.06339 10.4355 8.4011L9.59204 9.24452C8.91663 9.96108 8.45376 10.8473 8.41092 11.8176C8.28408 13.4616 8.49493 16.7103 11.3629 19.8301L11.9526 20.4626C14.8617 23.4986 17.9404 24.09 19.8811 24.09C20.1348 24.09 20.3869 24.09 20.5977 24.0472C21.568 23.9632 22.4954 23.5415 23.212 22.8661L24.0554 22.0226C24.4343 21.6438 24.6039 21.1792 24.6039 20.6735C24.6039 20.1678 24.3931 19.6621 24.0554 19.3244L21.8628 17.1301ZM22.7902 20.7987L21.9468 21.6421C21.525 22.0638 20.9765 22.3175 20.4279 22.3586C18.9091 22.4855 15.9161 22.2318 13.1319 19.2798L12.5422 18.6901C10.1388 16.033 9.92797 13.3348 10.0548 11.9858C10.0977 11.4372 10.3497 10.8887 10.7714 10.467L11.6148 9.62355C11.6576 9.58072 11.7416 9.53953 11.7828 9.53953C11.8257 9.53953 11.9097 9.53953 11.9509 9.62355L14.0594 11.7321C14.1434 11.8161 14.1434 11.9858 14.0594 12.0698L12.9211 13.2081C12.4154 13.7138 12.2886 14.516 12.5834 15.1486C13.216 16.4137 14.608 18.6903 17.3061 19.8713C17.9387 20.1662 18.6981 19.9982 19.2038 19.5336L20.385 18.3525C20.469 18.2685 20.6386 18.2685 20.7227 18.3525L22.8312 20.461C22.874 20.5039 22.9152 20.5879 22.9152 20.6291C22.9169 20.6719 22.8758 20.7146 22.7902 20.7987Z" fill="white"/>
<path d="M16.2965 0.938006C12.1223 0.938006 8.24106 2.54084 5.2891 5.49288C0.228599 10.5534 -0.741753 18.2711 2.8857 24.4268L0.439453 32.4392L8.03021 29.6981C14.145 33.5363 22.2005 32.6501 27.3019 27.5056C30.2538 24.5536 31.8568 20.6743 31.8568 16.4981C31.8568 12.3239 30.2539 8.44265 27.3019 5.49069C24.3516 2.53873 20.4706 0.9375 16.2961 0.9375L16.2965 0.938006ZM26.1228 26.3244C21.441 31.0063 14.1041 31.7227 8.62187 28.0541L8.28417 27.8004L3.05583 29.6981L4.74266 24.1729L4.53181 23.8352C1.07413 18.31 1.8747 11.2679 6.47234 6.67209C9.0866 4.05783 12.5871 2.62301 16.2986 2.62301C20.01 2.62301 23.5106 4.05615 26.1248 6.67209C28.7391 9.28635 30.1739 12.7869 30.1739 16.4983C30.1706 20.2097 28.7371 23.7103 26.1228 26.3244Z" fill="white"/>
</svg>
